solid OpenSCAD_Model
  facet normal 0.995185 0.0980178 0
    outer loop
      vertex 18.7 8.08267e-16 87.9
      vertex 18.3407 3.64819 70.1
      vertex 18.3407 3.64819 87.9
    endloop
  endfacet
  facet normal 0.995185 0.0980178 -1.02086e-17
    outer loop
      vertex 18.3407 3.64819 70.1
      vertex 18.7 8.08267e-16 87.9
      vertex 18.7 -1.3716e-15 70.1
    endloop
  endfacet
  facet normal -0.0980173 0.995185 0
    outer loop
      vertex -2.29009e-15 18.7 70.1
      vertex -3.64819 18.3407 87.9
      vertex -2.29009e-15 18.7 87.9
    endloop
  endfacet
  facet normal -0.0980173 0.995185 0
    outer loop
      vertex -3.64819 18.3407 87.9
      vertex -2.29009e-15 18.7 70.1
      vertex -3.64819 18.3407 70.1
    endloop
  endfacet
  facet normal 0.0980178 -0.995185 0
    outer loop
      vertex 2.29009e-15 -18.7 70.1
      vertex 3.64819 -18.3407 87.9
      vertex 2.29009e-15 -18.7 87.9
    endloop
  endfacet
  facet normal 0.0980178 -0.995185 0
    outer loop
      vertex 3.64819 -18.3407 87.9
      vertex 2.29009e-15 -18.7 70.1
      vertex 3.64819 -18.3407 70.1
    endloop
  endfacet
  facet normal 0.773011 -0.634393 0
    outer loop
      vertex 13.2229 -13.2229 87.9
      vertex 15.5485 -10.3892 70.1
      vertex 15.5485 -10.3892 87.9
    endloop
  endfacet
  facet normal 0.773011 -0.634393 0
    outer loop
      vertex 15.5485 -10.3892 70.1
      vertex 13.2229 -13.2229 87.9
      vertex 13.2229 -13.2229 70.1
    endloop
  endfacet
  facet normal -0.773011 0.634393 0
    outer loop
      vertex -14.4232 11.7604 70.1
      vertex -13.2229 13.2229 87.9
      vertex -13.2229 13.2229 70.1
    endloop
  endfacet
  facet normal -0.773011 0.634393 0
    outer loop
      vertex -13.2229 13.2229 87.9
      vertex -14.4232 11.7604 70.1
      vertex -14.4232 11.7604 87.9
    endloop
  endfacet
  facet normal 0.634393 0.773011 -0
    outer loop
      vertex 13.2229 13.2229 70.1
      vertex 10.3892 15.5485 87.9
      vertex 13.2229 13.2229 87.9
    endloop
  endfacet
  facet normal 0.634393 0.773011 0
    outer loop
      vertex 10.3892 15.5485 87.9
      vertex 13.2229 13.2229 70.1
      vertex 10.3892 15.5485 70.1
    endloop
  endfacet
  facet normal 0.290284 0.95694 -0
    outer loop
      vertex 7.15618 17.2765 70.1
      vertex 3.64819 18.3407 87.9
      vertex 7.15618 17.2765 87.9
    endloop
  endfacet
  facet normal 0.290284 0.95694 0
    outer loop
      vertex 3.64819 18.3407 87.9
      vertex 7.15618 17.2765 70.1
      vertex 3.64819 18.3407 70.1
    endloop
  endfacet
  facet normal -0.634393 -0.773011 0
    outer loop
      vertex -13.2229 -13.2229 70.1
      vertex -10.3892 -15.5485 87.9
      vertex -13.2229 -13.2229 87.9
    endloop
  endfacet
  facet normal -0.634393 -0.773011 -0
    outer loop
      vertex -10.3892 -15.5485 87.9
      vertex -13.2229 -13.2229 70.1
      vertex -10.3892 -15.5485 70.1
    endloop
  endfacet
  facet normal -0.471397 0.881921 0
    outer loop
      vertex -7.15618 17.2765 70.1
      vertex -10.3892 15.5485 87.9
      vertex -7.15618 17.2765 87.9
    endloop
  endfacet
  facet normal -0.471397 0.881921 0
    outer loop
      vertex -10.3892 15.5485 87.9
      vertex -7.15618 17.2765 70.1
      vertex -10.3892 15.5485 70.1
    endloop
  endfacet
  facet normal -0.290284 0.95694 0
    outer loop
      vertex -3.64819 18.3407 70.1
      vertex -7.15618 17.2765 87.9
      vertex -3.64819 18.3407 87.9
    endloop
  endfacet
  facet normal -0.290284 0.95694 0
    outer loop
      vertex -7.15618 17.2765 87.9
      vertex -3.64819 18.3407 70.1
      vertex -7.15618 17.2765 70.1
    endloop
  endfacet
  facet normal -0.634393 0.773011 0
    outer loop
      vertex -10.3892 15.5485 70.1
      vertex -13.2229 13.2229 87.9
      vertex -10.3892 15.5485 87.9
    endloop
  endfacet
  facet normal -0.634393 0.773011 0
    outer loop
      vertex -13.2229 13.2229 87.9
      vertex -10.3892 15.5485 70.1
      vertex -13.2229 13.2229 70.1
    endloop
  endfacet
  facet normal 0.881921 0.471397 0
    outer loop
      vertex 17.2765 7.15618 87.9
      vertex 15.5485 10.3892 70.1
      vertex 15.5485 10.3892 87.9
    endloop
  endfacet
  facet normal 0.881921 0.471397 0
    outer loop
      vertex 15.5485 10.3892 70.1
      vertex 17.2765 7.15618 87.9
      vertex 17.2765 7.15618 70.1
    endloop
  endfacet
  facet normal 0.773011 0.634393 0
    outer loop
      vertex 15.5485 10.3892 87.9
      vertex 13.2229 13.2229 70.1
      vertex 13.2229 13.2229 87.9
    endloop
  endfacet
  facet normal 0.773011 0.634393 0
    outer loop
      vertex 13.2229 13.2229 70.1
      vertex 15.5485 10.3892 87.9
      vertex 15.5485 10.3892 70.1
    endloop
  endfacet
  facet normal 0.95694 0.290284 0
    outer loop
      vertex 18.3407 3.64819 87.9
      vertex 17.2765 7.15618 70.1
      vertex 17.2765 7.15618 87.9
    endloop
  endfacet
  facet normal 0.95694 0.290284 0
    outer loop
      vertex 17.2765 7.15618 70.1
      vertex 18.3407 3.64819 87.9
      vertex 18.3407 3.64819 70.1
    endloop
  endfacet
  facet normal 0 0 -1
    outer loop
      vertex 15.9 -1.71451e-15 70.1
      vertex 18.7 -1.3716e-15 70.1
      vertex 18.3407 -3.64819 70.1
    endloop
  endfacet
  facet normal 0 0 -1
    outer loop
      vertex 15.5945 -3.10194 70.1
      vertex 18.3407 -3.64819 70.1
      vertex 17.2765 -7.15618 70.1
    endloop
  endfacet
  facet normal -0 0 -1
    outer loop
      vertex 18.7 -1.3716e-15 70.1
      vertex 15.9 -1.71451e-15 70.1
      vertex 18.3407 3.64819 70.1
    endloop
  endfacet
  facet normal 0 0 -1
    outer loop
      vertex 15.5945 3.10194 70.1
      vertex 18.3407 3.64819 70.1
      vertex 15.9 -1.71451e-15 70.1
    endloop
  endfacet
  facet normal 0 0 -1
    outer loop
      vertex 18.3407 -3.64819 70.1
      vertex 15.5945 -3.10194 70.1
      vertex 15.9 -1.71451e-15 70.1
    endloop
  endfacet
  facet normal 0 0 -1
    outer loop
      vertex 14.6897 -6.08467 70.1
      vertex 17.2765 -7.15618 70.1
      vertex 15.5485 -10.3892 70.1
    endloop
  endfacet
  facet normal 0 0 -1
    outer loop
      vertex 17.2765 -7.15618 70.1
      vertex 14.6897 -6.08467 70.1
      vertex 15.5945 -3.10194 70.1
    endloop
  endfacet
  facet normal 0 0 -1
    outer loop
      vertex 13.2204 -8.83357 70.1
      vertex 15.5485 -10.3892 70.1
      vertex 13.2229 -13.2229 70.1
    endloop
  endfacet
  facet normal 0 0 -1
    outer loop
      vertex 15.5485 -10.3892 70.1
      vertex 13.2204 -8.83357 70.1
      vertex 14.6897 -6.08467 70.1
    endloop
  endfacet
  facet normal 0 0 -1
    outer loop
      vertex 13.2229 -13.2229 70.1
      vertex 11.243 -11.243 70.1
      vertex 13.2204 -8.83357 70.1
    endloop
  endfacet
  facet normal 0 0 -1
    outer loop
      vertex 10.3892 -15.5485 70.1
      vertex 11.243 -11.243 70.1
      vertex 13.2229 -13.2229 70.1
    endloop
  endfacet
  facet normal 0 0 -1
    outer loop
      vertex 10.3892 -15.5485 70.1
      vertex 8.83357 -13.2204 70.1
      vertex 11.243 -11.243 70.1
    endloop
  endfacet
  facet normal 0 0 -1
    outer loop
      vertex 7.15618 -17.2765 70.1
      vertex 8.83357 -13.2204 70.1
      vertex 10.3892 -15.5485 70.1
    endloop
  endfacet
  facet normal 0 0 -1
    outer loop
      vertex 7.15618 -17.2765 70.1
      vertex 6.08467 -14.6897 70.1
      vertex 8.83357 -13.2204 70.1
    endloop
  endfacet
  facet normal 0 0 -1
    outer loop
      vertex 3.64819 -18.3407 70.1
      vertex 6.08467 -14.6897 70.1
      vertex 7.15618 -17.2765 70.1
    endloop
  endfacet
  facet normal 0 0 -1
    outer loop
      vertex 3.64819 -18.3407 70.1
      vertex 3.10194 -15.5945 70.1
      vertex 6.08467 -14.6897 70.1
    endloop
  endfacet
  facet normal 0 0 -1
    outer loop
      vertex 2.29009e-15 -18.7 70.1
      vertex 3.10194 -15.5945 70.1
      vertex 3.64819 -18.3407 70.1
    endloop
  endfacet
  facet normal 0 0 -1
    outer loop
      vertex 2.29009e-15 -18.7 70.1
      vertex 1.94719e-15 -15.9 70.1
      vertex 3.10194 -15.5945 70.1
    endloop
  endfacet
  facet normal 0 0 -1
    outer loop
      vertex 2.29009e-15 -18.7 70.1
      vertex -3.10194 -15.5945 70.1
      vertex 1.94719e-15 -15.9 70.1
    endloop
  endfacet
  facet normal 0 0 -1
    outer loop
      vertex -3.64819 -18.3407 70.1
      vertex -3.10194 -15.5945 70.1
      vertex 2.29009e-15 -18.7 70.1
    endloop
  endfacet
  facet normal 0 0 -1
    outer loop
      vertex -3.64819 -18.3407 70.1
      vertex -6.08467 -14.6897 70.1
      vertex -3.10194 -15.5945 70.1
    endloop
  endfacet
  facet normal 0 0 -1
    outer loop
      vertex -7.15618 -17.2765 70.1
      vertex -6.08467 -14.6897 70.1
      vertex -3.64819 -18.3407 70.1
    endloop
  endfacet
  facet normal 0 0 -1
    outer loop
      vertex -7.15618 -17.2765 70.1
      vertex -8.83357 -13.2204 70.1
      vertex -6.08467 -14.6897 70.1
    endloop
  endfacet
  facet normal 0 0 -1
    outer loop
      vertex -10.3892 -15.5485 70.1
      vertex -8.83357 -13.2204 70.1
      vertex -7.15618 -17.2765 70.1
    endloop
  endfacet
  facet normal -0 0 -1
    outer loop
      vertex -8.83357 -13.2204 70.1
      vertex -10.3892 -15.5485 70.1
      vertex -10.284 -12.03 70.1
    endloop
  endfacet
  facet normal 0 0 -1
    outer loop
      vertex -13.2229 -13.2229 70.1
      vertex -10.284 -12.03 70.1
      vertex -10.3892 -15.5485 70.1
    endloop
  endfacet
  facet normal -0 0 -1
    outer loop
      vertex -10.284 -12.03 70.1
      vertex -13.2229 -13.2229 70.1
      vertex -14.4232 -11.7604 70.1
    endloop
  endfacet
  facet normal -0 0 -1
    outer loop
      vertex 18.3407 3.64819 70.1
      vertex 15.5945 3.10194 70.1
      vertex 17.2765 7.15618 70.1
    endloop
  endfacet
  facet normal 0 0 -1
    outer loop
      vertex 14.6897 6.08467 70.1
      vertex 17.2765 7.15618 70.1
      vertex 15.5945 3.10194 70.1
    endloop
  endfacet
  facet normal -0 0 -1
    outer loop
      vertex 17.2765 7.15618 70.1
      vertex 14.6897 6.08467 70.1
      vertex 15.5485 10.3892 70.1
    endloop
  endfacet
  facet normal 0 0 -1
    outer loop
      vertex 13.2204 8.83357 70.1
      vertex 15.5485 10.3892 70.1
      vertex 14.6897 6.08467 70.1
    endloop
  endfacet
  facet normal -0 0 -1
    outer loop
      vertex 15.5485 10.3892 70.1
      vertex 13.2204 8.83357 70.1
      vertex 13.2229 13.2229 70.1
    endloop
  endfacet
  facet normal 0 0 -1
    outer loop
      vertex 11.243 11.243 70.1
      vertex 13.2229 13.2229 70.1
      vertex 13.2204 8.83357 70.1
    endloop
  endfacet
  facet normal 0 0 -1
    outer loop
      vertex 11.243 11.243 70.1
      vertex 10.3892 15.5485 70.1
      vertex 13.2229 13.2229 70.1
    endloop
  endfacet
  facet normal 0 0 -1
    outer loop
      vertex 8.83357 13.2204 70.1
      vertex 10.3892 15.5485 70.1
      vertex 11.243 11.243 70.1
    endloop
  endfacet
  facet normal 0 0 -1
    outer loop
      vertex 8.83357 13.2204 70.1
      vertex 7.15618 17.2765 70.1
      vertex 10.3892 15.5485 70.1
    endloop
  endfacet
  facet normal 0 0 -1
    outer loop
      vertex 6.08467 14.6897 70.1
      vertex 7.15618 17.2765 70.1
      vertex 8.83357 13.2204 70.1
    endloop
  endfacet
  facet normal 0 0 -1
    outer loop
      vertex 6.08467 14.6897 70.1
      vertex 3.64819 18.3407 70.1
      vertex 7.15618 17.2765 70.1
    endloop
  endfacet
  facet normal 0 0 -1
    outer loop
      vertex 3.10194 15.5945 70.1
      vertex 3.64819 18.3407 70.1
      vertex 6.08467 14.6897 70.1
    endloop
  endfacet
  facet normal 0 0 -1
    outer loop
      vertex -1.94719e-15 15.9 70.1
      vertex 3.64819 18.3407 70.1
      vertex 3.10194 15.5945 70.1
    endloop
  endfacet
  facet normal 0 0 -1
    outer loop
      vertex -1.94719e-15 15.9 70.1
      vertex -2.29009e-15 18.7 70.1
      vertex 3.64819 18.3407 70.1
    endloop
  endfacet
  facet normal 0 0 -1
    outer loop
      vertex -3.10194 15.5945 70.1
      vertex -2.29009e-15 18.7 70.1
      vertex -1.94719e-15 15.9 70.1
    endloop
  endfacet
  facet normal 0 0 -1
    outer loop
      vertex -3.10194 15.5945 70.1
      vertex -3.64819 18.3407 70.1
      vertex -2.29009e-15 18.7 70.1
    endloop
  endfacet
  facet normal 0 0 -1
    outer loop
      vertex -6.08467 14.6897 70.1
      vertex -3.64819 18.3407 70.1
      vertex -3.10194 15.5945 70.1
    endloop
  endfacet
  facet normal 0 0 -1
    outer loop
      vertex -6.08467 14.6897 70.1
      vertex -7.15618 17.2765 70.1
      vertex -3.64819 18.3407 70.1
    endloop
  endfacet
  facet normal 0 0 -1
    outer loop
      vertex -8.83357 13.2204 70.1
      vertex -7.15618 17.2765 70.1
      vertex -6.08467 14.6897 70.1
    endloop
  endfacet
  facet normal 0 0 -1
    outer loop
      vertex -10.3892 15.5485 70.1
      vertex -8.83357 13.2204 70.1
      vertex -10.284 12.03 70.1
    endloop
  endfacet
  facet normal 0 0 -1
    outer loop
      vertex -8.83357 13.2204 70.1
      vertex -10.3892 15.5485 70.1
      vertex -7.15618 17.2765 70.1
    endloop
  endfacet
  facet normal 0 0 -1
    outer loop
      vertex -10.284 12.03 70.1
      vertex -13.2229 13.2229 70.1
      vertex -10.3892 15.5485 70.1
    endloop
  endfacet
  facet normal 0 -0 -1
    outer loop
      vertex -13.2229 13.2229 70.1
      vertex -10.284 12.03 70.1
      vertex -14.4232 11.7604 70.1
    endloop
  endfacet
  facet normal 0.471397 0.881921 -0
    outer loop
      vertex 10.3892 15.5485 70.1
      vertex 7.15618 17.2765 87.9
      vertex 10.3892 15.5485 87.9
    endloop
  endfacet
  facet normal 0.471397 0.881921 0
    outer loop
      vertex 7.15618 17.2765 87.9
      vertex 10.3892 15.5485 70.1
      vertex 7.15618 17.2765 70.1
    endloop
  endfacet
  facet normal 0.0980173 0.995185 -0
    outer loop
      vertex 3.64819 18.3407 70.1
      vertex -2.29009e-15 18.7 87.9
      vertex 3.64819 18.3407 87.9
    endloop
  endfacet
  facet normal 0.0980173 0.995185 0
    outer loop
      vertex -2.29009e-15 18.7 87.9
      vertex 3.64819 18.3407 70.1
      vertex -2.29009e-15 18.7 70.1
    endloop
  endfacet
  facet normal -0.0980178 -0.995185 1.06638e-07
    outer loop
      vertex -3.64819 -18.3407 70.1
      vertex 2.29009e-15 -18.7 87.9
      vertex -3.64819 -18.3407 87.9
    endloop
  endfacet
  facet normal -0.0980173 -0.995185 -0
    outer loop
      vertex 2.29009e-15 -18.7 87.9
      vertex -3.64819 -18.3407 70.1
      vertex 2.29009e-15 -18.7 70.1
    endloop
  endfacet
  facet normal -0.471397 -0.881921 0
    outer loop
      vertex -10.3892 -15.5485 70.1
      vertex -7.15618 -17.2765 87.9
      vertex -10.3892 -15.5485 87.9
    endloop
  endfacet
  facet normal -0.471397 -0.881921 -0
    outer loop
      vertex -7.15618 -17.2765 87.9
      vertex -10.3892 -15.5485 70.1
      vertex -7.15618 -17.2765 70.1
    endloop
  endfacet
  facet normal 0.634393 -0.773011 0
    outer loop
      vertex 10.3892 -15.5485 70.1
      vertex 13.2229 -13.2229 87.9
      vertex 10.3892 -15.5485 87.9
    endloop
  endfacet
  facet normal 0.634393 -0.773011 0
    outer loop
      vertex 13.2229 -13.2229 87.9
      vertex 10.3892 -15.5485 70.1
      vertex 13.2229 -13.2229 70.1
    endloop
  endfacet
  facet normal 0.290284 -0.95694 0
    outer loop
      vertex 3.64819 -18.3407 70.1
      vertex 7.15618 -17.2765 87.9
      vertex 3.64819 -18.3407 87.9
    endloop
  endfacet
  facet normal 0.290284 -0.95694 0
    outer loop
      vertex 7.15618 -17.2765 87.9
      vertex 3.64819 -18.3407 70.1
      vertex 7.15618 -17.2765 70.1
    endloop
  endfacet
  facet normal 0.881921 -0.471397 0
    outer loop
      vertex 15.5485 -10.3892 87.9
      vertex 17.2765 -7.15618 70.1
      vertex 17.2765 -7.15618 87.9
    endloop
  endfacet
  facet normal 0.881921 -0.471397 0
    outer loop
      vertex 17.2765 -7.15618 70.1
      vertex 15.5485 -10.3892 87.9
      vertex 15.5485 -10.3892 70.1
    endloop
  endfacet
  facet normal 0.995185 -0.0980178 1.02086e-17
    outer loop
      vertex 18.3407 -3.64819 87.9
      vertex 18.7 -1.3716e-15 70.1
      vertex 18.7 8.08267e-16 87.9
    endloop
  endfacet
  facet normal 0.995185 -0.0980178 0
    outer loop
      vertex 18.7 -1.3716e-15 70.1
      vertex 18.3407 -3.64819 87.9
      vertex 18.3407 -3.64819 70.1
    endloop
  endfacet
  facet normal -0.290284 -0.95694 0
    outer loop
      vertex -7.15618 -17.2765 70.1
      vertex -3.64819 -18.3407 87.9
      vertex -7.15618 -17.2765 87.9
    endloop
  endfacet
  facet normal -0.290285 -0.95694 1.0254e-07
    outer loop
      vertex -3.64819 -18.3407 87.9
      vertex -7.15618 -17.2765 70.1
      vertex -3.64819 -18.3407 70.1
    endloop
  endfacet
  facet normal -0.773011 -0.634393 0
    outer loop
      vertex -13.2229 -13.2229 70.1
      vertex -14.4232 -11.7604 87.9
      vertex -14.4232 -11.7604 70.1
    endloop
  endfacet
  facet normal -0.773011 -0.634393 0
    outer loop
      vertex -14.4232 -11.7604 87.9
      vertex -13.2229 -13.2229 70.1
      vertex -13.2229 -13.2229 87.9
    endloop
  endfacet
  facet normal 0.471397 -0.881921 0
    outer loop
      vertex 7.15618 -17.2765 70.1
      vertex 10.3892 -15.5485 87.9
      vertex 7.15618 -17.2765 87.9
    endloop
  endfacet
  facet normal 0.471397 -0.881921 0
    outer loop
      vertex 10.3892 -15.5485 87.9
      vertex 7.15618 -17.2765 70.1
      vertex 10.3892 -15.5485 70.1
    endloop
  endfacet
  facet normal 0.95694 -0.290284 0
    outer loop
      vertex 17.2765 -7.15618 87.9
      vertex 18.3407 -3.64819 70.1
      vertex 18.3407 -3.64819 87.9
    endloop
  endfacet
  facet normal 0.95694 -0.290284 0
    outer loop
      vertex 18.3407 -3.64819 70.1
      vertex 17.2765 -7.15618 87.9
      vertex 17.2765 -7.15618 70.1
    endloop
  endfacet
  facet normal 0.705398 -0.0694758 0.705398
    outer loop
      vertex 16.3791 -3.25801 89.9
      vertex 18.7 8.08267e-16 87.9
      vertex 16.7 8.08267e-16 89.9
    endloop
  endfacet
  facet normal 0.0694754 0.705398 0.705398
    outer loop
      vertex -2.04516e-15 16.7 89.9
      vertex 3.25801 16.3791 89.9
      vertex -2.29009e-15 18.7 87.9
    endloop
  endfacet
  facet normal -0.0694758 -0.705398 0.705398
    outer loop
      vertex -3.25801 -16.3791 89.9
      vertex 2.29009e-15 -18.7 87.9
      vertex 2.04516e-15 -16.7 89.9
    endloop
  endfacet
  facet normal 0.705398 0.0694762 0.705398
    outer loop
      vertex 16.3791 3.25801 89.9
      vertex 18.7 8.08267e-16 87.9
      vertex 18.3407 3.64819 87.9
    endloop
  endfacet
  facet normal -0.205757 -0.67829 0.705398
    outer loop
      vertex -7.15618 -17.2765 87.9
      vertex -3.64819 -18.3407 87.9
      vertex -6.39081 -15.4288 89.9
    endloop
  endfacet
  facet normal 0.449665 -0.547918 0.705398
    outer loop
      vertex 9.27802 -13.8855 89.9
      vertex 13.2229 -13.2229 87.9
      vertex 11.8087 -11.8087 89.9
    endloop
  endfacet
  facet normal 0.67829 -0.205757 0.705398
    outer loop
      vertex 17.2765 -7.15618 87.9
      vertex 18.3407 -3.64819 87.9
      vertex 15.4288 -6.39081 89.9
    endloop
  endfacet
  facet normal 0.334131 -0.625116 0.705398
    outer loop
      vertex 7.15618 -17.2765 87.9
      vertex 10.3892 -15.5485 87.9
      vertex 6.39081 -15.4288 89.9
    endloop
  endfacet
  facet normal 0.67829 0.205757 0.705398
    outer loop
      vertex 15.4288 6.39081 89.9
      vertex 18.3407 3.64819 87.9
      vertex 17.2765 7.15618 87.9
    endloop
  endfacet
  facet normal 0.205757 0.67829 0.705398
    outer loop
      vertex 6.39081 15.4288 89.9
      vertex 7.15618 17.2765 87.9
      vertex 3.64819 18.3407 87.9
    endloop
  endfacet
  facet normal -0.449665 0.547918 0.705398
    outer loop
      vertex -13.2229 13.2229 87.9
      vertex -11.6472 11.9412 89.9
      vertex -9.27802 13.8855 89.9
    endloop
  endfacet
  facet normal -0.449663 0.547921 0.705398
    outer loop
      vertex -11.6472 11.9412 89.9
      vertex -13.2229 13.2229 87.9
      vertex -11.9232 11.9232 89.738
    endloop
  endfacet
  facet normal -0.54792 -0.449663 0.705398
    outer loop
      vertex -13.2229 -13.2229 87.9
      vertex -11.9232 -11.9232 89.738
      vertex -13.458 -11.8233 88.6096
    endloop
  endfacet
  facet normal -0.449663 -0.547921 0.705398
    outer loop
      vertex -13.2229 -13.2229 87.9
      vertex -11.6472 -11.9412 89.9
      vertex -11.9232 -11.9232 89.738
    endloop
  endfacet
  facet normal -0.449665 -0.547918 0.705398
    outer loop
      vertex -11.6472 -11.9412 89.9
      vertex -13.2229 -13.2229 87.9
      vertex -9.27802 -13.8855 89.9
    endloop
  endfacet
  facet normal 0 0 1
    outer loop
      vertex 14.9 5.8783e-16 89.9
      vertex 16.7 8.08267e-16 89.9
      vertex 16.3791 3.25801 89.9
    endloop
  endfacet
  facet normal 0 0 1
    outer loop
      vertex 14.6137 2.90685 89.9
      vertex 16.3791 3.25801 89.9
      vertex 15.4288 6.39081 89.9
    endloop
  endfacet
  facet normal 0 0 1
    outer loop
      vertex 16.7 8.08267e-16 89.9
      vertex 14.9 5.8783e-16 89.9
      vertex 16.3791 -3.25801 89.9
    endloop
  endfacet
  facet normal -0 0 1
    outer loop
      vertex 14.6137 -2.90685 89.9
      vertex 16.3791 -3.25801 89.9
      vertex 14.9 5.8783e-16 89.9
    endloop
  endfacet
  facet normal 0 0 1
    outer loop
      vertex 16.3791 3.25801 89.9
      vertex 14.6137 2.90685 89.9
      vertex 14.9 5.8783e-16 89.9
    endloop
  endfacet
  facet normal 0 0 1
    outer loop
      vertex 13.7658 5.70198 89.9
      vertex 15.4288 6.39081 89.9
      vertex 13.8855 9.27802 89.9
    endloop
  endfacet
  facet normal 0 0 1
    outer loop
      vertex 15.4288 6.39081 89.9
      vertex 13.7658 5.70198 89.9
      vertex 14.6137 2.90685 89.9
    endloop
  endfacet
  facet normal 0 0 1
    outer loop
      vertex 13.8855 9.27802 89.9
      vertex 12.3889 8.278 89.9
      vertex 13.7658 5.70198 89.9
    endloop
  endfacet
  facet normal 0 0 1
    outer loop
      vertex 11.8087 11.8087 89.9
      vertex 12.3889 8.278 89.9
      vertex 13.8855 9.27802 89.9
    endloop
  endfacet
  facet normal 0 0 1
    outer loop
      vertex 11.8087 11.8087 89.9
      vertex 10.5359 10.5359 89.9
      vertex 12.3889 8.278 89.9
    endloop
  endfacet
  facet normal 0 0 1
    outer loop
      vertex 9.27802 13.8855 89.9
      vertex 10.5359 10.5359 89.9
      vertex 11.8087 11.8087 89.9
    endloop
  endfacet
  facet normal 0 0 1
    outer loop
      vertex 9.27802 13.8855 89.9
      vertex 8.278 12.3889 89.9
      vertex 10.5359 10.5359 89.9
    endloop
  endfacet
  facet normal 0 0 1
    outer loop
      vertex 6.39081 15.4288 89.9
      vertex 8.278 12.3889 89.9
      vertex 9.27802 13.8855 89.9
    endloop
  endfacet
  facet normal 0 0 1
    outer loop
      vertex 6.39081 15.4288 89.9
      vertex 5.70198 13.7658 89.9
      vertex 8.278 12.3889 89.9
    endloop
  endfacet
  facet normal 0 0 1
    outer loop
      vertex 3.25801 16.3791 89.9
      vertex 5.70198 13.7658 89.9
      vertex 6.39081 15.4288 89.9
    endloop
  endfacet
  facet normal 0 0 1
    outer loop
      vertex 3.25801 16.3791 89.9
      vertex 2.90685 14.6137 89.9
      vertex 5.70198 13.7658 89.9
    endloop
  endfacet
  facet normal 0 0 1
    outer loop
      vertex 3.25801 16.3791 89.9
      vertex -1.82472e-15 14.9 89.9
      vertex 2.90685 14.6137 89.9
    endloop
  endfacet
  facet normal 0 0 1
    outer loop
      vertex -2.04516e-15 16.7 89.9
      vertex -1.82472e-15 14.9 89.9
      vertex 3.25801 16.3791 89.9
    endloop
  endfacet
  facet normal 0 0 1
    outer loop
      vertex -2.04516e-15 16.7 89.9
      vertex -2.90685 14.6137 89.9
      vertex -1.82472e-15 14.9 89.9
    endloop
  endfacet
  facet normal -0 0 1
    outer loop
      vertex -3.25801 16.3791 89.9
      vertex -2.90685 14.6137 89.9
      vertex -2.04516e-15 16.7 89.9
    endloop
  endfacet
  facet normal 0 0 1
    outer loop
      vertex -3.25801 16.3791 89.9
      vertex -5.70198 13.7658 89.9
      vertex -2.90685 14.6137 89.9
    endloop
  endfacet
  facet normal -0 0 1
    outer loop
      vertex -6.39081 15.4288 89.9
      vertex -5.70198 13.7658 89.9
      vertex -3.25801 16.3791 89.9
    endloop
  endfacet
  facet normal 0 0 1
    outer loop
      vertex -6.39081 15.4288 89.9
      vertex -8.278 12.3889 89.9
      vertex -5.70198 13.7658 89.9
    endloop
  endfacet
  facet normal -0 0 1
    outer loop
      vertex -9.27802 13.8855 89.9
      vertex -8.278 12.3889 89.9
      vertex -6.39081 15.4288 89.9
    endloop
  endfacet
  facet normal 0 0 1
    outer loop
      vertex -8.278 12.3889 89.9
      vertex -9.27802 13.8855 89.9
      vertex -8.58001 12.141 89.9
    endloop
  endfacet
  facet normal 0 0 1
    outer loop
      vertex -8.58001 12.141 89.9
      vertex -9.27802 13.8855 89.9
      vertex -11.6472 11.9412 89.9
    endloop
  endfacet
  facet normal 0 0 1
    outer loop
      vertex 16.3791 -3.25801 89.9
      vertex 14.6137 -2.90685 89.9
      vertex 15.4288 -6.39081 89.9
    endloop
  endfacet
  facet normal -0 0 1
    outer loop
      vertex 13.7658 -5.70198 89.9
      vertex 15.4288 -6.39081 89.9
      vertex 14.6137 -2.90685 89.9
    endloop
  endfacet
  facet normal 0 0 1
    outer loop
      vertex 15.4288 -6.39081 89.9
      vertex 13.7658 -5.70198 89.9
      vertex 13.8855 -9.27802 89.9
    endloop
  endfacet
  facet normal -0 0 1
    outer loop
      vertex 12.3889 -8.278 89.9
      vertex 13.8855 -9.27802 89.9
      vertex 13.7658 -5.70198 89.9
    endloop
  endfacet
  facet normal 0 0 1
    outer loop
      vertex 12.3889 -8.278 89.9
      vertex 11.8087 -11.8087 89.9
      vertex 13.8855 -9.27802 89.9
    endloop
  endfacet
  facet normal -0 0 1
    outer loop
      vertex 10.5359 -10.5359 89.9
      vertex 11.8087 -11.8087 89.9
      vertex 12.3889 -8.278 89.9
    endloop
  endfacet
  facet normal 0 0 1
    outer loop
      vertex 10.5359 -10.5359 89.9
      vertex 9.27802 -13.8855 89.9
      vertex 11.8087 -11.8087 89.9
    endloop
  endfacet
  facet normal -0 0 1
    outer loop
      vertex 8.278 -12.3889 89.9
      vertex 9.27802 -13.8855 89.9
      vertex 10.5359 -10.5359 89.9
    endloop
  endfacet
  facet normal 0 0 1
    outer loop
      vertex 8.278 -12.3889 89.9
      vertex 6.39081 -15.4288 89.9
      vertex 9.27802 -13.8855 89.9
    endloop
  endfacet
  facet normal -0 0 1
    outer loop
      vertex 5.70198 -13.7658 89.9
      vertex 6.39081 -15.4288 89.9
      vertex 8.278 -12.3889 89.9
    endloop
  endfacet
  facet normal 0 0 1
    outer loop
      vertex 5.70198 -13.7658 89.9
      vertex 3.25801 -16.3791 89.9
      vertex 6.39081 -15.4288 89.9
    endloop
  endfacet
  facet normal -0 0 1
    outer loop
      vertex 2.90685 -14.6137 89.9
      vertex 3.25801 -16.3791 89.9
      vertex 5.70198 -13.7658 89.9
    endloop
  endfacet
  facet normal 0 0 1
    outer loop
      vertex 2.90685 -14.6137 89.9
      vertex 2.04516e-15 -16.7 89.9
      vertex 3.25801 -16.3791 89.9
    endloop
  endfacet
  facet normal -0 0 1
    outer loop
      vertex 1.82472e-15 -14.9 89.9
      vertex 2.04516e-15 -16.7 89.9
      vertex 2.90685 -14.6137 89.9
    endloop
  endfacet
  facet normal 0 0 1
    outer loop
      vertex -2.90685 -14.6137 89.9
      vertex 2.04516e-15 -16.7 89.9
      vertex 1.82472e-15 -14.9 89.9
    endloop
  endfacet
  facet normal 0 0 1
    outer loop
      vertex -2.90685 -14.6137 89.9
      vertex -3.25801 -16.3791 89.9
      vertex 2.04516e-15 -16.7 89.9
    endloop
  endfacet
  facet normal 0 0 1
    outer loop
      vertex -5.70198 -13.7658 89.9
      vertex -3.25801 -16.3791 89.9
      vertex -2.90685 -14.6137 89.9
    endloop
  endfacet
  facet normal 0 0 1
    outer loop
      vertex -5.70198 -13.7658 89.9
      vertex -6.39081 -15.4288 89.9
      vertex -3.25801 -16.3791 89.9
    endloop
  endfacet
  facet normal 0 0 1
    outer loop
      vertex -8.278 -12.3889 89.9
      vertex -6.39081 -15.4288 89.9
      vertex -5.70198 -13.7658 89.9
    endloop
  endfacet
  facet normal 0 0 1
    outer loop
      vertex -9.27802 -13.8855 89.9
      vertex -8.278 -12.3889 89.9
      vertex -8.58001 -12.141 89.9
    endloop
  endfacet
  facet normal 0 0 1
    outer loop
      vertex -8.278 -12.3889 89.9
      vertex -9.27802 -13.8855 89.9
      vertex -6.39081 -15.4288 89.9
    endloop
  endfacet
  facet normal 0 -0 1
    outer loop
      vertex -9.27802 -13.8855 89.9
      vertex -8.58001 -12.141 89.9
      vertex -11.6472 -11.9412 89.9
    endloop
  endfacet
  facet normal 0.67829 -0.205757 0.705398
    outer loop
      vertex 15.4288 -6.39081 89.9
      vertex 18.3407 -3.64819 87.9
      vertex 16.3791 -3.25801 89.9
    endloop
  endfacet
  facet normal 0.625116 -0.334131 0.705398
    outer loop
      vertex 13.8855 -9.27802 89.9
      vertex 15.5485 -10.3892 87.9
      vertex 15.4288 -6.39081 89.9
    endloop
  endfacet
  facet normal 0.0694758 -0.705398 0.705398
    outer loop
      vertex 2.29009e-15 -18.7 87.9
      vertex 3.25801 -16.3791 89.9
      vertex 2.04516e-15 -16.7 89.9
    endloop
  endfacet
  facet normal 0.547918 0.449665 0.705398
    outer loop
      vertex 11.8087 11.8087 89.9
      vertex 13.8855 9.27802 89.9
      vertex 13.2229 13.2229 87.9
    endloop
  endfacet
  facet normal 0.67829 0.205757 0.705398
    outer loop
      vertex 16.3791 3.25801 89.9
      vertex 18.3407 3.64819 87.9
      vertex 15.4288 6.39081 89.9
    endloop
  endfacet
  facet normal 0.449665 0.547918 0.705398
    outer loop
      vertex 11.8087 11.8087 89.9
      vertex 13.2229 13.2229 87.9
      vertex 9.27802 13.8855 89.9
    endloop
  endfacet
  facet normal -0.0694758 0.705398 0.705398
    outer loop
      vertex -3.25801 16.3791 89.9
      vertex -2.29009e-15 18.7 87.9
      vertex -3.64819 18.3407 87.9
    endloop
  endfacet
  facet normal -0.205757 0.67829 0.705398
    outer loop
      vertex -6.39081 15.4288 89.9
      vertex -3.25801 16.3791 89.9
      vertex -3.64819 18.3407 87.9
    endloop
  endfacet
  facet normal -0.205757 0.67829 0.705398
    outer loop
      vertex -6.39081 15.4288 89.9
      vertex -3.64819 18.3407 87.9
      vertex -7.15618 17.2765 87.9
    endloop
  endfacet
  facet normal -0.547917 0.449664 0.7054
    outer loop
      vertex -13.458 11.8233 88.6096
      vertex -13.2229 13.2229 87.9
      vertex -14.4232 11.7604 87.9
    endloop
  endfacet
  facet normal -0.205757 -0.67829 0.705398
    outer loop
      vertex -3.64819 -18.3407 87.9
      vertex -3.25801 -16.3791 89.9
      vertex -6.39081 -15.4288 89.9
    endloop
  endfacet
  facet normal -0.0694762 -0.705398 0.705398
    outer loop
      vertex -3.64819 -18.3407 87.9
      vertex 2.29009e-15 -18.7 87.9
      vertex -3.25801 -16.3791 89.9
    endloop
  endfacet
  facet normal -0.449665 -0.547919 0.705398
    outer loop
      vertex -10.3892 -15.5485 87.9
      vertex -9.27802 -13.8855 89.9
      vertex -13.2229 -13.2229 87.9
    endloop
  endfacet
  facet normal 0.705398 -0.0694762 0.705398
    outer loop
      vertex 18.3407 -3.64819 87.9
      vertex 18.7 8.08267e-16 87.9
      vertex 16.3791 -3.25801 89.9
    endloop
  endfacet
  facet normal 0.334131 -0.625116 0.705398
    outer loop
      vertex 6.39081 -15.4288 89.9
      vertex 10.3892 -15.5485 87.9
      vertex 9.27802 -13.8855 89.9
    endloop
  endfacet
  facet normal 0.449665 -0.547919 0.705398
    outer loop
      vertex 10.3892 -15.5485 87.9
      vertex 13.2229 -13.2229 87.9
      vertex 9.27802 -13.8855 89.9
    endloop
  endfacet
  facet normal 0.0694762 -0.705398 0.705398
    outer loop
      vertex 2.29009e-15 -18.7 87.9
      vertex 3.64819 -18.3407 87.9
      vertex 3.25801 -16.3791 89.9
    endloop
  endfacet
  facet normal 0.705398 0.0694758 0.705398
    outer loop
      vertex 16.7 8.08267e-16 89.9
      vertex 18.7 8.08267e-16 87.9
      vertex 16.3791 3.25801 89.9
    endloop
  endfacet
  facet normal 0.625116 0.334131 0.705398
    outer loop
      vertex 15.4288 6.39081 89.9
      vertex 17.2765 7.15618 87.9
      vertex 15.5485 10.3892 87.9
    endloop
  endfacet
  facet normal 0.205757 0.67829 0.705398
    outer loop
      vertex 3.25801 16.3791 89.9
      vertex 6.39081 15.4288 89.9
      vertex 3.64819 18.3407 87.9
    endloop
  endfacet
  facet normal 0.0694758 0.705398 0.705398
    outer loop
      vertex 3.25801 16.3791 89.9
      vertex 3.64819 18.3407 87.9
      vertex -2.29009e-15 18.7 87.9
    endloop
  endfacet
  facet normal 0.449665 0.547919 0.705398
    outer loop
      vertex 9.27802 13.8855 89.9
      vertex 13.2229 13.2229 87.9
      vertex 10.3892 15.5485 87.9
    endloop
  endfacet
  facet normal -0.334131 0.625116 0.705398
    outer loop
      vertex -10.3892 15.5485 87.9
      vertex -6.39081 15.4288 89.9
      vertex -7.15618 17.2765 87.9
    endloop
  endfacet
  facet normal -0.0694754 0.705398 0.705398
    outer loop
      vertex -3.25801 16.3791 89.9
      vertex -2.04516e-15 16.7 89.9
      vertex -2.29009e-15 18.7 87.9
    endloop
  endfacet
  facet normal -0.547917 -0.449664 0.7054
    outer loop
      vertex -14.4232 -11.7604 87.9
      vertex -13.2229 -13.2229 87.9
      vertex -13.458 -11.8233 88.6096
    endloop
  endfacet
  facet normal -0.334131 -0.625116 0.705398
    outer loop
      vertex -10.3892 -15.5485 87.9
      vertex -6.39081 -15.4288 89.9
      vertex -9.27802 -13.8855 89.9
    endloop
  endfacet
  facet normal -0.334131 -0.625116 0.705398
    outer loop
      vertex -7.15618 -17.2765 87.9
      vertex -6.39081 -15.4288 89.9
      vertex -10.3892 -15.5485 87.9
    endloop
  endfacet
  facet normal 0.547919 -0.449665 0.705398
    outer loop
      vertex 13.2229 -13.2229 87.9
      vertex 15.5485 -10.3892 87.9
      vertex 13.8855 -9.27802 89.9
    endloop
  endfacet
  facet normal 0.625116 -0.334131 0.705398
    outer loop
      vertex 15.5485 -10.3892 87.9
      vertex 17.2765 -7.15618 87.9
      vertex 15.4288 -6.39081 89.9
    endloop
  endfacet
  facet normal 0.205757 -0.67829 0.705398
    outer loop
      vertex 3.64819 -18.3407 87.9
      vertex 6.39081 -15.4288 89.9
      vertex 3.25801 -16.3791 89.9
    endloop
  endfacet
  facet normal 0.205757 -0.67829 0.705398
    outer loop
      vertex 3.64819 -18.3407 87.9
      vertex 7.15618 -17.2765 87.9
      vertex 6.39081 -15.4288 89.9
    endloop
  endfacet
  facet normal 0.625116 0.334131 0.705398
    outer loop
      vertex 15.4288 6.39081 89.9
      vertex 15.5485 10.3892 87.9
      vertex 13.8855 9.27802 89.9
    endloop
  endfacet
  facet normal 0.547919 0.449665 0.705398
    outer loop
      vertex 13.8855 9.27802 89.9
      vertex 15.5485 10.3892 87.9
      vertex 13.2229 13.2229 87.9
    endloop
  endfacet
  facet normal 0.334131 0.625116 0.705398
    outer loop
      vertex 9.27802 13.8855 89.9
      vertex 10.3892 15.5485 87.9
      vertex 6.39081 15.4288 89.9
    endloop
  endfacet
  facet normal 0.334131 0.625116 0.705398
    outer loop
      vertex 6.39081 15.4288 89.9
      vertex 10.3892 15.5485 87.9
      vertex 7.15618 17.2765 87.9
    endloop
  endfacet
  facet normal -0.334131 0.625116 0.705398
    outer loop
      vertex -9.27802 13.8855 89.9
      vertex -6.39081 15.4288 89.9
      vertex -10.3892 15.5485 87.9
    endloop
  endfacet
  facet normal -0.449665 0.547919 0.705398
    outer loop
      vertex -13.2229 13.2229 87.9
      vertex -9.27802 13.8855 89.9
      vertex -10.3892 15.5485 87.9
    endloop
  endfacet
  facet normal -0.54792 0.449663 0.705398
    outer loop
      vertex -13.458 11.8233 88.6096
      vertex -11.9232 11.9232 89.738
      vertex -13.2229 13.2229 87.9
    endloop
  endfacet
  facet normal 0.547918 -0.449665 0.705398
    outer loop
      vertex 13.2229 -13.2229 87.9
      vertex 13.8855 -9.27802 89.9
      vertex 11.8087 -11.8087 89.9
    endloop
  endfacet
  facet normal 0.471397 -0.881921 0
    outer loop
      vertex -8.278 12.3889 85.2
      vertex -5.70198 13.7658 89.9
      vertex -8.278 12.3889 89.9
    endloop
  endfacet
  facet normal 0.471397 -0.881921 0
    outer loop
      vertex -5.70198 13.7658 89.9
      vertex -8.278 12.3889 85.2
      vertex -5.70198 13.7658 85.2
    endloop
  endfacet
  facet normal -0.290285 0.95694 0
    outer loop
      vertex 5.70198 -13.7658 85.2
      vertex 2.90685 -14.6137 89.9
      vertex 5.70198 -13.7658 89.9
    endloop
  endfacet
  facet normal -0.290285 0.95694 0
    outer loop
      vertex 2.90685 -14.6137 89.9
      vertex 5.70198 -13.7658 85.2
      vertex 2.90685 -14.6137 85.2
    endloop
  endfacet
  facet normal -0.290285 -0.95694 0
    outer loop
      vertex 2.90685 14.6137 85.2
      vertex 5.70198 13.7658 89.9
      vertex 2.90685 14.6137 89.9
    endloop
  endfacet
  facet normal -0.290285 -0.95694 -0
    outer loop
      vertex 5.70198 13.7658 89.9
      vertex 2.90685 14.6137 85.2
      vertex 5.70198 13.7658 85.2
    endloop
  endfacet
  facet normal -0.881921 -0.471397 0
    outer loop
      vertex 13.7658 5.70198 85.2
      vertex 12.3889 8.278 89.9
      vertex 12.3889 8.278 85.2
    endloop
  endfacet
  facet normal -0.881921 -0.471397 0
    outer loop
      vertex 12.3889 8.278 89.9
      vertex 13.7658 5.70198 85.2
      vertex 13.7658 5.70198 89.9
    endloop
  endfacet
  facet normal 0.634393 -0.77301 0
    outer loop
      vertex -8.58001 12.141 85.2
      vertex -8.278 12.3889 89.9
      vertex -8.58001 12.141 89.9
    endloop
  endfacet
  facet normal 0.634393 -0.77301 0
    outer loop
      vertex -8.278 12.3889 89.9
      vertex -8.58001 12.141 85.2
      vertex -8.278 12.3889 85.2
    endloop
  endfacet
  facet normal 0.0980173 -0.995185 0
    outer loop
      vertex -2.90685 14.6137 85.2
      vertex -1.82472e-15 14.9 89.9
      vertex -2.90685 14.6137 89.9
    endloop
  endfacet
  facet normal 0.0980173 -0.995185 0
    outer loop
      vertex -1.82472e-15 14.9 89.9
      vertex -2.90685 14.6137 85.2
      vertex -1.82472e-15 14.9 85.2
    endloop
  endfacet
  facet normal -0.995185 -0.0980173 0
    outer loop
      vertex 14.6137 2.90685 85.2
      vertex 14.9 5.8783e-16 89.9
      vertex 14.6137 2.90685 89.9
    endloop
  endfacet
  facet normal -0.995185 -0.0980173 1.20036e-17
    outer loop
      vertex 14.9 5.8783e-16 89.9
      vertex 14.6137 2.90685 85.2
      vertex 14.9 1.22465e-17 85.2
    endloop
  endfacet
  facet normal -0.77301 -0.634393 0
    outer loop
      vertex 12.3889 8.278 85.2
      vertex 10.5359 10.5359 89.9
      vertex 10.5359 10.5359 85.2
    endloop
  endfacet
  facet normal -0.77301 -0.634393 0
    outer loop
      vertex 10.5359 10.5359 89.9
      vertex 12.3889 8.278 85.2
      vertex 12.3889 8.278 89.9
    endloop
  endfacet
  facet normal -0.471397 -0.881921 0
    outer loop
      vertex 5.70198 13.7658 85.2
      vertex 8.278 12.3889 89.9
      vertex 5.70198 13.7658 89.9
    endloop
  endfacet
  facet normal -0.471397 -0.881921 -0
    outer loop
      vertex 8.278 12.3889 89.9
      vertex 5.70198 13.7658 85.2
      vertex 8.278 12.3889 85.2
    endloop
  endfacet
  facet normal -0.0980173 -0.995185 0
    outer loop
      vertex -1.82472e-15 14.9 85.2
      vertex 2.90685 14.6137 89.9
      vertex -1.82472e-15 14.9 89.9
    endloop
  endfacet
  facet normal -0.0980173 -0.995185 -0
    outer loop
      vertex 2.90685 14.6137 89.9
      vertex -1.82472e-15 14.9 85.2
      vertex 2.90685 14.6137 85.2
    endloop
  endfacet
  facet normal -0.634393 -0.77301 0
    outer loop
      vertex 8.278 12.3889 85.2
      vertex 10.5359 10.5359 89.9
      vertex 8.278 12.3889 89.9
    endloop
  endfacet
  facet normal -0.634393 -0.77301 -0
    outer loop
      vertex 10.5359 10.5359 89.9
      vertex 8.278 12.3889 85.2
      vertex 10.5359 10.5359 85.2
    endloop
  endfacet
  facet normal 0.471397 0.881921 -0
    outer loop
      vertex -5.70198 -13.7658 85.2
      vertex -8.278 -12.3889 89.9
      vertex -5.70198 -13.7658 89.9
    endloop
  endfacet
  facet normal 0.471397 0.881921 0
    outer loop
      vertex -8.278 -12.3889 89.9
      vertex -5.70198 -13.7658 85.2
      vertex -8.278 -12.3889 85.2
    endloop
  endfacet
  facet normal 0.634393 0.77301 -0
    outer loop
      vertex -8.278 -12.3889 85.2
      vertex -8.58001 -12.141 89.9
      vertex -8.278 -12.3889 89.9
    endloop
  endfacet
  facet normal 0.634393 0.77301 0
    outer loop
      vertex -8.58001 -12.141 89.9
      vertex -8.278 -12.3889 85.2
      vertex -8.58001 -12.141 85.2
    endloop
  endfacet
  facet normal -0.0980173 0.995185 0
    outer loop
      vertex 2.90685 -14.6137 85.2
      vertex 1.82472e-15 -14.9 89.9
      vertex 2.90685 -14.6137 89.9
    endloop
  endfacet
  facet normal -0.0980173 0.995185 0
    outer loop
      vertex 1.82472e-15 -14.9 89.9
      vertex 2.90685 -14.6137 85.2
      vertex 1.82472e-15 -14.9 85.2
    endloop
  endfacet
  facet normal -0.634393 0.77301 0
    outer loop
      vertex 10.5359 -10.5359 85.2
      vertex 8.278 -12.3889 89.9
      vertex 10.5359 -10.5359 89.9
    endloop
  endfacet
  facet normal -0.634393 0.77301 0
    outer loop
      vertex 8.278 -12.3889 89.9
      vertex 10.5359 -10.5359 85.2
      vertex 8.278 -12.3889 85.2
    endloop
  endfacet
  facet normal -0.881921 0.471397 0
    outer loop
      vertex 12.3889 -8.278 85.2
      vertex 13.7658 -5.70198 89.9
      vertex 13.7658 -5.70198 85.2
    endloop
  endfacet
  facet normal -0.881921 0.471397 0
    outer loop
      vertex 13.7658 -5.70198 89.9
      vertex 12.3889 -8.278 85.2
      vertex 12.3889 -8.278 89.9
    endloop
  endfacet
  facet normal -0.995185 0.0980173 -8.08712e-18
    outer loop
      vertex 14.6137 -2.90685 85.2
      vertex 14.9 5.8783e-16 89.9
      vertex 14.9 1.22465e-17 85.2
    endloop
  endfacet
  facet normal -0.995185 0.0980173 0
    outer loop
      vertex 14.9 5.8783e-16 89.9
      vertex 14.6137 -2.90685 85.2
      vertex 14.6137 -2.90685 89.9
    endloop
  endfacet
  facet normal 0.290285 -0.95694 0
    outer loop
      vertex -5.70198 13.7658 85.2
      vertex -2.90685 14.6137 89.9
      vertex -5.70198 13.7658 89.9
    endloop
  endfacet
  facet normal 0.290285 -0.95694 0
    outer loop
      vertex -2.90685 14.6137 89.9
      vertex -5.70198 13.7658 85.2
      vertex -2.90685 14.6137 85.2
    endloop
  endfacet
  facet normal -0.95694 -0.290285 0
    outer loop
      vertex 14.6137 2.90685 85.2
      vertex 13.7658 5.70198 89.9
      vertex 13.7658 5.70198 85.2
    endloop
  endfacet
  facet normal -0.95694 -0.290285 0
    outer loop
      vertex 13.7658 5.70198 89.9
      vertex 14.6137 2.90685 85.2
      vertex 14.6137 2.90685 89.9
    endloop
  endfacet
  facet normal 0.0980173 0.995185 -0
    outer loop
      vertex 1.82472e-15 -14.9 85.2
      vertex -2.90685 -14.6137 89.9
      vertex 1.82472e-15 -14.9 89.9
    endloop
  endfacet
  facet normal 0.0980173 0.995185 0
    outer loop
      vertex -2.90685 -14.6137 89.9
      vertex 1.82472e-15 -14.9 85.2
      vertex -2.90685 -14.6137 85.2
    endloop
  endfacet
  facet normal 0.290285 0.95694 -0
    outer loop
      vertex -2.90685 -14.6137 85.2
      vertex -5.70198 -13.7658 89.9
      vertex -2.90685 -14.6137 89.9
    endloop
  endfacet
  facet normal 0.290285 0.95694 0
    outer loop
      vertex -5.70198 -13.7658 89.9
      vertex -2.90685 -14.6137 85.2
      vertex -5.70198 -13.7658 85.2
    endloop
  endfacet
  facet normal -0.471397 0.881921 0
    outer loop
      vertex 8.278 -12.3889 85.2
      vertex 5.70198 -13.7658 89.9
      vertex 8.278 -12.3889 89.9
    endloop
  endfacet
  facet normal -0.471397 0.881921 0
    outer loop
      vertex 5.70198 -13.7658 89.9
      vertex 8.278 -12.3889 85.2
      vertex 5.70198 -13.7658 85.2
    endloop
  endfacet
  facet normal -0.95694 0.290285 0
    outer loop
      vertex 13.7658 -5.70198 85.2
      vertex 14.6137 -2.90685 89.9
      vertex 14.6137 -2.90685 85.2
    endloop
  endfacet
  facet normal -0.95694 0.290285 0
    outer loop
      vertex 14.6137 -2.90685 89.9
      vertex 13.7658 -5.70198 85.2
      vertex 13.7658 -5.70198 89.9
    endloop
  endfacet
  facet normal -0.77301 0.634393 0
    outer loop
      vertex 10.5359 -10.5359 85.2
      vertex 12.3889 -8.278 89.9
      vertex 12.3889 -8.278 85.2
    endloop
  endfacet
  facet normal -0.77301 0.634393 0
    outer loop
      vertex 12.3889 -8.278 89.9
      vertex 10.5359 -10.5359 85.2
      vertex 10.5359 -10.5359 89.9
    endloop
  endfacet
  facet normal -0.736593 0.223443 -0.638361
    outer loop
      vertex 14.6897 -6.08467 84
      vertex 14.6137 -2.90685 85.2
      vertex 15.5945 -3.10194 84
    endloop
  endfacet
  facet normal -0.223443 -0.736593 -0.638361
    outer loop
      vertex 2.90685 14.6137 85.2
      vertex 3.10194 15.5945 84
      vertex 6.08467 14.6897 84
    endloop
  endfacet
  facet normal 0.0754475 0.766031 -0.638361
    outer loop
      vertex -3.10194 -15.5945 84
      vertex 1.82472e-15 -14.9 85.2
      vertex 1.94719e-15 -15.9 84
    endloop
  endfacet
  facet normal 0.362852 -0.678848 -0.638361
    outer loop
      vertex -8.278 12.3889 85.2
      vertex -8.83357 13.2204 84
      vertex -6.08467 14.6897 84
    endloop
  endfacet
  facet normal 0.488318 -0.595017 -0.638357
    outer loop
      vertex -9.55843 12.0773 84.511
      vertex -10.284 12.03 84
      vertex -8.83357 13.2204 84
    endloop
  endfacet
  facet normal -0.362852 0.678848 -0.638361
    outer loop
      vertex 6.08467 -14.6897 84
      vertex 8.278 -12.3889 85.2
      vertex 8.83357 -13.2204 84
    endloop
  endfacet
  facet normal -0.0754476 0.766031 -0.638361
    outer loop
      vertex 1.82472e-15 -14.9 85.2
      vertex 2.90685 -14.6137 85.2
      vertex 3.10194 -15.5945 84
    endloop
  endfacet
  facet normal -0.678848 -0.362852 -0.638361
    outer loop
      vertex 12.3889 8.278 85.2
      vertex 13.2204 8.83357 84
      vertex 14.6897 6.08467 84
    endloop
  endfacet
  facet normal 0.0754475 -0.766031 -0.638361
    outer loop
      vertex -3.10194 15.5945 84
      vertex -1.94719e-15 15.9 84
      vertex -1.82472e-15 14.9 85.2
    endloop
  endfacet
  facet normal 0.488316 0.595015 -0.638361
    outer loop
      vertex -8.83357 -13.2204 84
      vertex -8.58001 -12.141 85.2
      vertex -8.278 -12.3889 85.2
    endloop
  endfacet
  facet normal 0.488313 0.595016 -0.638361
    outer loop
      vertex -8.58001 -12.141 85.2
      vertex -8.83357 -13.2204 84
      vertex -9.55843 -12.0773 84.511
    endloop
  endfacet
  facet normal 0.223443 0.736593 -0.638361
    outer loop
      vertex -6.08467 -14.6897 84
      vertex -5.70198 -13.7658 85.2
      vertex -2.90685 -14.6137 85.2
    endloop
  endfacet
  facet normal 0.362852 0.678848 -0.638361
    outer loop
      vertex -8.83357 -13.2204 84
      vertex -8.278 -12.3889 85.2
      vertex -6.08467 -14.6897 84
    endloop
  endfacet
  facet normal 0.488318 0.595017 -0.638357
    outer loop
      vertex -10.284 -12.03 84
      vertex -9.55843 -12.0773 84.511
      vertex -8.83357 -13.2204 84
    endloop
  endfacet
  facet normal -0.488316 0.595015 -0.638361
    outer loop
      vertex 8.83357 -13.2204 84
      vertex 8.278 -12.3889 85.2
      vertex 10.5359 -10.5359 85.2
    endloop
  endfacet
  facet normal -0.488316 0.595015 -0.638361
    outer loop
      vertex 8.83357 -13.2204 84
      vertex 10.5359 -10.5359 85.2
      vertex 11.243 -11.243 84
    endloop
  endfacet
  facet normal -0.362852 0.678848 -0.638361
    outer loop
      vertex 6.08467 -14.6897 84
      vertex 5.70198 -13.7658 85.2
      vertex 8.278 -12.3889 85.2
    endloop
  endfacet
  facet normal -0.223443 0.736593 -0.638361
    outer loop
      vertex 3.10194 -15.5945 84
      vertex 2.90685 -14.6137 85.2
      vertex 6.08467 -14.6897 84
    endloop
  endfacet
  facet normal -0.0754475 0.766031 -0.638361
    outer loop
      vertex 1.94719e-15 -15.9 84
      vertex 1.82472e-15 -14.9 85.2
      vertex 3.10194 -15.5945 84
    endloop
  endfacet
  facet normal -0.678848 -0.362852 -0.638361
    outer loop
      vertex 13.7658 5.70198 85.2
      vertex 12.3889 8.278 85.2
      vertex 14.6897 6.08467 84
    endloop
  endfacet
  facet normal -0.595015 -0.488316 -0.638361
    outer loop
      vertex 12.3889 8.278 85.2
      vertex 10.5359 10.5359 85.2
      vertex 13.2204 8.83357 84
    endloop
  endfacet
  facet normal -0.595015 -0.488316 -0.638361
    outer loop
      vertex 10.5359 10.5359 85.2
      vertex 11.243 11.243 84
      vertex 13.2204 8.83357 84
    endloop
  endfacet
  facet normal 0.223443 -0.736593 -0.638361
    outer loop
      vertex -6.08467 14.6897 84
      vertex -3.10194 15.5945 84
      vertex -2.90685 14.6137 85.2
    endloop
  endfacet
  facet normal 0.0754476 -0.766031 -0.638361
    outer loop
      vertex -2.90685 14.6137 85.2
      vertex -3.10194 15.5945 84
      vertex -1.82472e-15 14.9 85.2
    endloop
  endfacet
  facet normal 0.488316 -0.595015 -0.638361
    outer loop
      vertex -8.58001 12.141 85.2
      vertex -8.83357 13.2204 84
      vertex -8.278 12.3889 85.2
    endloop
  endfacet
  facet normal 0.488313 -0.595016 -0.638361
    outer loop
      vertex -8.83357 13.2204 84
      vertex -8.58001 12.141 85.2
      vertex -9.55843 12.0773 84.511
    endloop
  endfacet
  facet normal 0.223443 0.736593 -0.638361
    outer loop
      vertex -3.10194 -15.5945 84
      vertex -6.08467 -14.6897 84
      vertex -2.90685 -14.6137 85.2
    endloop
  endfacet
  facet normal 0.0754476 0.766031 -0.638361
    outer loop
      vertex -3.10194 -15.5945 84
      vertex -2.90685 -14.6137 85.2
      vertex 1.82472e-15 -14.9 85.2
    endloop
  endfacet
  facet normal 0.362852 0.678848 -0.638361
    outer loop
      vertex -6.08467 -14.6897 84
      vertex -8.278 -12.3889 85.2
      vertex -5.70198 -13.7658 85.2
    endloop
  endfacet
  facet normal -0.678848 0.362852 -0.638361
    outer loop
      vertex 13.2204 -8.83357 84
      vertex 12.3889 -8.278 85.2
      vertex 14.6897 -6.08467 84
    endloop
  endfacet
  facet normal -0.678848 0.362852 -0.638361
    outer loop
      vertex 12.3889 -8.278 85.2
      vertex 13.7658 -5.70198 85.2
      vertex 14.6897 -6.08467 84
    endloop
  endfacet
  facet normal -0.223443 0.736593 -0.638361
    outer loop
      vertex 2.90685 -14.6137 85.2
      vertex 5.70198 -13.7658 85.2
      vertex 6.08467 -14.6897 84
    endloop
  endfacet
  facet normal -0.362852 -0.678848 -0.638361
    outer loop
      vertex 8.278 12.3889 85.2
      vertex 6.08467 14.6897 84
      vertex 8.83357 13.2204 84
    endloop
  endfacet
  facet normal -0.362852 -0.678848 -0.638361
    outer loop
      vertex 5.70198 13.7658 85.2
      vertex 6.08467 14.6897 84
      vertex 8.278 12.3889 85.2
    endloop
  endfacet
  facet normal -0.766031 0.0754476 -0.638361
    outer loop
      vertex 14.6137 -2.90685 85.2
      vertex 14.9 1.22465e-17 85.2
      vertex 15.5945 -3.10194 84
    endloop
  endfacet
  facet normal -0.736593 -0.223443 -0.638361
    outer loop
      vertex 14.6137 2.90685 85.2
      vertex 14.6897 6.08467 84
      vertex 15.5945 3.10194 84
    endloop
  endfacet
  facet normal -0.766031 0.0754475 -0.638361
    outer loop
      vertex 15.5945 -3.10194 84
      vertex 14.9 1.22465e-17 85.2
      vertex 15.9 -1.22465e-17 84
    endloop
  endfacet
  facet normal 0.223443 -0.736593 -0.638361
    outer loop
      vertex -5.70198 13.7658 85.2
      vertex -6.08467 14.6897 84
      vertex -2.90685 14.6137 85.2
    endloop
  endfacet
  facet normal 0.362852 -0.678848 -0.638361
    outer loop
      vertex -8.278 12.3889 85.2
      vertex -6.08467 14.6897 84
      vertex -5.70198 13.7658 85.2
    endloop
  endfacet
  facet normal -0.0754476 -0.766031 -0.638361
    outer loop
      vertex 2.90685 14.6137 85.2
      vertex -1.82472e-15 14.9 85.2
      vertex 3.10194 15.5945 84
    endloop
  endfacet
  facet normal -0.0754475 -0.766031 -0.638361
    outer loop
      vertex -1.82472e-15 14.9 85.2
      vertex -1.94719e-15 15.9 84
      vertex 3.10194 15.5945 84
    endloop
  endfacet
  facet normal -0.595015 0.488316 -0.638361
    outer loop
      vertex 11.243 -11.243 84
      vertex 10.5359 -10.5359 85.2
      vertex 13.2204 -8.83357 84
    endloop
  endfacet
  facet normal -0.595015 0.488316 -0.638361
    outer loop
      vertex 10.5359 -10.5359 85.2
      vertex 12.3889 -8.278 85.2
      vertex 13.2204 -8.83357 84
    endloop
  endfacet
  facet normal -0.736593 0.223443 -0.638361
    outer loop
      vertex 13.7658 -5.70198 85.2
      vertex 14.6137 -2.90685 85.2
      vertex 14.6897 -6.08467 84
    endloop
  endfacet
  facet normal -0.488316 -0.595015 -0.638361
    outer loop
      vertex 10.5359 10.5359 85.2
      vertex 8.83357 13.2204 84
      vertex 11.243 11.243 84
    endloop
  endfacet
  facet normal -0.488316 -0.595015 -0.638361
    outer loop
      vertex 8.278 12.3889 85.2
      vertex 8.83357 13.2204 84
      vertex 10.5359 10.5359 85.2
    endloop
  endfacet
  facet normal -0.223443 -0.736593 -0.638361
    outer loop
      vertex 5.70198 13.7658 85.2
      vertex 2.90685 14.6137 85.2
      vertex 6.08467 14.6897 84
    endloop
  endfacet
  facet normal -0.736593 -0.223443 -0.638361
    outer loop
      vertex 14.6137 2.90685 85.2
      vertex 13.7658 5.70198 85.2
      vertex 14.6897 6.08467 84
    endloop
  endfacet
  facet normal -0.766031 -0.0754475 -0.638361
    outer loop
      vertex 14.9 1.22465e-17 85.2
      vertex 15.5945 3.10194 84
      vertex 15.9 -1.22465e-17 84
    endloop
  endfacet
  facet normal -0.766031 -0.0754476 -0.638361
    outer loop
      vertex 14.9 1.22465e-17 85.2
      vertex 14.6137 2.90685 85.2
      vertex 15.5945 3.10194 84
    endloop
  endfacet
  facet normal -0.995185 -0.0980173 0
    outer loop
      vertex 15.5945 3.10194 70.1
      vertex 15.9 -1.22465e-17 84
      vertex 15.5945 3.10194 84
    endloop
  endfacet
  facet normal -0.995185 -0.0980173 1.20037e-17
    outer loop
      vertex 15.9 -1.22465e-17 84
      vertex 15.5945 3.10194 70.1
      vertex 15.9 -1.71451e-15 70.1
    endloop
  endfacet
  facet normal 0.0980173 -0.995185 0
    outer loop
      vertex -3.10194 15.5945 70.1
      vertex -1.94719e-15 15.9 84
      vertex -3.10194 15.5945 84
    endloop
  endfacet
  facet normal 0.0980173 -0.995185 0
    outer loop
      vertex -1.94719e-15 15.9 84
      vertex -3.10194 15.5945 70.1
      vertex -1.94719e-15 15.9 70.1
    endloop
  endfacet
  facet normal 0.634393 -0.77301 0
    outer loop
      vertex -10.284 12.03 70.1
      vertex -8.83357 13.2204 84
      vertex -10.284 12.03 84
    endloop
  endfacet
  facet normal 0.634393 -0.77301 0
    outer loop
      vertex -8.83357 13.2204 84
      vertex -10.284 12.03 70.1
      vertex -8.83357 13.2204 70.1
    endloop
  endfacet
  facet normal 0.471397 -0.881921 0
    outer loop
      vertex -8.83357 13.2204 70.1
      vertex -6.08467 14.6897 84
      vertex -8.83357 13.2204 84
    endloop
  endfacet
  facet normal 0.471397 -0.881921 0
    outer loop
      vertex -6.08467 14.6897 84
      vertex -8.83357 13.2204 70.1
      vertex -6.08467 14.6897 70.1
    endloop
  endfacet
  facet normal -0.634393 -0.77301 0
    outer loop
      vertex 8.83357 13.2204 70.1
      vertex 11.243 11.243 84
      vertex 8.83357 13.2204 84
    endloop
  endfacet
  facet normal -0.634393 -0.77301 -0
    outer loop
      vertex 11.243 11.243 84
      vertex 8.83357 13.2204 70.1
      vertex 11.243 11.243 70.1
    endloop
  endfacet
  facet normal -0.290285 -0.95694 0
    outer loop
      vertex 3.10194 15.5945 70.1
      vertex 6.08467 14.6897 84
      vertex 3.10194 15.5945 84
    endloop
  endfacet
  facet normal -0.290285 -0.95694 -0
    outer loop
      vertex 6.08467 14.6897 84
      vertex 3.10194 15.5945 70.1
      vertex 6.08467 14.6897 70.1
    endloop
  endfacet
  facet normal 0.290285 -0.95694 0
    outer loop
      vertex -6.08467 14.6897 70.1
      vertex -3.10194 15.5945 84
      vertex -6.08467 14.6897 84
    endloop
  endfacet
  facet normal 0.290285 -0.95694 0
    outer loop
      vertex -3.10194 15.5945 84
      vertex -6.08467 14.6897 70.1
      vertex -3.10194 15.5945 70.1
    endloop
  endfacet
  facet normal -0.881921 -0.471397 0
    outer loop
      vertex 14.6897 6.08467 70.1
      vertex 13.2204 8.83357 84
      vertex 13.2204 8.83357 70.1
    endloop
  endfacet
  facet normal -0.881921 -0.471397 0
    outer loop
      vertex 13.2204 8.83357 84
      vertex 14.6897 6.08467 70.1
      vertex 14.6897 6.08467 84
    endloop
  endfacet
  facet normal -0.77301 -0.634393 0
    outer loop
      vertex 13.2204 8.83357 70.1
      vertex 11.243 11.243 84
      vertex 11.243 11.243 70.1
    endloop
  endfacet
  facet normal -0.77301 -0.634393 0
    outer loop
      vertex 11.243 11.243 84
      vertex 13.2204 8.83357 70.1
      vertex 13.2204 8.83357 84
    endloop
  endfacet
  facet normal -0.95694 -0.290285 0
    outer loop
      vertex 15.5945 3.10194 70.1
      vertex 14.6897 6.08467 84
      vertex 14.6897 6.08467 70.1
    endloop
  endfacet
  facet normal -0.95694 -0.290285 0
    outer loop
      vertex 14.6897 6.08467 84
      vertex 15.5945 3.10194 70.1
      vertex 15.5945 3.10194 84
    endloop
  endfacet
  facet normal -0.471397 -0.881921 0
    outer loop
      vertex 6.08467 14.6897 70.1
      vertex 8.83357 13.2204 84
      vertex 6.08467 14.6897 84
    endloop
  endfacet
  facet normal -0.471397 -0.881921 -0
    outer loop
      vertex 8.83357 13.2204 84
      vertex 6.08467 14.6897 70.1
      vertex 8.83357 13.2204 70.1
    endloop
  endfacet
  facet normal -0.0980173 -0.995185 0
    outer loop
      vertex -1.94719e-15 15.9 70.1
      vertex 3.10194 15.5945 84
      vertex -1.94719e-15 15.9 84
    endloop
  endfacet
  facet normal -0.0980173 -0.995185 -0
    outer loop
      vertex 3.10194 15.5945 84
      vertex -1.94719e-15 15.9 70.1
      vertex 3.10194 15.5945 70.1
    endloop
  endfacet
  facet normal 0.634393 0.77301 -0
    outer loop
      vertex -8.83357 -13.2204 70.1
      vertex -10.284 -12.03 84
      vertex -8.83357 -13.2204 84
    endloop
  endfacet
  facet normal 0.634393 0.77301 0
    outer loop
      vertex -10.284 -12.03 84
      vertex -8.83357 -13.2204 70.1
      vertex -10.284 -12.03 70.1
    endloop
  endfacet
  facet normal -0.634393 0.77301 0
    outer loop
      vertex 11.243 -11.243 70.1
      vertex 8.83357 -13.2204 84
      vertex 11.243 -11.243 84
    endloop
  endfacet
  facet normal -0.634393 0.77301 0
    outer loop
      vertex 8.83357 -13.2204 84
      vertex 11.243 -11.243 70.1
      vertex 8.83357 -13.2204 70.1
    endloop
  endfacet
  facet normal -0.290285 0.95694 0
    outer loop
      vertex 6.08467 -14.6897 70.1
      vertex 3.10194 -15.5945 84
      vertex 6.08467 -14.6897 84
    endloop
  endfacet
  facet normal -0.290285 0.95694 0
    outer loop
      vertex 3.10194 -15.5945 84
      vertex 6.08467 -14.6897 70.1
      vertex 3.10194 -15.5945 70.1
    endloop
  endfacet
  facet normal -0.881921 0.471397 0
    outer loop
      vertex 13.2204 -8.83357 70.1
      vertex 14.6897 -6.08467 84
      vertex 14.6897 -6.08467 70.1
    endloop
  endfacet
  facet normal -0.881921 0.471397 0
    outer loop
      vertex 14.6897 -6.08467 84
      vertex 13.2204 -8.83357 70.1
      vertex 13.2204 -8.83357 84
    endloop
  endfacet
  facet normal -0.77301 0.634393 0
    outer loop
      vertex 11.243 -11.243 70.1
      vertex 13.2204 -8.83357 84
      vertex 13.2204 -8.83357 70.1
    endloop
  endfacet
  facet normal -0.77301 0.634393 0
    outer loop
      vertex 13.2204 -8.83357 84
      vertex 11.243 -11.243 70.1
      vertex 11.243 -11.243 84
    endloop
  endfacet
  facet normal -0.995185 0.0980173 -1.28126e-17
    outer loop
      vertex 15.5945 -3.10194 70.1
      vertex 15.9 -1.22465e-17 84
      vertex 15.9 -1.71451e-15 70.1
    endloop
  endfacet
  facet normal -0.995185 0.0980173 0
    outer loop
      vertex 15.9 -1.22465e-17 84
      vertex 15.5945 -3.10194 70.1
      vertex 15.5945 -3.10194 84
    endloop
  endfacet
  facet normal 0.0980173 0.995185 -0
    outer loop
      vertex 1.94719e-15 -15.9 70.1
      vertex -3.10194 -15.5945 84
      vertex 1.94719e-15 -15.9 84
    endloop
  endfacet
  facet normal 0.0980173 0.995185 0
    outer loop
      vertex -3.10194 -15.5945 84
      vertex 1.94719e-15 -15.9 70.1
      vertex -3.10194 -15.5945 70.1
    endloop
  endfacet
  facet normal 0.471397 0.881921 -0
    outer loop
      vertex -6.08467 -14.6897 70.1
      vertex -8.83357 -13.2204 84
      vertex -6.08467 -14.6897 84
    endloop
  endfacet
  facet normal 0.471397 0.881921 0
    outer loop
      vertex -8.83357 -13.2204 84
      vertex -6.08467 -14.6897 70.1
      vertex -8.83357 -13.2204 70.1
    endloop
  endfacet
  facet normal -0.471397 0.881921 0
    outer loop
      vertex 8.83357 -13.2204 70.1
      vertex 6.08467 -14.6897 84
      vertex 8.83357 -13.2204 84
    endloop
  endfacet
  facet normal -0.471397 0.881921 0
    outer loop
      vertex 6.08467 -14.6897 84
      vertex 8.83357 -13.2204 70.1
      vertex 6.08467 -14.6897 70.1
    endloop
  endfacet
  facet normal -0.0980173 0.995185 0
    outer loop
      vertex 3.10194 -15.5945 70.1
      vertex 1.94719e-15 -15.9 84
      vertex 3.10194 -15.5945 84
    endloop
  endfacet
  facet normal -0.0980173 0.995185 0
    outer loop
      vertex 1.94719e-15 -15.9 84
      vertex 3.10194 -15.5945 70.1
      vertex 1.94719e-15 -15.9 70.1
    endloop
  endfacet
  facet normal -0.95694 0.290285 0
    outer loop
      vertex 14.6897 -6.08467 70.1
      vertex 15.5945 -3.10194 84
      vertex 15.5945 -3.10194 70.1
    endloop
  endfacet
  facet normal -0.95694 0.290285 0
    outer loop
      vertex 15.5945 -3.10194 84
      vertex 14.6897 -6.08467 70.1
      vertex 14.6897 -6.08467 84
    endloop
  endfacet
  facet normal 0.290285 0.95694 -0
    outer loop
      vertex -3.10194 -15.5945 70.1
      vertex -6.08467 -14.6897 84
      vertex -3.10194 -15.5945 84
    endloop
  endfacet
  facet normal 0.290285 0.95694 0
    outer loop
      vertex -6.08467 -14.6897 84
      vertex -3.10194 -15.5945 70.1
      vertex -6.08467 -14.6897 70.1
    endloop
  endfacet
  facet normal 0.0650088 0.997885 -0
    outer loop
      vertex -8.58001 -12.141 85.2
      vertex -11.6472 -11.9412 89.9
      vertex -8.58001 -12.141 89.9
    endloop
  endfacet
  facet normal 0.0650082 0.997885 -4.17845e-07
    outer loop
      vertex -11.6472 -11.9412 89.9
      vertex -8.58001 -12.141 85.2
      vertex -11.9232 -11.9232 89.738
    endloop
  endfacet
  facet normal 0.0650089 0.997885 9.96658e-08
    outer loop
      vertex -9.55843 -12.0773 84.511
      vertex -11.9232 -11.9232 89.738
      vertex -8.58001 -12.141 85.2
    endloop
  endfacet
  facet normal 0.0650091 0.997885 1.81896e-07
    outer loop
      vertex -11.9232 -11.9232 89.738
      vertex -9.55843 -12.0773 84.511
      vertex -13.458 -11.8233 88.6096
    endloop
  endfacet
  facet normal 0.0650086 0.997885 -2.36385e-07
    outer loop
      vertex -10.284 -12.03 84
      vertex -13.458 -11.8233 88.6096
      vertex -9.55843 -12.0773 84.511
    endloop
  endfacet
  facet normal 0.0650086 0.997885 -2.83289e-07
    outer loop
      vertex -13.458 -11.8233 88.6096
      vertex -10.284 -12.03 84
      vertex -14.4232 -11.7604 87.9
    endloop
  endfacet
  facet normal 0.0650088 0.997885 0
    outer loop
      vertex -14.4232 -11.7604 70.1
      vertex -10.284 -12.03 84
      vertex -10.284 -12.03 70.1
    endloop
  endfacet
  facet normal 0.0650088 0.997885 0
    outer loop
      vertex -10.284 -12.03 84
      vertex -14.4232 -11.7604 70.1
      vertex -14.4232 -11.7604 87.9
    endloop
  endfacet
  facet normal 0.0650082 -0.997885 -4.17845e-07
    outer loop
      vertex -8.58001 12.141 85.2
      vertex -11.6472 11.9412 89.9
      vertex -11.9232 11.9232 89.738
    endloop
  endfacet
  facet normal 0.0650091 -0.997885 1.81896e-07
    outer loop
      vertex -9.55843 12.0773 84.511
      vertex -11.9232 11.9232 89.738
      vertex -13.458 11.8233 88.6096
    endloop
  endfacet
  facet normal 0.0650086 -0.997885 -2.83289e-07
    outer loop
      vertex -10.284 12.03 84
      vertex -13.458 11.8233 88.6096
      vertex -14.4232 11.7604 87.9
    endloop
  endfacet
  facet normal 0.0650089 -0.997885 9.96658e-08
    outer loop
      vertex -11.9232 11.9232 89.738
      vertex -9.55843 12.0773 84.511
      vertex -8.58001 12.141 85.2
    endloop
  endfacet
  facet normal 0.0650088 -0.997885 0
    outer loop
      vertex -11.6472 11.9412 89.9
      vertex -8.58001 12.141 85.2
      vertex -8.58001 12.141 89.9
    endloop
  endfacet
  facet normal 0.0650086 -0.997885 -2.36385e-07
    outer loop
      vertex -13.458 11.8233 88.6096
      vertex -10.284 12.03 84
      vertex -9.55843 12.0773 84.511
    endloop
  endfacet
  facet normal 0.0650088 -0.997885 0
    outer loop
      vertex -14.4232 11.7604 70.1
      vertex -10.284 12.03 84
      vertex -14.4232 11.7604 87.9
    endloop
  endfacet
  facet normal 0.0650088 -0.997885 0
    outer loop
      vertex -10.284 12.03 84
      vertex -14.4232 11.7604 70.1
      vertex -10.284 12.03 70.1
    endloop
  endfacet
endsolid OpenSCAD_Model
