solid OpenSCAD_Model
  facet normal 0 0 -1
    outer loop
      vertex 35.5711 -1.25333 0
      vertex 27.6472 -0.648935 0
      vertex 27.75 0 0
    endloop
  endfacet
  facet normal 0 0 -1
    outer loop
      vertex 26.2989 -1.99722 0
      vertex 28.7402 -9.51056 0
      vertex 27.5238 -9.82287 0
    endloop
  endfacet
  facet normal 0 0 -1
    outer loop
      vertex 29.9078 -9.04827 0
      vertex 27.3489 -1.23435 0
      vertex 27.6472 -0.648935 0
    endloop
  endfacet
  facet normal 0 0 -1
    outer loop
      vertex 29.9078 -9.04827 0
      vertex 26.8843 -1.69894 0
      vertex 27.3489 -1.23435 0
    endloop
  endfacet
  facet normal 0 0 -1
    outer loop
      vertex 29.9078 -9.04827 0
      vertex 26.2989 -1.99722 0
      vertex 26.8843 -1.69894 0
    endloop
  endfacet
  facet normal 0 0 -1
    outer loop
      vertex 25.65 -2.1 0
      vertex 27.5238 -9.82287 0
      vertex 26.2779 -9.98027 0
    endloop
  endfacet
  facet normal 0 0 -1
    outer loop
      vertex 27.5238 -9.82287 0
      vertex 25.65 -2.1 0
      vertex 26.2989 -1.99722 0
    endloop
  endfacet
  facet normal 0 0 -1
    outer loop
      vertex 26.2779 -9.98027 0
      vertex 25.0011 -1.99722 0
      vertex 25.65 -2.1 0
    endloop
  endfacet
  facet normal 0 0 -1
    outer loop
      vertex 26.2779 -9.98027 0
      vertex 24.4156 -1.69894 0
      vertex 25.0011 -1.99722 0
    endloop
  endfacet
  facet normal 0 0 -1
    outer loop
      vertex 26.2779 -9.98027 0
      vertex 23.9511 -1.23435 0
      vertex 24.4156 -1.69894 0
    endloop
  endfacet
  facet normal 0 0 -1
    outer loop
      vertex 26.2779 -9.98027 0
      vertex 23.6528 -0.648935 0
      vertex 23.9511 -1.23435 0
    endloop
  endfacet
  facet normal 0 0 -1
    outer loop
      vertex 2.47214 11.4915 0
      vertex 23.55 0 0
      vertex 23.6528 -0.648935 0
    endloop
  endfacet
  facet normal 0 0 -1
    outer loop
      vertex 1.49905 11.2417 0
      vertex 23.6528 -0.648935 0
      vertex 26.2779 -9.98027 0
    endloop
  endfacet
  facet normal 0 0 -1
    outer loop
      vertex 23.55 0 0
      vertex 8 19.1 0
      vertex 7.93692 20.1027 0
    endloop
  endfacet
  facet normal 0 0 -1
    outer loop
      vertex 23.55 0 0
      vertex 7.93692 18.0973 0
      vertex 8 19.1 0
    endloop
  endfacet
  facet normal 0 0 -1
    outer loop
      vertex 23.55 0 0
      vertex 7.74866 17.1105 0
      vertex 7.93692 18.0973 0
    endloop
  endfacet
  facet normal 0 0 -1
    outer loop
      vertex 23.55 0 0
      vertex 7.43821 16.155 0
      vertex 7.74866 17.1105 0
    endloop
  endfacet
  facet normal 0 0 -1
    outer loop
      vertex 23.55 0 0
      vertex 7.01045 15.246 0
      vertex 7.43821 16.155 0
    endloop
  endfacet
  facet normal 0 0 -1
    outer loop
      vertex 23.55 0 0
      vertex 6.47214 14.3977 0
      vertex 7.01045 15.246 0
    endloop
  endfacet
  facet normal 0 0 -1
    outer loop
      vertex 23.55 0 0
      vertex 5.83175 13.6236 0
      vertex 6.47214 14.3977 0
    endloop
  endfacet
  facet normal 0 0 -1
    outer loop
      vertex 23.55 0 0
      vertex 5.09939 12.9359 0
      vertex 5.83175 13.6236 0
    endloop
  endfacet
  facet normal 0 0 -1
    outer loop
      vertex 23.55 0 0
      vertex 4.28661 12.3454 0
      vertex 5.09939 12.9359 0
    endloop
  endfacet
  facet normal 0 0 -1
    outer loop
      vertex 23.55 0 0
      vertex 3.40623 11.8614 0
      vertex 4.28661 12.3454 0
    endloop
  endfacet
  facet normal 0 0 -1
    outer loop
      vertex 23.55 0 0
      vertex 2.47214 11.4915 0
      vertex 3.40623 11.8614 0
    endloop
  endfacet
  facet normal 0 0 -1
    outer loop
      vertex 23.6528 -0.648935 0
      vertex 1.49905 11.2417 0
      vertex 2.47214 11.4915 0
    endloop
  endfacet
  facet normal 0 0 -1
    outer loop
      vertex 26.2779 -9.98027 0
      vertex 0.502324 11.1158 0
      vertex 1.49905 11.2417 0
    endloop
  endfacet
  facet normal 0 0 -1
    outer loop
      vertex 26.2779 -9.98027 0
      vertex -0.502324 11.1158 0
      vertex 0.502324 11.1158 0
    endloop
  endfacet
  facet normal 0 0 -1
    outer loop
      vertex -26.2779 -9.98027 0
      vertex -0.502324 11.1158 0
      vertex 26.2779 -9.98027 0
    endloop
  endfacet
  facet normal -0 0 -1
    outer loop
      vertex -0.502324 11.1158 0
      vertex -26.2779 -9.98027 0
      vertex -1.49905 11.2417 0
    endloop
  endfacet
  facet normal 0 -0 -1
    outer loop
      vertex -23.6528 -0.648935 0
      vertex -1.49905 11.2417 0
      vertex -26.2779 -9.98027 0
    endloop
  endfacet
  facet normal -0 0 -1
    outer loop
      vertex -1.49905 11.2417 0
      vertex -23.6528 -0.648935 0
      vertex -2.47214 11.4915 0
    endloop
  endfacet
  facet normal 0 -0 -1
    outer loop
      vertex -23.55 0 0
      vertex -2.47214 11.4915 0
      vertex -23.6528 -0.648935 0
    endloop
  endfacet
  facet normal -0 0 -1
    outer loop
      vertex -7.43821 16.155 0
      vertex -25.0011 1.99722 0
      vertex -7.74866 17.1105 0
    endloop
  endfacet
  facet normal -0 0 -1
    outer loop
      vertex -7.01045 15.246 0
      vertex -24.4156 1.69894 0
      vertex -7.43821 16.155 0
    endloop
  endfacet
  facet normal 0 0 -1
    outer loop
      vertex -24.4156 1.69894 0
      vertex -7.01045 15.246 0
      vertex -23.9511 1.23435 0
    endloop
  endfacet
  facet normal -0 0 -1
    outer loop
      vertex -6.47214 14.3977 0
      vertex -23.9511 1.23435 0
      vertex -7.01045 15.246 0
    endloop
  endfacet
  facet normal -0 0 -1
    outer loop
      vertex -5.83175 13.6236 0
      vertex -23.9511 1.23435 0
      vertex -6.47214 14.3977 0
    endloop
  endfacet
  facet normal 0 0 -1
    outer loop
      vertex -23.9511 1.23435 0
      vertex -5.83175 13.6236 0
      vertex -23.6528 0.648935 0
    endloop
  endfacet
  facet normal -0 0 -1
    outer loop
      vertex -5.09939 12.9359 0
      vertex -23.6528 0.648935 0
      vertex -5.83175 13.6236 0
    endloop
  endfacet
  facet normal -0 0 -1
    outer loop
      vertex -4.28661 12.3454 0
      vertex -23.6528 0.648935 0
      vertex -5.09939 12.9359 0
    endloop
  endfacet
  facet normal -0 0 -1
    outer loop
      vertex -2.47214 11.4915 0
      vertex -23.55 0 0
      vertex -3.40623 11.8614 0
    endloop
  endfacet
  facet normal 0 0 -1
    outer loop
      vertex -23.6528 0.648935 0
      vertex -4.28661 12.3454 0
      vertex -23.55 0 0
    endloop
  endfacet
  facet normal -0 0 -1
    outer loop
      vertex -3.40623 11.8614 0
      vertex -23.55 0 0
      vertex -4.28661 12.3454 0
    endloop
  endfacet
  facet normal 0 0 -1
    outer loop
      vertex -23.6528 -0.648935 0
      vertex -26.2779 -9.98027 0
      vertex -23.9511 -1.23435 0
    endloop
  endfacet
  facet normal 0 0 -1
    outer loop
      vertex -23.9511 -1.23435 0
      vertex -26.2779 -9.98027 0
      vertex -24.4156 -1.69894 0
    endloop
  endfacet
  facet normal 0 0 -1
    outer loop
      vertex -24.4156 -1.69894 0
      vertex -26.2779 -9.98027 0
      vertex -25.0011 -1.99722 0
    endloop
  endfacet
  facet normal 0 0 -1
    outer loop
      vertex -25.0011 -1.99722 0
      vertex -26.2779 -9.98027 0
      vertex -25.65 -2.1 0
    endloop
  endfacet
  facet normal 0 0 -1
    outer loop
      vertex -27.5238 -9.82287 0
      vertex -25.65 -2.1 0
      vertex -26.2779 -9.98027 0
    endloop
  endfacet
  facet normal -0 0 -1
    outer loop
      vertex -25.65 -2.1 0
      vertex -27.5238 -9.82287 0
      vertex -26.2989 -1.99722 0
    endloop
  endfacet
  facet normal 0 0 -1
    outer loop
      vertex -28.7402 -9.51056 0
      vertex -26.2989 -1.99722 0
      vertex -27.5238 -9.82287 0
    endloop
  endfacet
  facet normal 0 0 -1
    outer loop
      vertex -29.9078 -9.04827 0
      vertex -26.2989 -1.99722 0
      vertex -28.7402 -9.51056 0
    endloop
  endfacet
  facet normal -0 0 -1
    outer loop
      vertex -26.2989 -1.99722 0
      vertex -29.9078 -9.04827 0
      vertex -26.8843 -1.69894 0
    endloop
  endfacet
  facet normal 0 0 -1
    outer loop
      vertex -31.0083 -8.44328 0
      vertex -26.8843 -1.69894 0
      vertex -29.9078 -9.04827 0
    endloop
  endfacet
  facet normal 0 0 -1
    outer loop
      vertex -32.0242 -7.70513 0
      vertex -26.8843 -1.69894 0
      vertex -31.0083 -8.44328 0
    endloop
  endfacet
  facet normal 0 0 -1
    outer loop
      vertex 27.75 0 0
      vertex 35.65 0 0
      vertex 35.5711 -1.25333 0
    endloop
  endfacet
  facet normal 0 0 -1
    outer loop
      vertex 27.6472 -0.648935 0
      vertex 35.5711 -1.25333 0
      vertex 35.3358 -2.4869 0
    endloop
  endfacet
  facet normal 0 0 -1
    outer loop
      vertex 35.65 0 0
      vertex 27.75 0 0
      vertex 35.5711 1.25333 0
    endloop
  endfacet
  facet normal 0 0 -1
    outer loop
      vertex 27.6472 -0.648935 0
      vertex 35.3358 -2.4869 0
      vertex 34.9478 -3.68124 0
    endloop
  endfacet
  facet normal 0 0 -1
    outer loop
      vertex 27.6472 0.648935 0
      vertex 35.5711 1.25333 0
      vertex 27.75 0 0
    endloop
  endfacet
  facet normal 0 0 -1
    outer loop
      vertex 27.6472 -0.648935 0
      vertex 34.9478 -3.68124 0
      vertex 34.4131 -4.81754 0
    endloop
  endfacet
  facet normal -0 0 -1
    outer loop
      vertex 35.5711 1.25333 0
      vertex 27.6472 0.648935 0
      vertex 35.3358 2.4869 0
    endloop
  endfacet
  facet normal 0 0 -1
    outer loop
      vertex 27.6472 -0.648935 0
      vertex 34.4131 -4.81754 0
      vertex 33.7402 -5.87785 0
    endloop
  endfacet
  facet normal -0 0 -1
    outer loop
      vertex 35.3358 2.4869 0
      vertex 27.6472 0.648935 0
      vertex 34.9478 3.68124 0
    endloop
  endfacet
  facet normal 0 0 -1
    outer loop
      vertex 27.6472 -0.648935 0
      vertex 33.7402 -5.87785 0
      vertex 32.9397 -6.84547 0
    endloop
  endfacet
  facet normal -0 0 -1
    outer loop
      vertex 34.9478 3.68124 0
      vertex 27.6472 0.648935 0
      vertex 34.4131 4.81754 0
    endloop
  endfacet
  facet normal 0 0 -1
    outer loop
      vertex 27.6472 -0.648935 0
      vertex 32.9397 -6.84547 0
      vertex 32.0242 -7.70513 0
    endloop
  endfacet
  facet normal 0 0 -1
    outer loop
      vertex 27.3489 1.23435 0
      vertex 34.4131 4.81754 0
      vertex 27.6472 0.648935 0
    endloop
  endfacet
  facet normal 0 0 -1
    outer loop
      vertex 27.6472 -0.648935 0
      vertex 32.0242 -7.70513 0
      vertex 31.0083 -8.44328 0
    endloop
  endfacet
  facet normal 0 0 -1
    outer loop
      vertex 27.6472 -0.648935 0
      vertex 31.0083 -8.44328 0
      vertex 29.9078 -9.04827 0
    endloop
  endfacet
  facet normal 0 0 -1
    outer loop
      vertex 26.2989 -1.99722 0
      vertex 29.9078 -9.04827 0
      vertex 28.7402 -9.51056 0
    endloop
  endfacet
  facet normal -0 0 -1
    outer loop
      vertex 34.4131 4.81754 0
      vertex 27.3489 1.23435 0
      vertex 33.7402 5.87785 0
    endloop
  endfacet
  facet normal -0 0 -1
    outer loop
      vertex 33.7402 5.87785 0
      vertex 27.3489 1.23435 0
      vertex 32.9397 6.84547 0
    endloop
  endfacet
  facet normal 0 0 -1
    outer loop
      vertex 26.8843 1.69894 0
      vertex 32.9397 6.84547 0
      vertex 27.3489 1.23435 0
    endloop
  endfacet
  facet normal -0 0 -1
    outer loop
      vertex 32.9397 6.84547 0
      vertex 26.8843 1.69894 0
      vertex 32.0242 7.70513 0
    endloop
  endfacet
  facet normal 0 0 -1
    outer loop
      vertex 26.2989 1.99722 0
      vertex 32.0242 7.70513 0
      vertex 26.8843 1.69894 0
    endloop
  endfacet
  facet normal 0 0 -1
    outer loop
      vertex 25.65 2.1 0
      vertex 32.0242 7.70513 0
      vertex 26.2989 1.99722 0
    endloop
  endfacet
  facet normal 0 0 -1
    outer loop
      vertex 25.0011 1.99722 0
      vertex 32.0242 7.70513 0
      vertex 25.65 2.1 0
    endloop
  endfacet
  facet normal 0 0 -1
    outer loop
      vertex 8.28651 29.1167 0
      vertex 25.0011 1.99722 0
      vertex 24.4156 1.69894 0
    endloop
  endfacet
  facet normal 0 0 -1
    outer loop
      vertex 25.0011 1.99722 0
      vertex 8.28651 29.1167 0
      vertex 32.0242 7.70513 0
    endloop
  endfacet
  facet normal 0 0 -1
    outer loop
      vertex 23.9511 1.23435 0
      vertex 8.28651 29.1167 0
      vertex 24.4156 1.69894 0
    endloop
  endfacet
  facet normal 0 0 -1
    outer loop
      vertex 23.6528 0.648935 0
      vertex 8.28651 29.1167 0
      vertex 23.9511 1.23435 0
    endloop
  endfacet
  facet normal 0 0 -1
    outer loop
      vertex 8.28651 29.1167 0
      vertex 23.6528 0.648935 0
      vertex 23.55 0 0
    endloop
  endfacet
  facet normal 0 0 -1
    outer loop
      vertex 23.55 0 0
      vertex 7.93692 20.1027 0
      vertex 8.28651 29.1167 0
    endloop
  endfacet
  facet normal 0 0 -1
    outer loop
      vertex 7.74866 21.0895 0
      vertex 8.28651 29.1167 0
      vertex 7.93692 20.1027 0
    endloop
  endfacet
  facet normal 0 0 -1
    outer loop
      vertex 7.43821 22.045 0
      vertex 8.28651 29.1167 0
      vertex 7.74866 21.0895 0
    endloop
  endfacet
  facet normal 0 0 -1
    outer loop
      vertex 7.01045 22.954 0
      vertex 8.28651 29.1167 0
      vertex 7.43821 22.045 0
    endloop
  endfacet
  facet normal 0 0 -1
    outer loop
      vertex 6.47214 23.8023 0
      vertex 8.28651 29.1167 0
      vertex 7.01045 22.954 0
    endloop
  endfacet
  facet normal 0 0 -1
    outer loop
      vertex 5.83175 24.5764 0
      vertex 8.28651 29.1167 0
      vertex 6.47214 23.8023 0
    endloop
  endfacet
  facet normal 0 0 -1
    outer loop
      vertex 5.09939 25.2641 0
      vertex 8.28651 29.1167 0
      vertex 5.83175 24.5764 0
    endloop
  endfacet
  facet normal -0 0 -1
    outer loop
      vertex 8.28651 29.1167 0
      vertex 5.09939 25.2641 0
      vertex 6.96575 30.0763 0
    endloop
  endfacet
  facet normal 0 0 -1
    outer loop
      vertex 4.28661 25.8546 0
      vertex 6.96575 30.0763 0
      vertex 5.09939 25.2641 0
    endloop
  endfacet
  facet normal -0 0 -1
    outer loop
      vertex 6.96575 30.0763 0
      vertex 4.28661 25.8546 0
      vertex 5.53513 30.8628 0
    endloop
  endfacet
  facet normal 0 0 -1
    outer loop
      vertex 3.40623 26.3386 0
      vertex 5.53513 30.8628 0
      vertex 4.28661 25.8546 0
    endloop
  endfacet
  facet normal -0 0 -1
    outer loop
      vertex 5.53513 30.8628 0
      vertex 3.40623 26.3386 0
      vertex 4.01722 31.4637 0
    endloop
  endfacet
  facet normal 0 0 -1
    outer loop
      vertex 2.47214 26.7085 0
      vertex 4.01722 31.4637 0
      vertex 3.40623 26.3386 0
    endloop
  endfacet
  facet normal 0 0 -1
    outer loop
      vertex 2.47214 26.7085 0
      vertex 2.43596 31.8697 0
      vertex 4.01722 31.4637 0
    endloop
  endfacet
  facet normal 0 0 -1
    outer loop
      vertex 1.49905 26.9583 0
      vertex 2.43596 31.8697 0
      vertex 2.47214 26.7085 0
    endloop
  endfacet
  facet normal 0 0 -1
    outer loop
      vertex 1.49905 26.9583 0
      vertex 0.816277 32.0743 0
      vertex 2.43596 31.8697 0
    endloop
  endfacet
  facet normal 0 0 -1
    outer loop
      vertex 0.502324 27.0842 0
      vertex 0.816277 32.0743 0
      vertex 1.49905 26.9583 0
    endloop
  endfacet
  facet normal 0 0 -1
    outer loop
      vertex -0.502324 27.0842 0
      vertex 0.816277 32.0743 0
      vertex 0.502324 27.0842 0
    endloop
  endfacet
  facet normal 0 0 -1
    outer loop
      vertex -0.502324 27.0842 0
      vertex -0.816277 32.0743 0
      vertex 0.816277 32.0743 0
    endloop
  endfacet
  facet normal 0 0 -1
    outer loop
      vertex -1.49905 26.9583 0
      vertex -0.816277 32.0743 0
      vertex -0.502324 27.0842 0
    endloop
  endfacet
  facet normal 0 0 -1
    outer loop
      vertex -1.49905 26.9583 0
      vertex -2.43596 31.8697 0
      vertex -0.816277 32.0743 0
    endloop
  endfacet
  facet normal 0 0 -1
    outer loop
      vertex -2.47214 26.7085 0
      vertex -2.43596 31.8697 0
      vertex -1.49905 26.9583 0
    endloop
  endfacet
  facet normal 0 0 -1
    outer loop
      vertex -4.01722 31.4637 0
      vertex -2.47214 26.7085 0
      vertex -3.40623 26.3386 0
    endloop
  endfacet
  facet normal 0 0 -1
    outer loop
      vertex -2.47214 26.7085 0
      vertex -4.01722 31.4637 0
      vertex -2.43596 31.8697 0
    endloop
  endfacet
  facet normal 0 0 -1
    outer loop
      vertex -5.53513 30.8628 0
      vertex -3.40623 26.3386 0
      vertex -4.28661 25.8546 0
    endloop
  endfacet
  facet normal 0 0 -1
    outer loop
      vertex -6.96575 30.0763 0
      vertex -4.28661 25.8546 0
      vertex -5.09939 25.2641 0
    endloop
  endfacet
  facet normal 0 0 -1
    outer loop
      vertex -3.40623 26.3386 0
      vertex -5.53513 30.8628 0
      vertex -4.01722 31.4637 0
    endloop
  endfacet
  facet normal 0 0 -1
    outer loop
      vertex -8.28651 29.1167 0
      vertex -5.09939 25.2641 0
      vertex -5.83175 24.5764 0
    endloop
  endfacet
  facet normal 0 0 -1
    outer loop
      vertex -8.28651 29.1167 0
      vertex -5.83175 24.5764 0
      vertex -6.47214 23.8023 0
    endloop
  endfacet
  facet normal 0 0 -1
    outer loop
      vertex -4.28661 25.8546 0
      vertex -6.96575 30.0763 0
      vertex -5.53513 30.8628 0
    endloop
  endfacet
  facet normal 0 0 -1
    outer loop
      vertex -8.28651 29.1167 0
      vertex -6.47214 23.8023 0
      vertex -7.01045 22.954 0
    endloop
  endfacet
  facet normal 0 0 -1
    outer loop
      vertex -8.28651 29.1167 0
      vertex -7.01045 22.954 0
      vertex -7.43821 22.045 0
    endloop
  endfacet
  facet normal 0 0 -1
    outer loop
      vertex -8.28651 29.1167 0
      vertex -7.43821 22.045 0
      vertex -7.74866 21.0895 0
    endloop
  endfacet
  facet normal 0 0 -1
    outer loop
      vertex -8.28651 29.1167 0
      vertex -7.74866 21.0895 0
      vertex -7.93692 20.1027 0
    endloop
  endfacet
  facet normal 0 0 -1
    outer loop
      vertex -5.09939 25.2641 0
      vertex -8.28651 29.1167 0
      vertex -6.96575 30.0763 0
    endloop
  endfacet
  facet normal 0 0 -1
    outer loop
      vertex -25.0011 1.99722 0
      vertex -7.43821 16.155 0
      vertex -24.4156 1.69894 0
    endloop
  endfacet
  facet normal 0 0 -1
    outer loop
      vertex -32.0242 7.70513 0
      vertex -7.74866 17.1105 0
      vertex -25.0011 1.99722 0
    endloop
  endfacet
  facet normal -0 0 -1
    outer loop
      vertex -7.74866 17.1105 0
      vertex -32.0242 7.70513 0
      vertex -7.93692 18.0973 0
    endloop
  endfacet
  facet normal -0 0 -1
    outer loop
      vertex -7.93692 18.0973 0
      vertex -32.0242 7.70513 0
      vertex -8 19.1 0
    endloop
  endfacet
  facet normal -0 0 -1
    outer loop
      vertex -8 19.1 0
      vertex -32.0242 7.70513 0
      vertex -7.93692 20.1027 0
    endloop
  endfacet
  facet normal 0 0 -1
    outer loop
      vertex -32.0242 7.70513 0
      vertex -25.0011 1.99722 0
      vertex -25.65 2.1 0
    endloop
  endfacet
  facet normal 0 0 -1
    outer loop
      vertex -32.0242 7.70513 0
      vertex -25.65 2.1 0
      vertex -26.2989 1.99722 0
    endloop
  endfacet
  facet normal 0 0 -1
    outer loop
      vertex -32.0242 7.70513 0
      vertex -26.2989 1.99722 0
      vertex -26.8843 1.69894 0
    endloop
  endfacet
  facet normal 0 0 -1
    outer loop
      vertex -32.9397 6.84547 0
      vertex -26.8843 1.69894 0
      vertex -27.3489 1.23435 0
    endloop
  endfacet
  facet normal 0 0 -1
    outer loop
      vertex -32.9397 -6.84547 0
      vertex -26.8843 -1.69894 0
      vertex -32.0242 -7.70513 0
    endloop
  endfacet
  facet normal -0 0 -1
    outer loop
      vertex -26.8843 -1.69894 0
      vertex -32.9397 -6.84547 0
      vertex -27.3489 -1.23435 0
    endloop
  endfacet
  facet normal 0 0 -1
    outer loop
      vertex -33.7402 -5.87785 0
      vertex -27.3489 -1.23435 0
      vertex -32.9397 -6.84547 0
    endloop
  endfacet
  facet normal 0 0 -1
    outer loop
      vertex -34.4131 -4.81754 0
      vertex -27.3489 -1.23435 0
      vertex -33.7402 -5.87785 0
    endloop
  endfacet
  facet normal -0 0 -1
    outer loop
      vertex -27.3489 -1.23435 0
      vertex -34.4131 -4.81754 0
      vertex -27.6472 -0.648935 0
    endloop
  endfacet
  facet normal -0 0 -1
    outer loop
      vertex -7.93692 20.1027 0
      vertex -32.0242 7.70513 0
      vertex -8.28651 29.1167 0
    endloop
  endfacet
  facet normal 0 0 -1
    outer loop
      vertex -34.9478 -3.68124 0
      vertex -27.6472 -0.648935 0
      vertex -34.4131 -4.81754 0
    endloop
  endfacet
  facet normal 0 0 -1
    outer loop
      vertex -35.3358 -2.4869 0
      vertex -27.6472 -0.648935 0
      vertex -34.9478 -3.68124 0
    endloop
  endfacet
  facet normal 0 0 -1
    outer loop
      vertex -26.8843 1.69894 0
      vertex -32.9397 6.84547 0
      vertex -32.0242 7.70513 0
    endloop
  endfacet
  facet normal 0 0 -1
    outer loop
      vertex -35.5711 -1.25333 0
      vertex -27.6472 -0.648935 0
      vertex -35.3358 -2.4869 0
    endloop
  endfacet
  facet normal 0 0 -1
    outer loop
      vertex -27.3489 1.23435 0
      vertex -33.7402 5.87785 0
      vertex -32.9397 6.84547 0
    endloop
  endfacet
  facet normal -0 0 -1
    outer loop
      vertex -27.6472 -0.648935 0
      vertex -35.5711 -1.25333 0
      vertex -27.75 0 0
    endloop
  endfacet
  facet normal 0 0 -1
    outer loop
      vertex -27.3489 1.23435 0
      vertex -34.4131 4.81754 0
      vertex -33.7402 5.87785 0
    endloop
  endfacet
  facet normal 0 0 -1
    outer loop
      vertex -35.65 0 0
      vertex -27.75 0 0
      vertex -35.5711 -1.25333 0
    endloop
  endfacet
  facet normal 0 0 -1
    outer loop
      vertex -27.6472 0.648935 0
      vertex -34.4131 4.81754 0
      vertex -27.3489 1.23435 0
    endloop
  endfacet
  facet normal 0 -0 -1
    outer loop
      vertex -35.5711 1.25333 0
      vertex -27.75 0 0
      vertex -35.65 0 0
    endloop
  endfacet
  facet normal 0 -0 -1
    outer loop
      vertex -34.4131 4.81754 0
      vertex -27.6472 0.648935 0
      vertex -34.9478 3.68124 0
    endloop
  endfacet
  facet normal 0 0 -1
    outer loop
      vertex -27.75 0 0
      vertex -35.5711 1.25333 0
      vertex -27.6472 0.648935 0
    endloop
  endfacet
  facet normal 0 -0 -1
    outer loop
      vertex -34.9478 3.68124 0
      vertex -27.6472 0.648935 0
      vertex -35.3358 2.4869 0
    endloop
  endfacet
  facet normal 0 -0 -1
    outer loop
      vertex -35.3358 2.4869 0
      vertex -27.6472 0.648935 0
      vertex -35.5711 1.25333 0
    endloop
  endfacet
  facet normal -0.998027 0.062791 0
    outer loop
      vertex -35.65 0 0
      vertex -35.5711 1.25333 10
      vertex -35.5711 1.25333 0
    endloop
  endfacet
  facet normal -0.998027 0.062791 0
    outer loop
      vertex -35.5711 1.25333 10
      vertex -35.65 0 0
      vertex -35.65 0 10
    endloop
  endfacet
  facet normal -0.24869 -0.968583 0
    outer loop
      vertex -28.7402 -9.51056 0
      vertex -27.5238 -9.82287 10
      vertex -28.7402 -9.51056 10
    endloop
  endfacet
  facet normal -0.24869 -0.968583 -0
    outer loop
      vertex -27.5238 -9.82287 10
      vertex -28.7402 -9.51056 0
      vertex -27.5238 -9.82287 0
    endloop
  endfacet
  facet normal 0 1 -0
    outer loop
      vertex 0.816277 32.0743 0
      vertex -0.816277 32.0743 10
      vertex 0.816277 32.0743 10
    endloop
  endfacet
  facet normal 0 1 0
    outer loop
      vertex -0.816277 32.0743 10
      vertex 0.816277 32.0743 0
      vertex -0.816277 32.0743 0
    endloop
  endfacet
  facet normal -0.125333 -0.992115 0
    outer loop
      vertex -27.5238 -9.82287 0
      vertex -26.2779 -9.98027 10
      vertex -27.5238 -9.82287 10
    endloop
  endfacet
  facet normal -0.125333 -0.992115 -0
    outer loop
      vertex -26.2779 -9.98027 10
      vertex -27.5238 -9.82287 0
      vertex -26.2779 -9.98027 0
    endloop
  endfacet
  facet normal -0.770513 -0.637424 0
    outer loop
      vertex -32.9397 -6.84547 0
      vertex -33.7402 -5.87785 10
      vertex -33.7402 -5.87785 0
    endloop
  endfacet
  facet normal -0.770513 -0.637424 0
    outer loop
      vertex -33.7402 -5.87785 10
      vertex -32.9397 -6.84547 0
      vertex -32.9397 -6.84547 10
    endloop
  endfacet
  facet normal 0 -1 0
    outer loop
      vertex -26.2779 -9.98027 0
      vertex 26.2779 -9.98027 10
      vertex -26.2779 -9.98027 10
    endloop
  endfacet
  facet normal 0 -1 -0
    outer loop
      vertex 26.2779 -9.98027 10
      vertex -26.2779 -9.98027 0
      vertex 26.2779 -9.98027 0
    endloop
  endfacet
  facet normal 0.982287 -0.187383 0
    outer loop
      vertex 35.3358 -2.4869 10
      vertex 35.5711 -1.25333 0
      vertex 35.5711 -1.25333 10
    endloop
  endfacet
  facet normal 0.982287 -0.187383 0
    outer loop
      vertex 35.5711 -1.25333 0
      vertex 35.3358 -2.4869 10
      vertex 35.3358 -2.4869 0
    endloop
  endfacet
  facet normal 0.669787 0.742554 -0
    outer loop
      vertex 32.0242 7.70513 0
      vertex 8.28651 29.1167 10
      vertex 32.0242 7.70513 10
    endloop
  endfacet
  facet normal 0.669787 0.742554 0
    outer loop
      vertex 8.28651 29.1167 10
      vertex 32.0242 7.70513 0
      vertex 8.28651 29.1167 0
    endloop
  endfacet
  facet normal 0 0 1
    outer loop
      vertex -4.28661 12.3454 10
      vertex -23.6528 0.648935 10
      vertex -23.55 0 10
    endloop
  endfacet
  facet normal 0 0 1
    outer loop
      vertex -7.93692 20.1027 10
      vertex -23.9511 1.23435 10
      vertex -23.6528 0.648935 10
    endloop
  endfacet
  facet normal 0 0 1
    outer loop
      vertex -7.93692 20.1027 10
      vertex -24.4156 1.69894 10
      vertex -23.9511 1.23435 10
    endloop
  endfacet
  facet normal 0 0 1
    outer loop
      vertex -7.93692 20.1027 10
      vertex -25.0011 1.99722 10
      vertex -24.4156 1.69894 10
    endloop
  endfacet
  facet normal 0 0 1
    outer loop
      vertex -7.93692 20.1027 10
      vertex -32.0242 7.70513 10
      vertex -25.0011 1.99722 10
    endloop
  endfacet
  facet normal 0 0 1
    outer loop
      vertex -25.0011 1.99722 10
      vertex -32.0242 7.70513 10
      vertex -25.65 2.1 10
    endloop
  endfacet
  facet normal 0 0 1
    outer loop
      vertex -25.65 2.1 10
      vertex -32.0242 7.70513 10
      vertex -26.2989 1.99722 10
    endloop
  endfacet
  facet normal 0 0 1
    outer loop
      vertex -26.2989 1.99722 10
      vertex -32.0242 7.70513 10
      vertex -26.8843 1.69894 10
    endloop
  endfacet
  facet normal 0 0 1
    outer loop
      vertex -26.2989 -1.99722 10
      vertex -29.9078 -9.04827 10
      vertex -28.7402 -9.51056 10
    endloop
  endfacet
  facet normal 0 0 1
    outer loop
      vertex -35.5711 1.25333 10
      vertex -27.75 0 10
      vertex -27.6472 0.648935 10
    endloop
  endfacet
  facet normal 0 0 1
    outer loop
      vertex -27.6472 -0.648935 10
      vertex -31.0083 -8.44328 10
      vertex -29.9078 -9.04827 10
    endloop
  endfacet
  facet normal -0 0 1
    outer loop
      vertex -32.9397 6.84547 10
      vertex -26.8843 1.69894 10
      vertex -32.0242 7.70513 10
    endloop
  endfacet
  facet normal 0 0 1
    outer loop
      vertex -26.8843 1.69894 10
      vertex -32.9397 6.84547 10
      vertex -27.3489 1.23435 10
    endloop
  endfacet
  facet normal -0 0 1
    outer loop
      vertex -33.7402 5.87785 10
      vertex -27.3489 1.23435 10
      vertex -32.9397 6.84547 10
    endloop
  endfacet
  facet normal 0 0 1
    outer loop
      vertex -27.6472 -0.648935 10
      vertex -32.0242 -7.70513 10
      vertex -31.0083 -8.44328 10
    endloop
  endfacet
  facet normal -0 0 1
    outer loop
      vertex -34.4131 4.81754 10
      vertex -27.3489 1.23435 10
      vertex -33.7402 5.87785 10
    endloop
  endfacet
  facet normal 0 0 1
    outer loop
      vertex -27.6472 -0.648935 10
      vertex -32.9397 -6.84547 10
      vertex -32.0242 -7.70513 10
    endloop
  endfacet
  facet normal 0 0 1
    outer loop
      vertex -27.3489 1.23435 10
      vertex -34.4131 4.81754 10
      vertex -27.6472 0.648935 10
    endloop
  endfacet
  facet normal 0 0 1
    outer loop
      vertex -27.6472 -0.648935 10
      vertex -33.7402 -5.87785 10
      vertex -32.9397 -6.84547 10
    endloop
  endfacet
  facet normal -0 0 1
    outer loop
      vertex -34.9478 3.68124 10
      vertex -27.6472 0.648935 10
      vertex -34.4131 4.81754 10
    endloop
  endfacet
  facet normal 0 0 1
    outer loop
      vertex -27.6472 -0.648935 10
      vertex -34.4131 -4.81754 10
      vertex -33.7402 -5.87785 10
    endloop
  endfacet
  facet normal -0 0 1
    outer loop
      vertex -35.3358 2.4869 10
      vertex -27.6472 0.648935 10
      vertex -34.9478 3.68124 10
    endloop
  endfacet
  facet normal 0 0 1
    outer loop
      vertex -27.6472 -0.648935 10
      vertex -34.9478 -3.68124 10
      vertex -34.4131 -4.81754 10
    endloop
  endfacet
  facet normal -0 0 1
    outer loop
      vertex -35.5711 1.25333 10
      vertex -27.6472 0.648935 10
      vertex -35.3358 2.4869 10
    endloop
  endfacet
  facet normal 0 0 1
    outer loop
      vertex -27.6472 -0.648935 10
      vertex -35.3358 -2.4869 10
      vertex -34.9478 -3.68124 10
    endloop
  endfacet
  facet normal 0 0 1
    outer loop
      vertex -27.75 0 10
      vertex -35.5711 1.25333 10
      vertex -35.65 0 10
    endloop
  endfacet
  facet normal 0 0 1
    outer loop
      vertex -27.6472 -0.648935 10
      vertex -35.5711 -1.25333 10
      vertex -35.3358 -2.4869 10
    endloop
  endfacet
  facet normal 0 0 1
    outer loop
      vertex -27.75 0 10
      vertex -35.65 0 10
      vertex -35.5711 -1.25333 10
    endloop
  endfacet
  facet normal 0 0 1
    outer loop
      vertex 32.0242 7.70513 10
      vertex 7.93692 20.1027 10
      vertex 8 19.1 10
    endloop
  endfacet
  facet normal 0 0 1
    outer loop
      vertex 8.28651 29.1167 10
      vertex 7.74866 21.0895 10
      vertex 7.93692 20.1027 10
    endloop
  endfacet
  facet normal 0 0 1
    outer loop
      vertex 8.28651 29.1167 10
      vertex 7.43821 22.045 10
      vertex 7.74866 21.0895 10
    endloop
  endfacet
  facet normal 0 0 1
    outer loop
      vertex 8.28651 29.1167 10
      vertex 7.01045 22.954 10
      vertex 7.43821 22.045 10
    endloop
  endfacet
  facet normal 0 0 1
    outer loop
      vertex 5.09939 25.2641 10
      vertex 8.28651 29.1167 10
      vertex 6.96575 30.0763 10
    endloop
  endfacet
  facet normal 0 0 1
    outer loop
      vertex 8.28651 29.1167 10
      vertex 6.47214 23.8023 10
      vertex 7.01045 22.954 10
    endloop
  endfacet
  facet normal 0 0 1
    outer loop
      vertex 8.28651 29.1167 10
      vertex 5.83175 24.5764 10
      vertex 6.47214 23.8023 10
    endloop
  endfacet
  facet normal 0 0 1
    outer loop
      vertex 4.28661 25.8546 10
      vertex 6.96575 30.0763 10
      vertex 5.53513 30.8628 10
    endloop
  endfacet
  facet normal 0 0 1
    outer loop
      vertex 8.28651 29.1167 10
      vertex 5.09939 25.2641 10
      vertex 5.83175 24.5764 10
    endloop
  endfacet
  facet normal 0 0 1
    outer loop
      vertex 6.96575 30.0763 10
      vertex 4.28661 25.8546 10
      vertex 5.09939 25.2641 10
    endloop
  endfacet
  facet normal 0 0 1
    outer loop
      vertex 3.40623 26.3386 10
      vertex 5.53513 30.8628 10
      vertex 4.01722 31.4637 10
    endloop
  endfacet
  facet normal 0 0 1
    outer loop
      vertex 5.53513 30.8628 10
      vertex 3.40623 26.3386 10
      vertex 4.28661 25.8546 10
    endloop
  endfacet
  facet normal 0 0 1
    outer loop
      vertex 4.01722 31.4637 10
      vertex 2.47214 26.7085 10
      vertex 3.40623 26.3386 10
    endloop
  endfacet
  facet normal 0 0 1
    outer loop
      vertex 2.43596 31.8697 10
      vertex 2.47214 26.7085 10
      vertex 4.01722 31.4637 10
    endloop
  endfacet
  facet normal 0 0 1
    outer loop
      vertex 2.43596 31.8697 10
      vertex 1.49905 26.9583 10
      vertex 2.47214 26.7085 10
    endloop
  endfacet
  facet normal 0 0 1
    outer loop
      vertex 0.816277 32.0743 10
      vertex 1.49905 26.9583 10
      vertex 2.43596 31.8697 10
    endloop
  endfacet
  facet normal 0 0 1
    outer loop
      vertex 0.816277 32.0743 10
      vertex 0.502324 27.0842 10
      vertex 1.49905 26.9583 10
    endloop
  endfacet
  facet normal 0 0 1
    outer loop
      vertex 0.816277 32.0743 10
      vertex -0.502324 27.0842 10
      vertex 0.502324 27.0842 10
    endloop
  endfacet
  facet normal -0 0 1
    outer loop
      vertex -0.816277 32.0743 10
      vertex -0.502324 27.0842 10
      vertex 0.816277 32.0743 10
    endloop
  endfacet
  facet normal 0 0 1
    outer loop
      vertex -0.816277 32.0743 10
      vertex -1.49905 26.9583 10
      vertex -0.502324 27.0842 10
    endloop
  endfacet
  facet normal -0 0 1
    outer loop
      vertex -2.43596 31.8697 10
      vertex -1.49905 26.9583 10
      vertex -0.816277 32.0743 10
    endloop
  endfacet
  facet normal 0 0 1
    outer loop
      vertex -2.43596 31.8697 10
      vertex -2.47214 26.7085 10
      vertex -1.49905 26.9583 10
    endloop
  endfacet
  facet normal -0 0 1
    outer loop
      vertex -4.01722 31.4637 10
      vertex -2.47214 26.7085 10
      vertex -2.43596 31.8697 10
    endloop
  endfacet
  facet normal 0 0 1
    outer loop
      vertex -2.47214 26.7085 10
      vertex -4.01722 31.4637 10
      vertex -3.40623 26.3386 10
    endloop
  endfacet
  facet normal -0 0 1
    outer loop
      vertex -5.53513 30.8628 10
      vertex -3.40623 26.3386 10
      vertex -4.01722 31.4637 10
    endloop
  endfacet
  facet normal 0 0 1
    outer loop
      vertex -3.40623 26.3386 10
      vertex -5.53513 30.8628 10
      vertex -4.28661 25.8546 10
    endloop
  endfacet
  facet normal -0 0 1
    outer loop
      vertex -6.96575 30.0763 10
      vertex -4.28661 25.8546 10
      vertex -5.53513 30.8628 10
    endloop
  endfacet
  facet normal 0 0 1
    outer loop
      vertex -4.28661 25.8546 10
      vertex -6.96575 30.0763 10
      vertex -5.09939 25.2641 10
    endloop
  endfacet
  facet normal -0 0 1
    outer loop
      vertex -8.28651 29.1167 10
      vertex -5.09939 25.2641 10
      vertex -6.96575 30.0763 10
    endloop
  endfacet
  facet normal 0 0 1
    outer loop
      vertex -5.09939 25.2641 10
      vertex -8.28651 29.1167 10
      vertex -5.83175 24.5764 10
    endloop
  endfacet
  facet normal 0 0 1
    outer loop
      vertex -5.83175 24.5764 10
      vertex -8.28651 29.1167 10
      vertex -6.47214 23.8023 10
    endloop
  endfacet
  facet normal 0 0 1
    outer loop
      vertex -6.47214 23.8023 10
      vertex -8.28651 29.1167 10
      vertex -7.01045 22.954 10
    endloop
  endfacet
  facet normal 0 0 1
    outer loop
      vertex -7.01045 22.954 10
      vertex -8.28651 29.1167 10
      vertex -7.43821 22.045 10
    endloop
  endfacet
  facet normal 0 0 1
    outer loop
      vertex -7.43821 22.045 10
      vertex -8.28651 29.1167 10
      vertex -7.74866 21.0895 10
    endloop
  endfacet
  facet normal 0 0 1
    outer loop
      vertex -32.0242 7.70513 10
      vertex -7.93692 20.1027 10
      vertex -8.28651 29.1167 10
    endloop
  endfacet
  facet normal 0 0 1
    outer loop
      vertex -7.74866 21.0895 10
      vertex -8.28651 29.1167 10
      vertex -7.93692 20.1027 10
    endloop
  endfacet
  facet normal 0 0 1
    outer loop
      vertex 27.75 0 10
      vertex 35.65 0 10
      vertex 35.5711 1.25333 10
    endloop
  endfacet
  facet normal 0 0 1
    outer loop
      vertex 27.6472 0.648935 10
      vertex 35.5711 1.25333 10
      vertex 35.3358 2.4869 10
    endloop
  endfacet
  facet normal 0 0 1
    outer loop
      vertex 35.65 0 10
      vertex 27.75 0 10
      vertex 35.5711 -1.25333 10
    endloop
  endfacet
  facet normal 0 0 1
    outer loop
      vertex 27.6472 0.648935 10
      vertex 35.3358 2.4869 10
      vertex 34.9478 3.68124 10
    endloop
  endfacet
  facet normal -0 0 1
    outer loop
      vertex 27.6472 -0.648935 10
      vertex 35.5711 -1.25333 10
      vertex 27.75 0 10
    endloop
  endfacet
  facet normal 0 0 1
    outer loop
      vertex 27.6472 0.648935 10
      vertex 34.9478 3.68124 10
      vertex 34.4131 4.81754 10
    endloop
  endfacet
  facet normal 0 0 1
    outer loop
      vertex 35.5711 -1.25333 10
      vertex 27.6472 -0.648935 10
      vertex 35.3358 -2.4869 10
    endloop
  endfacet
  facet normal 0 0 1
    outer loop
      vertex 27.3489 1.23435 10
      vertex 34.4131 4.81754 10
      vertex 33.7402 5.87785 10
    endloop
  endfacet
  facet normal 0 0 1
    outer loop
      vertex 35.3358 -2.4869 10
      vertex 27.6472 -0.648935 10
      vertex 34.9478 -3.68124 10
    endloop
  endfacet
  facet normal 0 0 1
    outer loop
      vertex 27.3489 1.23435 10
      vertex 33.7402 5.87785 10
      vertex 32.9397 6.84547 10
    endloop
  endfacet
  facet normal 0 0 1
    outer loop
      vertex 34.9478 -3.68124 10
      vertex 27.6472 -0.648935 10
      vertex 34.4131 -4.81754 10
    endloop
  endfacet
  facet normal 0 0 1
    outer loop
      vertex 26.8843 1.69894 10
      vertex 32.9397 6.84547 10
      vertex 32.0242 7.70513 10
    endloop
  endfacet
  facet normal -0 0 1
    outer loop
      vertex 27.3489 -1.23435 10
      vertex 34.4131 -4.81754 10
      vertex 27.6472 -0.648935 10
    endloop
  endfacet
  facet normal 0 0 1
    outer loop
      vertex 34.4131 -4.81754 10
      vertex 27.3489 -1.23435 10
      vertex 33.7402 -5.87785 10
    endloop
  endfacet
  facet normal 0 0 1
    outer loop
      vertex 33.7402 -5.87785 10
      vertex 27.3489 -1.23435 10
      vertex 32.9397 -6.84547 10
    endloop
  endfacet
  facet normal -0 0 1
    outer loop
      vertex 26.8843 -1.69894 10
      vertex 32.9397 -6.84547 10
      vertex 27.3489 -1.23435 10
    endloop
  endfacet
  facet normal 0 0 1
    outer loop
      vertex 32.9397 -6.84547 10
      vertex 26.8843 -1.69894 10
      vertex 32.0242 -7.70513 10
    endloop
  endfacet
  facet normal 0 0 1
    outer loop
      vertex 35.5711 1.25333 10
      vertex 27.6472 0.648935 10
      vertex 27.75 0 10
    endloop
  endfacet
  facet normal 0 0 1
    outer loop
      vertex 34.4131 4.81754 10
      vertex 27.3489 1.23435 10
      vertex 27.6472 0.648935 10
    endloop
  endfacet
  facet normal 0 0 1
    outer loop
      vertex 32.9397 6.84547 10
      vertex 26.8843 1.69894 10
      vertex 27.3489 1.23435 10
    endloop
  endfacet
  facet normal 0 0 1
    outer loop
      vertex 32.0242 7.70513 10
      vertex 26.2989 1.99722 10
      vertex 26.8843 1.69894 10
    endloop
  endfacet
  facet normal 0 0 1
    outer loop
      vertex 32.0242 7.70513 10
      vertex 25.65 2.1 10
      vertex 26.2989 1.99722 10
    endloop
  endfacet
  facet normal 0 0 1
    outer loop
      vertex 32.0242 7.70513 10
      vertex 25.0011 1.99722 10
      vertex 25.65 2.1 10
    endloop
  endfacet
  facet normal 0 0 1
    outer loop
      vertex 7.74866 17.1105 10
      vertex 25.0011 1.99722 10
      vertex 32.0242 7.70513 10
    endloop
  endfacet
  facet normal -0 0 1
    outer loop
      vertex 7.43821 16.155 10
      vertex 25.0011 1.99722 10
      vertex 7.74866 17.1105 10
    endloop
  endfacet
  facet normal -0 0 1
    outer loop
      vertex 7.74866 17.1105 10
      vertex 32.0242 7.70513 10
      vertex 7.93692 18.0973 10
    endloop
  endfacet
  facet normal -0 0 1
    outer loop
      vertex 7.93692 18.0973 10
      vertex 32.0242 7.70513 10
      vertex 8 19.1 10
    endloop
  endfacet
  facet normal -0 0 1
    outer loop
      vertex 7.93692 20.1027 10
      vertex 32.0242 7.70513 10
      vertex 8.28651 29.1167 10
    endloop
  endfacet
  facet normal 0 0 1
    outer loop
      vertex 32.0242 -7.70513 10
      vertex 26.8843 -1.69894 10
      vertex 31.0083 -8.44328 10
    endloop
  endfacet
  facet normal 0 0 1
    outer loop
      vertex 31.0083 -8.44328 10
      vertex 26.8843 -1.69894 10
      vertex 29.9078 -9.04827 10
    endloop
  endfacet
  facet normal -0 0 1
    outer loop
      vertex 26.2989 -1.99722 10
      vertex 29.9078 -9.04827 10
      vertex 26.8843 -1.69894 10
    endloop
  endfacet
  facet normal 0 0 1
    outer loop
      vertex 29.9078 -9.04827 10
      vertex 26.2989 -1.99722 10
      vertex 28.7402 -9.51056 10
    endloop
  endfacet
  facet normal 0 0 1
    outer loop
      vertex 28.7402 -9.51056 10
      vertex 26.2989 -1.99722 10
      vertex 27.5238 -9.82287 10
    endloop
  endfacet
  facet normal -0 0 1
    outer loop
      vertex 25.65 -2.1 10
      vertex 27.5238 -9.82287 10
      vertex 26.2989 -1.99722 10
    endloop
  endfacet
  facet normal 0 0 1
    outer loop
      vertex 27.5238 -9.82287 10
      vertex 25.65 -2.1 10
      vertex 26.2779 -9.98027 10
    endloop
  endfacet
  facet normal 0 0 1
    outer loop
      vertex 25.0011 -1.99722 10
      vertex 26.2779 -9.98027 10
      vertex 25.65 -2.1 10
    endloop
  endfacet
  facet normal 0 0 1
    outer loop
      vertex 24.4156 -1.69894 10
      vertex 26.2779 -9.98027 10
      vertex 25.0011 -1.99722 10
    endloop
  endfacet
  facet normal 0 0 1
    outer loop
      vertex 23.9511 -1.23435 10
      vertex 26.2779 -9.98027 10
      vertex 24.4156 -1.69894 10
    endloop
  endfacet
  facet normal 0 0 1
    outer loop
      vertex 23.6528 -0.648935 10
      vertex 26.2779 -9.98027 10
      vertex 23.9511 -1.23435 10
    endloop
  endfacet
  facet normal 0 0 1
    outer loop
      vertex 25.0011 1.99722 10
      vertex 7.43821 16.155 10
      vertex 24.4156 1.69894 10
    endloop
  endfacet
  facet normal -0 0 1
    outer loop
      vertex 7.01045 15.246 10
      vertex 24.4156 1.69894 10
      vertex 7.43821 16.155 10
    endloop
  endfacet
  facet normal 0 0 1
    outer loop
      vertex 24.4156 1.69894 10
      vertex 7.01045 15.246 10
      vertex 23.9511 1.23435 10
    endloop
  endfacet
  facet normal -0 0 1
    outer loop
      vertex 6.47214 14.3977 10
      vertex 23.9511 1.23435 10
      vertex 7.01045 15.246 10
    endloop
  endfacet
  facet normal -0 0 1
    outer loop
      vertex 5.83175 13.6236 10
      vertex 23.9511 1.23435 10
      vertex 6.47214 14.3977 10
    endloop
  endfacet
  facet normal 0 0 1
    outer loop
      vertex 23.9511 1.23435 10
      vertex 5.83175 13.6236 10
      vertex 23.6528 0.648935 10
    endloop
  endfacet
  facet normal -0 0 1
    outer loop
      vertex 5.09939 12.9359 10
      vertex 23.6528 0.648935 10
      vertex 5.83175 13.6236 10
    endloop
  endfacet
  facet normal -0 0 1
    outer loop
      vertex 4.28661 12.3454 10
      vertex 23.6528 0.648935 10
      vertex 5.09939 12.9359 10
    endloop
  endfacet
  facet normal 0 0 1
    outer loop
      vertex 23.6528 0.648935 10
      vertex 4.28661 12.3454 10
      vertex 23.55 0 10
    endloop
  endfacet
  facet normal -0 0 1
    outer loop
      vertex 3.40623 11.8614 10
      vertex 23.55 0 10
      vertex 4.28661 12.3454 10
    endloop
  endfacet
  facet normal -0 0 1
    outer loop
      vertex 2.47214 11.4915 10
      vertex 23.55 0 10
      vertex 3.40623 11.8614 10
    endloop
  endfacet
  facet normal 0 0 1
    outer loop
      vertex 23.55 0 10
      vertex 2.47214 11.4915 10
      vertex 23.6528 -0.648935 10
    endloop
  endfacet
  facet normal -0 0 1
    outer loop
      vertex 1.49905 11.2417 10
      vertex 23.6528 -0.648935 10
      vertex 2.47214 11.4915 10
    endloop
  endfacet
  facet normal 0 0 1
    outer loop
      vertex 23.6528 -0.648935 10
      vertex 1.49905 11.2417 10
      vertex 26.2779 -9.98027 10
    endloop
  endfacet
  facet normal -0 0 1
    outer loop
      vertex 0.502324 11.1158 10
      vertex 26.2779 -9.98027 10
      vertex 1.49905 11.2417 10
    endloop
  endfacet
  facet normal -0 0 1
    outer loop
      vertex -0.502324 11.1158 10
      vertex 26.2779 -9.98027 10
      vertex 0.502324 11.1158 10
    endloop
  endfacet
  facet normal 0 0 1
    outer loop
      vertex -26.2779 -9.98027 10
      vertex -0.502324 11.1158 10
      vertex -1.49905 11.2417 10
    endloop
  endfacet
  facet normal 0 0 1
    outer loop
      vertex -23.6528 -0.648935 10
      vertex -1.49905 11.2417 10
      vertex -2.47214 11.4915 10
    endloop
  endfacet
  facet normal 0 0 1
    outer loop
      vertex -23.55 0 10
      vertex -2.47214 11.4915 10
      vertex -3.40623 11.8614 10
    endloop
  endfacet
  facet normal 0 0 1
    outer loop
      vertex -23.55 0 10
      vertex -3.40623 11.8614 10
      vertex -4.28661 12.3454 10
    endloop
  endfacet
  facet normal 0 0 1
    outer loop
      vertex -23.6528 0.648935 10
      vertex -4.28661 12.3454 10
      vertex -5.09939 12.9359 10
    endloop
  endfacet
  facet normal 0 0 1
    outer loop
      vertex -23.6528 0.648935 10
      vertex -8 19.1 10
      vertex -7.93692 20.1027 10
    endloop
  endfacet
  facet normal 0 0 1
    outer loop
      vertex -23.6528 0.648935 10
      vertex -7.93692 18.0973 10
      vertex -8 19.1 10
    endloop
  endfacet
  facet normal 0 0 1
    outer loop
      vertex -23.6528 0.648935 10
      vertex -7.74866 17.1105 10
      vertex -7.93692 18.0973 10
    endloop
  endfacet
  facet normal 0 0 1
    outer loop
      vertex -23.6528 0.648935 10
      vertex -7.43821 16.155 10
      vertex -7.74866 17.1105 10
    endloop
  endfacet
  facet normal 0 0 1
    outer loop
      vertex -23.6528 0.648935 10
      vertex -7.01045 15.246 10
      vertex -7.43821 16.155 10
    endloop
  endfacet
  facet normal 0 0 1
    outer loop
      vertex -23.6528 0.648935 10
      vertex -6.47214 14.3977 10
      vertex -7.01045 15.246 10
    endloop
  endfacet
  facet normal 0 0 1
    outer loop
      vertex -23.6528 0.648935 10
      vertex -5.83175 13.6236 10
      vertex -6.47214 14.3977 10
    endloop
  endfacet
  facet normal 0 0 1
    outer loop
      vertex -23.6528 0.648935 10
      vertex -5.09939 12.9359 10
      vertex -5.83175 13.6236 10
    endloop
  endfacet
  facet normal 0 0 1
    outer loop
      vertex -2.47214 11.4915 10
      vertex -23.55 0 10
      vertex -23.6528 -0.648935 10
    endloop
  endfacet
  facet normal 0 0 1
    outer loop
      vertex -1.49905 11.2417 10
      vertex -23.6528 -0.648935 10
      vertex -26.2779 -9.98027 10
    endloop
  endfacet
  facet normal 0 0 1
    outer loop
      vertex -26.2779 -9.98027 10
      vertex -23.6528 -0.648935 10
      vertex -23.9511 -1.23435 10
    endloop
  endfacet
  facet normal 0 0 1
    outer loop
      vertex -26.2779 -9.98027 10
      vertex -23.9511 -1.23435 10
      vertex -24.4156 -1.69894 10
    endloop
  endfacet
  facet normal 0 0 1
    outer loop
      vertex -26.2779 -9.98027 10
      vertex -24.4156 -1.69894 10
      vertex -25.0011 -1.99722 10
    endloop
  endfacet
  facet normal 0 0 1
    outer loop
      vertex -26.2779 -9.98027 10
      vertex -25.0011 -1.99722 10
      vertex -25.65 -2.1 10
    endloop
  endfacet
  facet normal 0 0 1
    outer loop
      vertex -0.502324 11.1158 10
      vertex -26.2779 -9.98027 10
      vertex 26.2779 -9.98027 10
    endloop
  endfacet
  facet normal 0 0 1
    outer loop
      vertex -27.5238 -9.82287 10
      vertex -25.65 -2.1 10
      vertex -26.2989 -1.99722 10
    endloop
  endfacet
  facet normal 0 0 1
    outer loop
      vertex -29.9078 -9.04827 10
      vertex -26.2989 -1.99722 10
      vertex -26.8843 -1.69894 10
    endloop
  endfacet
  facet normal 0 0 1
    outer loop
      vertex -29.9078 -9.04827 10
      vertex -26.8843 -1.69894 10
      vertex -27.3489 -1.23435 10
    endloop
  endfacet
  facet normal 0 0 1
    outer loop
      vertex -25.65 -2.1 10
      vertex -27.5238 -9.82287 10
      vertex -26.2779 -9.98027 10
    endloop
  endfacet
  facet normal 0 0 1
    outer loop
      vertex -29.9078 -9.04827 10
      vertex -27.3489 -1.23435 10
      vertex -27.6472 -0.648935 10
    endloop
  endfacet
  facet normal 0 0 1
    outer loop
      vertex -35.5711 -1.25333 10
      vertex -27.6472 -0.648935 10
      vertex -27.75 0 10
    endloop
  endfacet
  facet normal 0 0 1
    outer loop
      vertex -26.2989 -1.99722 10
      vertex -28.7402 -9.51056 10
      vertex -27.5238 -9.82287 10
    endloop
  endfacet
  facet normal -0.481754 -0.876307 0
    outer loop
      vertex -31.0083 -8.44328 0
      vertex -29.9078 -9.04827 10
      vertex -31.0083 -8.44328 10
    endloop
  endfacet
  facet normal -0.481754 -0.876307 -0
    outer loop
      vertex -29.9078 -9.04827 10
      vertex -31.0083 -8.44328 0
      vertex -29.9078 -9.04827 0
    endloop
  endfacet
  facet normal -0.684547 -0.728969 0
    outer loop
      vertex -32.9397 -6.84547 0
      vertex -32.0242 -7.70513 10
      vertex -32.9397 -6.84547 10
    endloop
  endfacet
  facet normal -0.684547 -0.728969 -0
    outer loop
      vertex -32.0242 -7.70513 10
      vertex -32.9397 -6.84547 0
      vertex -32.0242 -7.70513 0
    endloop
  endfacet
  facet normal -0.368125 -0.929776 0
    outer loop
      vertex -29.9078 -9.04827 0
      vertex -28.7402 -9.51056 10
      vertex -29.9078 -9.04827 10
    endloop
  endfacet
  facet normal -0.368125 -0.929776 -0
    outer loop
      vertex -28.7402 -9.51056 10
      vertex -29.9078 -9.04827 0
      vertex -28.7402 -9.51056 0
    endloop
  endfacet
  facet normal -0.982287 -0.187383 0
    outer loop
      vertex -35.3358 -2.4869 0
      vertex -35.5711 -1.25333 10
      vertex -35.5711 -1.25333 0
    endloop
  endfacet
  facet normal -0.982287 -0.187383 0
    outer loop
      vertex -35.5711 -1.25333 10
      vertex -35.3358 -2.4869 0
      vertex -35.3358 -2.4869 10
    endloop
  endfacet
  facet normal -0.587785 0.809017 0
    outer loop
      vertex -6.96575 30.0763 0
      vertex -8.28651 29.1167 10
      vertex -6.96575 30.0763 10
    endloop
  endfacet
  facet normal -0.587785 0.809017 0
    outer loop
      vertex -8.28651 29.1167 10
      vertex -6.96575 30.0763 0
      vertex -8.28651 29.1167 0
    endloop
  endfacet
  facet normal -0.684547 0.728969 0
    outer loop
      vertex -32.0242 7.70513 0
      vertex -32.9397 6.84547 10
      vertex -32.0242 7.70513 10
    endloop
  endfacet
  facet normal -0.684547 0.728969 0
    outer loop
      vertex -32.9397 6.84547 10
      vertex -32.0242 7.70513 0
      vertex -32.9397 6.84547 0
    endloop
  endfacet
  facet normal 0.125334 0.992115 -0
    outer loop
      vertex 2.43596 31.8697 0
      vertex 0.816277 32.0743 10
      vertex 2.43596 31.8697 10
    endloop
  endfacet
  facet normal 0.125334 0.992115 0
    outer loop
      vertex 0.816277 32.0743 10
      vertex 2.43596 31.8697 0
      vertex 0.816277 32.0743 0
    endloop
  endfacet
  facet normal 0.982287 0.187383 0
    outer loop
      vertex 35.5711 1.25333 10
      vertex 35.3358 2.4869 0
      vertex 35.3358 2.4869 10
    endloop
  endfacet
  facet normal 0.982287 0.187383 0
    outer loop
      vertex 35.3358 2.4869 0
      vertex 35.5711 1.25333 10
      vertex 35.5711 1.25333 0
    endloop
  endfacet
  facet normal -0.998027 -0.062791 0
    outer loop
      vertex -35.5711 -1.25333 0
      vertex -35.65 0 10
      vertex -35.65 0 0
    endloop
  endfacet
  facet normal -0.998027 -0.062791 0
    outer loop
      vertex -35.65 0 10
      vertex -35.5711 -1.25333 0
      vertex -35.5711 -1.25333 10
    endloop
  endfacet
  facet normal -0.587785 -0.809017 0
    outer loop
      vertex -32.0242 -7.70513 0
      vertex -31.0083 -8.44328 10
      vertex -32.0242 -7.70513 10
    endloop
  endfacet
  facet normal -0.587785 -0.809017 -0
    outer loop
      vertex -31.0083 -8.44328 10
      vertex -32.0242 -7.70513 0
      vertex -31.0083 -8.44328 0
    endloop
  endfacet
  facet normal -0.904827 -0.425779 0
    outer loop
      vertex -34.4131 -4.81754 0
      vertex -34.9478 -3.68124 10
      vertex -34.9478 -3.68124 0
    endloop
  endfacet
  facet normal -0.904827 -0.425779 0
    outer loop
      vertex -34.9478 -3.68124 10
      vertex -34.4131 -4.81754 0
      vertex -34.4131 -4.81754 10
    endloop
  endfacet
  facet normal -0.951057 -0.309016 0
    outer loop
      vertex -34.9478 -3.68124 0
      vertex -35.3358 -2.4869 10
      vertex -35.3358 -2.4869 0
    endloop
  endfacet
  facet normal -0.951057 -0.309016 0
    outer loop
      vertex -35.3358 -2.4869 10
      vertex -34.9478 -3.68124 0
      vertex -34.9478 -3.68124 10
    endloop
  endfacet
  facet normal -0.770513 0.637424 0
    outer loop
      vertex -33.7402 5.87785 0
      vertex -32.9397 6.84547 10
      vertex -32.9397 6.84547 0
    endloop
  endfacet
  facet normal -0.770513 0.637424 0
    outer loop
      vertex -32.9397 6.84547 10
      vertex -33.7402 5.87785 0
      vertex -33.7402 5.87785 10
    endloop
  endfacet
  facet normal -0.904827 0.425779 0
    outer loop
      vertex -34.9478 3.68124 0
      vertex -34.4131 4.81754 10
      vertex -34.4131 4.81754 0
    endloop
  endfacet
  facet normal -0.904827 0.425779 0
    outer loop
      vertex -34.4131 4.81754 10
      vertex -34.9478 3.68124 0
      vertex -34.9478 3.68124 10
    endloop
  endfacet
  facet normal -0.669787 0.742554 0
    outer loop
      vertex -8.28651 29.1167 0
      vertex -32.0242 7.70513 10
      vertex -8.28651 29.1167 10
    endloop
  endfacet
  facet normal -0.669787 0.742554 0
    outer loop
      vertex -32.0242 7.70513 10
      vertex -8.28651 29.1167 0
      vertex -32.0242 7.70513 0
    endloop
  endfacet
  facet normal 0.587785 0.809017 -0
    outer loop
      vertex 8.28651 29.1167 0
      vertex 6.96575 30.0763 10
      vertex 8.28651 29.1167 10
    endloop
  endfacet
  facet normal 0.587785 0.809017 0
    outer loop
      vertex 6.96575 30.0763 10
      vertex 8.28651 29.1167 0
      vertex 6.96575 30.0763 0
    endloop
  endfacet
  facet normal 0.951057 0.309016 0
    outer loop
      vertex 35.3358 2.4869 10
      vertex 34.9478 3.68124 0
      vertex 34.9478 3.68124 10
    endloop
  endfacet
  facet normal 0.951057 0.309016 0
    outer loop
      vertex 34.9478 3.68124 0
      vertex 35.3358 2.4869 10
      vertex 35.3358 2.4869 0
    endloop
  endfacet
  facet normal 0.684547 0.728969 -0
    outer loop
      vertex 32.9397 6.84547 0
      vertex 32.0242 7.70513 10
      vertex 32.9397 6.84547 10
    endloop
  endfacet
  facet normal 0.684547 0.728969 0
    outer loop
      vertex 32.0242 7.70513 10
      vertex 32.9397 6.84547 0
      vertex 32.0242 7.70513 0
    endloop
  endfacet
  facet normal 0.951057 -0.309016 0
    outer loop
      vertex 34.9478 -3.68124 10
      vertex 35.3358 -2.4869 0
      vertex 35.3358 -2.4869 10
    endloop
  endfacet
  facet normal 0.951057 -0.309016 0
    outer loop
      vertex 35.3358 -2.4869 0
      vertex 34.9478 -3.68124 10
      vertex 34.9478 -3.68124 0
    endloop
  endfacet
  facet normal 0.481754 -0.876307 0
    outer loop
      vertex 29.9078 -9.04827 0
      vertex 31.0083 -8.44328 10
      vertex 29.9078 -9.04827 10
    endloop
  endfacet
  facet normal 0.481754 -0.876307 0
    outer loop
      vertex 31.0083 -8.44328 10
      vertex 29.9078 -9.04827 0
      vertex 31.0083 -8.44328 0
    endloop
  endfacet
  facet normal -0.844328 -0.535827 0
    outer loop
      vertex -33.7402 -5.87785 0
      vertex -34.4131 -4.81754 10
      vertex -34.4131 -4.81754 0
    endloop
  endfacet
  facet normal -0.844328 -0.535827 0
    outer loop
      vertex -34.4131 -4.81754 10
      vertex -33.7402 -5.87785 0
      vertex -33.7402 -5.87785 10
    endloop
  endfacet
  facet normal -0.982287 0.187383 0
    outer loop
      vertex -35.5711 1.25333 0
      vertex -35.3358 2.4869 10
      vertex -35.3358 2.4869 0
    endloop
  endfacet
  facet normal -0.982287 0.187383 0
    outer loop
      vertex -35.3358 2.4869 10
      vertex -35.5711 1.25333 0
      vertex -35.5711 1.25333 10
    endloop
  endfacet
  facet normal -0.951057 0.309016 0
    outer loop
      vertex -35.3358 2.4869 0
      vertex -34.9478 3.68124 10
      vertex -34.9478 3.68124 0
    endloop
  endfacet
  facet normal -0.951057 0.309016 0
    outer loop
      vertex -34.9478 3.68124 10
      vertex -35.3358 2.4869 0
      vertex -35.3358 2.4869 10
    endloop
  endfacet
  facet normal -0.844328 0.535827 0
    outer loop
      vertex -34.4131 4.81754 0
      vertex -33.7402 5.87785 10
      vertex -33.7402 5.87785 0
    endloop
  endfacet
  facet normal -0.844328 0.535827 0
    outer loop
      vertex -33.7402 5.87785 10
      vertex -34.4131 4.81754 0
      vertex -34.4131 4.81754 10
    endloop
  endfacet
  facet normal -0.125334 0.992115 0
    outer loop
      vertex -0.816277 32.0743 0
      vertex -2.43596 31.8697 10
      vertex -0.816277 32.0743 10
    endloop
  endfacet
  facet normal -0.125334 0.992115 0
    outer loop
      vertex -2.43596 31.8697 10
      vertex -0.816277 32.0743 0
      vertex -2.43596 31.8697 0
    endloop
  endfacet
  facet normal -0.24869 0.968583 0
    outer loop
      vertex -2.43596 31.8697 0
      vertex -4.01722 31.4637 10
      vertex -2.43596 31.8697 10
    endloop
  endfacet
  facet normal -0.24869 0.968583 0
    outer loop
      vertex -4.01722 31.4637 10
      vertex -2.43596 31.8697 0
      vertex -4.01722 31.4637 0
    endloop
  endfacet
  facet normal -0.481753 0.876307 0
    outer loop
      vertex -5.53513 30.8628 0
      vertex -6.96575 30.0763 10
      vertex -5.53513 30.8628 10
    endloop
  endfacet
  facet normal -0.481753 0.876307 0
    outer loop
      vertex -6.96575 30.0763 10
      vertex -5.53513 30.8628 0
      vertex -6.96575 30.0763 0
    endloop
  endfacet
  facet normal 0.481753 0.876307 -0
    outer loop
      vertex 6.96575 30.0763 0
      vertex 5.53513 30.8628 10
      vertex 6.96575 30.0763 10
    endloop
  endfacet
  facet normal 0.481753 0.876307 0
    outer loop
      vertex 5.53513 30.8628 10
      vertex 6.96575 30.0763 0
      vertex 5.53513 30.8628 0
    endloop
  endfacet
  facet normal 0.998027 -0.062791 0
    outer loop
      vertex 35.5711 -1.25333 10
      vertex 35.65 0 0
      vertex 35.65 0 10
    endloop
  endfacet
  facet normal 0.998027 -0.062791 0
    outer loop
      vertex 35.65 0 0
      vertex 35.5711 -1.25333 10
      vertex 35.5711 -1.25333 0
    endloop
  endfacet
  facet normal 0.998027 0.062791 0
    outer loop
      vertex 35.65 0 10
      vertex 35.5711 1.25333 0
      vertex 35.5711 1.25333 10
    endloop
  endfacet
  facet normal 0.998027 0.062791 0
    outer loop
      vertex 35.5711 1.25333 0
      vertex 35.65 0 10
      vertex 35.65 0 0
    endloop
  endfacet
  facet normal 0.770513 0.637424 0
    outer loop
      vertex 33.7402 5.87785 10
      vertex 32.9397 6.84547 0
      vertex 32.9397 6.84547 10
    endloop
  endfacet
  facet normal 0.770513 0.637424 0
    outer loop
      vertex 32.9397 6.84547 0
      vertex 33.7402 5.87785 10
      vertex 33.7402 5.87785 0
    endloop
  endfacet
  facet normal 0.770513 -0.637424 0
    outer loop
      vertex 32.9397 -6.84547 10
      vertex 33.7402 -5.87785 0
      vertex 33.7402 -5.87785 10
    endloop
  endfacet
  facet normal 0.770513 -0.637424 0
    outer loop
      vertex 33.7402 -5.87785 0
      vertex 32.9397 -6.84547 10
      vertex 32.9397 -6.84547 0
    endloop
  endfacet
  facet normal 0.684547 -0.728969 0
    outer loop
      vertex 32.0242 -7.70513 0
      vertex 32.9397 -6.84547 10
      vertex 32.0242 -7.70513 10
    endloop
  endfacet
  facet normal 0.684547 -0.728969 0
    outer loop
      vertex 32.9397 -6.84547 10
      vertex 32.0242 -7.70513 0
      vertex 32.9397 -6.84547 0
    endloop
  endfacet
  facet normal 0.587785 -0.809017 0
    outer loop
      vertex 31.0083 -8.44328 0
      vertex 32.0242 -7.70513 10
      vertex 31.0083 -8.44328 10
    endloop
  endfacet
  facet normal 0.587785 -0.809017 0
    outer loop
      vertex 32.0242 -7.70513 10
      vertex 31.0083 -8.44328 0
      vertex 32.0242 -7.70513 0
    endloop
  endfacet
  facet normal 0.368125 -0.929776 0
    outer loop
      vertex 28.7402 -9.51056 0
      vertex 29.9078 -9.04827 10
      vertex 28.7402 -9.51056 10
    endloop
  endfacet
  facet normal 0.368125 -0.929776 0
    outer loop
      vertex 29.9078 -9.04827 10
      vertex 28.7402 -9.51056 0
      vertex 29.9078 -9.04827 0
    endloop
  endfacet
  facet normal -0.368124 0.929777 0
    outer loop
      vertex -4.01722 31.4637 0
      vertex -5.53513 30.8628 10
      vertex -4.01722 31.4637 10
    endloop
  endfacet
  facet normal -0.368124 0.929777 0
    outer loop
      vertex -5.53513 30.8628 10
      vertex -4.01722 31.4637 0
      vertex -5.53513 30.8628 0
    endloop
  endfacet
  facet normal 0.24869 0.968583 -0
    outer loop
      vertex 4.01722 31.4637 0
      vertex 2.43596 31.8697 10
      vertex 4.01722 31.4637 10
    endloop
  endfacet
  facet normal 0.24869 0.968583 0
    outer loop
      vertex 2.43596 31.8697 10
      vertex 4.01722 31.4637 0
      vertex 2.43596 31.8697 0
    endloop
  endfacet
  facet normal 0.368124 0.929777 -0
    outer loop
      vertex 5.53513 30.8628 0
      vertex 4.01722 31.4637 10
      vertex 5.53513 30.8628 10
    endloop
  endfacet
  facet normal 0.368124 0.929777 0
    outer loop
      vertex 4.01722 31.4637 10
      vertex 5.53513 30.8628 0
      vertex 4.01722 31.4637 0
    endloop
  endfacet
  facet normal 0.844328 0.535827 0
    outer loop
      vertex 34.4131 4.81754 10
      vertex 33.7402 5.87785 0
      vertex 33.7402 5.87785 10
    endloop
  endfacet
  facet normal 0.844328 0.535827 0
    outer loop
      vertex 33.7402 5.87785 0
      vertex 34.4131 4.81754 10
      vertex 34.4131 4.81754 0
    endloop
  endfacet
  facet normal 0.904827 0.425779 0
    outer loop
      vertex 34.9478 3.68124 10
      vertex 34.4131 4.81754 0
      vertex 34.4131 4.81754 10
    endloop
  endfacet
  facet normal 0.904827 0.425779 0
    outer loop
      vertex 34.4131 4.81754 0
      vertex 34.9478 3.68124 10
      vertex 34.9478 3.68124 0
    endloop
  endfacet
  facet normal 0.904827 -0.425779 0
    outer loop
      vertex 34.4131 -4.81754 10
      vertex 34.9478 -3.68124 0
      vertex 34.9478 -3.68124 10
    endloop
  endfacet
  facet normal 0.904827 -0.425779 0
    outer loop
      vertex 34.9478 -3.68124 0
      vertex 34.4131 -4.81754 10
      vertex 34.4131 -4.81754 0
    endloop
  endfacet
  facet normal 0.844328 -0.535827 0
    outer loop
      vertex 33.7402 -5.87785 10
      vertex 34.4131 -4.81754 0
      vertex 34.4131 -4.81754 10
    endloop
  endfacet
  facet normal 0.844328 -0.535827 0
    outer loop
      vertex 34.4131 -4.81754 0
      vertex 33.7402 -5.87785 10
      vertex 33.7402 -5.87785 0
    endloop
  endfacet
  facet normal 0.24869 -0.968583 0
    outer loop
      vertex 27.5238 -9.82287 0
      vertex 28.7402 -9.51056 10
      vertex 27.5238 -9.82287 10
    endloop
  endfacet
  facet normal 0.24869 -0.968583 0
    outer loop
      vertex 28.7402 -9.51056 10
      vertex 27.5238 -9.82287 0
      vertex 28.7402 -9.51056 0
    endloop
  endfacet
  facet normal 0.125333 -0.992115 0
    outer loop
      vertex 26.2779 -9.98027 0
      vertex 27.5238 -9.82287 10
      vertex 26.2779 -9.98027 10
    endloop
  endfacet
  facet normal 0.125333 -0.992115 0
    outer loop
      vertex 27.5238 -9.82287 10
      vertex 26.2779 -9.98027 0
      vertex 27.5238 -9.82287 0
    endloop
  endfacet
  facet normal -0.453989 -0.891007 0
    outer loop
      vertex -25.0011 1.99722 0
      vertex -24.4156 1.69894 10
      vertex -25.0011 1.99722 10
    endloop
  endfacet
  facet normal -0.453989 -0.891007 -0
    outer loop
      vertex -24.4156 1.69894 10
      vertex -25.0011 1.99722 0
      vertex -24.4156 1.69894 0
    endloop
  endfacet
  facet normal -0.707109 0.707105 0
    outer loop
      vertex -24.4156 -1.69894 0
      vertex -23.9511 -1.23435 10
      vertex -23.9511 -1.23435 0
    endloop
  endfacet
  facet normal -0.707109 0.707105 0
    outer loop
      vertex -23.9511 -1.23435 10
      vertex -24.4156 -1.69894 0
      vertex -24.4156 -1.69894 10
    endloop
  endfacet
  facet normal 0.156435 0.987688 -0
    outer loop
      vertex -25.65 -2.1 0
      vertex -26.2989 -1.99722 10
      vertex -25.65 -2.1 10
    endloop
  endfacet
  facet normal 0.156435 0.987688 0
    outer loop
      vertex -26.2989 -1.99722 10
      vertex -25.65 -2.1 0
      vertex -26.2989 -1.99722 0
    endloop
  endfacet
  facet normal -0.707109 -0.707105 0
    outer loop
      vertex -23.9511 1.23435 0
      vertex -24.4156 1.69894 10
      vertex -24.4156 1.69894 0
    endloop
  endfacet
  facet normal -0.707109 -0.707105 0
    outer loop
      vertex -24.4156 1.69894 10
      vertex -23.9511 1.23435 0
      vertex -23.9511 1.23435 10
    endloop
  endfacet
  facet normal -0.891005 -0.453993 0
    outer loop
      vertex -23.6528 0.648935 0
      vertex -23.9511 1.23435 10
      vertex -23.9511 1.23435 0
    endloop
  endfacet
  facet normal -0.891005 -0.453993 0
    outer loop
      vertex -23.9511 1.23435 10
      vertex -23.6528 0.648935 0
      vertex -23.6528 0.648935 10
    endloop
  endfacet
  facet normal -0.156435 -0.987688 0
    outer loop
      vertex -25.65 2.1 0
      vertex -25.0011 1.99722 10
      vertex -25.65 2.1 10
    endloop
  endfacet
  facet normal -0.156435 -0.987688 -0
    outer loop
      vertex -25.0011 1.99722 10
      vertex -25.65 2.1 0
      vertex -25.0011 1.99722 0
    endloop
  endfacet
  facet normal 0.156435 -0.987688 0
    outer loop
      vertex -26.2989 1.99722 0
      vertex -25.65 2.1 10
      vertex -26.2989 1.99722 10
    endloop
  endfacet
  facet normal 0.156435 -0.987688 0
    outer loop
      vertex -25.65 2.1 10
      vertex -26.2989 1.99722 0
      vertex -25.65 2.1 0
    endloop
  endfacet
  facet normal 0.453989 -0.891007 0
    outer loop
      vertex -26.8843 1.69894 0
      vertex -26.2989 1.99722 10
      vertex -26.8843 1.69894 10
    endloop
  endfacet
  facet normal 0.453989 -0.891007 0
    outer loop
      vertex -26.2989 1.99722 10
      vertex -26.8843 1.69894 0
      vertex -26.2989 1.99722 0
    endloop
  endfacet
  facet normal -0.987688 0.156435 0
    outer loop
      vertex -23.6528 -0.648935 0
      vertex -23.55 0 10
      vertex -23.55 0 0
    endloop
  endfacet
  facet normal -0.987688 0.156435 0
    outer loop
      vertex -23.55 0 10
      vertex -23.6528 -0.648935 0
      vertex -23.6528 -0.648935 10
    endloop
  endfacet
  facet normal 0.891007 0.45399 0
    outer loop
      vertex -27.3489 -1.23435 10
      vertex -27.6472 -0.648935 0
      vertex -27.6472 -0.648935 10
    endloop
  endfacet
  facet normal 0.891007 0.45399 0
    outer loop
      vertex -27.6472 -0.648935 0
      vertex -27.3489 -1.23435 10
      vertex -27.3489 -1.23435 0
    endloop
  endfacet
  facet normal 0.453989 0.891007 -0
    outer loop
      vertex -26.2989 -1.99722 0
      vertex -26.8843 -1.69894 10
      vertex -26.2989 -1.99722 10
    endloop
  endfacet
  facet normal 0.453989 0.891007 0
    outer loop
      vertex -26.8843 -1.69894 10
      vertex -26.2989 -1.99722 0
      vertex -26.8843 -1.69894 0
    endloop
  endfacet
  facet normal 0.707109 0.707105 0
    outer loop
      vertex -26.8843 -1.69894 10
      vertex -27.3489 -1.23435 0
      vertex -27.3489 -1.23435 10
    endloop
  endfacet
  facet normal 0.707109 0.707105 0
    outer loop
      vertex -27.3489 -1.23435 0
      vertex -26.8843 -1.69894 10
      vertex -26.8843 -1.69894 0
    endloop
  endfacet
  facet normal 0.987688 -0.156437 0
    outer loop
      vertex -27.75 0 10
      vertex -27.6472 0.648935 0
      vertex -27.6472 0.648935 10
    endloop
  endfacet
  facet normal 0.987688 -0.156437 0
    outer loop
      vertex -27.6472 0.648935 0
      vertex -27.75 0 10
      vertex -27.75 0 0
    endloop
  endfacet
  facet normal 0.707109 -0.707105 0
    outer loop
      vertex -27.3489 1.23435 10
      vertex -26.8843 1.69894 0
      vertex -26.8843 1.69894 10
    endloop
  endfacet
  facet normal 0.707109 -0.707105 0
    outer loop
      vertex -26.8843 1.69894 0
      vertex -27.3489 1.23435 10
      vertex -27.3489 1.23435 0
    endloop
  endfacet
  facet normal -0.987688 -0.156435 0
    outer loop
      vertex -23.55 0 0
      vertex -23.6528 0.648935 10
      vertex -23.6528 0.648935 0
    endloop
  endfacet
  facet normal -0.987688 -0.156435 0
    outer loop
      vertex -23.6528 0.648935 10
      vertex -23.55 0 0
      vertex -23.55 0 10
    endloop
  endfacet
  facet normal -0.156435 0.987688 0
    outer loop
      vertex -25.0011 -1.99722 0
      vertex -25.65 -2.1 10
      vertex -25.0011 -1.99722 10
    endloop
  endfacet
  facet normal -0.156435 0.987688 0
    outer loop
      vertex -25.65 -2.1 10
      vertex -25.0011 -1.99722 0
      vertex -25.65 -2.1 0
    endloop
  endfacet
  facet normal 0.987688 0.156437 0
    outer loop
      vertex -27.6472 -0.648935 10
      vertex -27.75 0 0
      vertex -27.75 0 10
    endloop
  endfacet
  facet normal 0.987688 0.156437 0
    outer loop
      vertex -27.75 0 0
      vertex -27.6472 -0.648935 10
      vertex -27.6472 -0.648935 0
    endloop
  endfacet
  facet normal 0.891007 -0.45399 0
    outer loop
      vertex -27.6472 0.648935 10
      vertex -27.3489 1.23435 0
      vertex -27.3489 1.23435 10
    endloop
  endfacet
  facet normal 0.891007 -0.45399 0
    outer loop
      vertex -27.3489 1.23435 0
      vertex -27.6472 0.648935 10
      vertex -27.6472 0.648935 0
    endloop
  endfacet
  facet normal -0.453989 0.891007 0
    outer loop
      vertex -24.4156 -1.69894 0
      vertex -25.0011 -1.99722 10
      vertex -24.4156 -1.69894 10
    endloop
  endfacet
  facet normal -0.453989 0.891007 0
    outer loop
      vertex -25.0011 -1.99722 10
      vertex -24.4156 -1.69894 0
      vertex -25.0011 -1.99722 0
    endloop
  endfacet
  facet normal -0.891005 0.453993 0
    outer loop
      vertex -23.9511 -1.23435 0
      vertex -23.6528 -0.648935 10
      vertex -23.6528 -0.648935 0
    endloop
  endfacet
  facet normal -0.891005 0.453993 0
    outer loop
      vertex -23.6528 -0.648935 10
      vertex -23.9511 -1.23435 0
      vertex -23.9511 -1.23435 10
    endloop
  endfacet
  facet normal -0.987688 -0.156437 0
    outer loop
      vertex 27.75 0 0
      vertex 27.6472 0.648935 10
      vertex 27.6472 0.648935 0
    endloop
  endfacet
  facet normal -0.987688 -0.156437 0
    outer loop
      vertex 27.6472 0.648935 10
      vertex 27.75 0 0
      vertex 27.75 0 10
    endloop
  endfacet
  facet normal 0.891005 0.453993 0
    outer loop
      vertex 23.9511 -1.23435 10
      vertex 23.6528 -0.648935 0
      vertex 23.6528 -0.648935 10
    endloop
  endfacet
  facet normal 0.891005 0.453993 0
    outer loop
      vertex 23.6528 -0.648935 0
      vertex 23.9511 -1.23435 10
      vertex 23.9511 -1.23435 0
    endloop
  endfacet
  facet normal 0.156435 -0.987688 0
    outer loop
      vertex 25.0011 1.99722 0
      vertex 25.65 2.1 10
      vertex 25.0011 1.99722 10
    endloop
  endfacet
  facet normal 0.156435 -0.987688 0
    outer loop
      vertex 25.65 2.1 10
      vertex 25.0011 1.99722 0
      vertex 25.65 2.1 0
    endloop
  endfacet
  facet normal 0.987688 0.156435 0
    outer loop
      vertex 23.6528 -0.648935 10
      vertex 23.55 0 0
      vertex 23.55 0 10
    endloop
  endfacet
  facet normal 0.987688 0.156435 0
    outer loop
      vertex 23.55 0 0
      vertex 23.6528 -0.648935 10
      vertex 23.6528 -0.648935 0
    endloop
  endfacet
  facet normal -0.707109 -0.707105 0
    outer loop
      vertex 27.3489 1.23435 0
      vertex 26.8843 1.69894 10
      vertex 26.8843 1.69894 0
    endloop
  endfacet
  facet normal -0.707109 -0.707105 0
    outer loop
      vertex 26.8843 1.69894 10
      vertex 27.3489 1.23435 0
      vertex 27.3489 1.23435 10
    endloop
  endfacet
  facet normal -0.891007 -0.45399 0
    outer loop
      vertex 27.6472 0.648935 0
      vertex 27.3489 1.23435 10
      vertex 27.3489 1.23435 0
    endloop
  endfacet
  facet normal -0.891007 -0.45399 0
    outer loop
      vertex 27.3489 1.23435 10
      vertex 27.6472 0.648935 0
      vertex 27.6472 0.648935 10
    endloop
  endfacet
  facet normal -0.156435 -0.987688 0
    outer loop
      vertex 25.65 2.1 0
      vertex 26.2989 1.99722 10
      vertex 25.65 2.1 10
    endloop
  endfacet
  facet normal -0.156435 -0.987688 -0
    outer loop
      vertex 26.2989 1.99722 10
      vertex 25.65 2.1 0
      vertex 26.2989 1.99722 0
    endloop
  endfacet
  facet normal 0.453989 -0.891007 0
    outer loop
      vertex 24.4156 1.69894 0
      vertex 25.0011 1.99722 10
      vertex 24.4156 1.69894 10
    endloop
  endfacet
  facet normal 0.453989 -0.891007 0
    outer loop
      vertex 25.0011 1.99722 10
      vertex 24.4156 1.69894 0
      vertex 25.0011 1.99722 0
    endloop
  endfacet
  facet normal -0.453989 -0.891007 0
    outer loop
      vertex 26.2989 1.99722 0
      vertex 26.8843 1.69894 10
      vertex 26.2989 1.99722 10
    endloop
  endfacet
  facet normal -0.453989 -0.891007 -0
    outer loop
      vertex 26.8843 1.69894 10
      vertex 26.2989 1.99722 0
      vertex 26.8843 1.69894 0
    endloop
  endfacet
  facet normal 0.987688 -0.156435 0
    outer loop
      vertex 23.55 0 10
      vertex 23.6528 0.648935 0
      vertex 23.6528 0.648935 10
    endloop
  endfacet
  facet normal 0.987688 -0.156435 0
    outer loop
      vertex 23.6528 0.648935 0
      vertex 23.55 0 10
      vertex 23.55 0 0
    endloop
  endfacet
  facet normal 0.707109 -0.707105 0
    outer loop
      vertex 23.9511 1.23435 10
      vertex 24.4156 1.69894 0
      vertex 24.4156 1.69894 10
    endloop
  endfacet
  facet normal 0.707109 -0.707105 0
    outer loop
      vertex 24.4156 1.69894 0
      vertex 23.9511 1.23435 10
      vertex 23.9511 1.23435 0
    endloop
  endfacet
  facet normal 0.891005 -0.453993 0
    outer loop
      vertex 23.6528 0.648935 10
      vertex 23.9511 1.23435 0
      vertex 23.9511 1.23435 10
    endloop
  endfacet
  facet normal 0.891005 -0.453993 0
    outer loop
      vertex 23.9511 1.23435 0
      vertex 23.6528 0.648935 10
      vertex 23.6528 0.648935 0
    endloop
  endfacet
  facet normal -0.891007 0.45399 0
    outer loop
      vertex 27.3489 -1.23435 0
      vertex 27.6472 -0.648935 10
      vertex 27.6472 -0.648935 0
    endloop
  endfacet
  facet normal -0.891007 0.45399 0
    outer loop
      vertex 27.6472 -0.648935 10
      vertex 27.3489 -1.23435 0
      vertex 27.3489 -1.23435 10
    endloop
  endfacet
  facet normal 0.707109 0.707105 0
    outer loop
      vertex 24.4156 -1.69894 10
      vertex 23.9511 -1.23435 0
      vertex 23.9511 -1.23435 10
    endloop
  endfacet
  facet normal 0.707109 0.707105 0
    outer loop
      vertex 23.9511 -1.23435 0
      vertex 24.4156 -1.69894 10
      vertex 24.4156 -1.69894 0
    endloop
  endfacet
  facet normal -0.453989 0.891007 0
    outer loop
      vertex 26.8843 -1.69894 0
      vertex 26.2989 -1.99722 10
      vertex 26.8843 -1.69894 10
    endloop
  endfacet
  facet normal -0.453989 0.891007 0
    outer loop
      vertex 26.2989 -1.99722 10
      vertex 26.8843 -1.69894 0
      vertex 26.2989 -1.99722 0
    endloop
  endfacet
  facet normal -0.707109 0.707105 0
    outer loop
      vertex 26.8843 -1.69894 0
      vertex 27.3489 -1.23435 10
      vertex 27.3489 -1.23435 0
    endloop
  endfacet
  facet normal -0.707109 0.707105 0
    outer loop
      vertex 27.3489 -1.23435 10
      vertex 26.8843 -1.69894 0
      vertex 26.8843 -1.69894 10
    endloop
  endfacet
  facet normal -0.987688 0.156437 0
    outer loop
      vertex 27.6472 -0.648935 0
      vertex 27.75 0 10
      vertex 27.75 0 0
    endloop
  endfacet
  facet normal -0.987688 0.156437 0
    outer loop
      vertex 27.75 0 10
      vertex 27.6472 -0.648935 0
      vertex 27.6472 -0.648935 10
    endloop
  endfacet
  facet normal -0.156435 0.987688 0
    outer loop
      vertex 26.2989 -1.99722 0
      vertex 25.65 -2.1 10
      vertex 26.2989 -1.99722 10
    endloop
  endfacet
  facet normal -0.156435 0.987688 0
    outer loop
      vertex 25.65 -2.1 10
      vertex 26.2989 -1.99722 0
      vertex 25.65 -2.1 0
    endloop
  endfacet
  facet normal 0.156435 0.987688 -0
    outer loop
      vertex 25.65 -2.1 0
      vertex 25.0011 -1.99722 10
      vertex 25.65 -2.1 10
    endloop
  endfacet
  facet normal 0.156435 0.987688 0
    outer loop
      vertex 25.0011 -1.99722 10
      vertex 25.65 -2.1 0
      vertex 25.0011 -1.99722 0
    endloop
  endfacet
  facet normal 0.453989 0.891007 -0
    outer loop
      vertex 25.0011 -1.99722 0
      vertex 24.4156 -1.69894 10
      vertex 25.0011 -1.99722 10
    endloop
  endfacet
  facet normal 0.453989 0.891007 0
    outer loop
      vertex 24.4156 -1.69894 10
      vertex 25.0011 -1.99722 0
      vertex 24.4156 -1.69894 0
    endloop
  endfacet
  facet normal -0.904827 -0.425779 0
    outer loop
      vertex 7.43821 22.045 0
      vertex 7.01045 22.954 10
      vertex 7.01045 22.954 0
    endloop
  endfacet
  facet normal -0.904827 -0.425779 0
    outer loop
      vertex 7.01045 22.954 10
      vertex 7.43821 22.045 0
      vertex 7.43821 22.045 10
    endloop
  endfacet
  facet normal 0.951056 -0.309017 0
    outer loop
      vertex -7.74866 21.0895 10
      vertex -7.43821 22.045 0
      vertex -7.43821 22.045 10
    endloop
  endfacet
  facet normal 0.951056 -0.309017 0
    outer loop
      vertex -7.43821 22.045 0
      vertex -7.74866 21.0895 10
      vertex -7.74866 21.0895 0
    endloop
  endfacet
  facet normal -0.844327 -0.535828 0
    outer loop
      vertex 7.01045 22.954 0
      vertex 6.47214 23.8023 10
      vertex 6.47214 23.8023 0
    endloop
  endfacet
  facet normal -0.844327 -0.535828 0
    outer loop
      vertex 6.47214 23.8023 10
      vertex 7.01045 22.954 0
      vertex 7.01045 22.954 10
    endloop
  endfacet
  facet normal -0.368124 -0.929777 0
    outer loop
      vertex 2.47214 26.7085 0
      vertex 3.40623 26.3386 10
      vertex 2.47214 26.7085 10
    endloop
  endfacet
  facet normal -0.368124 -0.929777 -0
    outer loop
      vertex 3.40623 26.3386 10
      vertex 2.47214 26.7085 0
      vertex 3.40623 26.3386 0
    endloop
  endfacet
  facet normal 0.368124 -0.929777 0
    outer loop
      vertex -3.40623 26.3386 0
      vertex -2.47214 26.7085 10
      vertex -3.40623 26.3386 10
    endloop
  endfacet
  facet normal 0.368124 -0.929777 0
    outer loop
      vertex -2.47214 26.7085 10
      vertex -3.40623 26.3386 0
      vertex -2.47214 26.7085 0
    endloop
  endfacet
  facet normal 0.904827 -0.425779 0
    outer loop
      vertex -7.43821 22.045 10
      vertex -7.01045 22.954 0
      vertex -7.01045 22.954 10
    endloop
  endfacet
  facet normal 0.904827 -0.425779 0
    outer loop
      vertex -7.01045 22.954 0
      vertex -7.43821 22.045 10
      vertex -7.43821 22.045 0
    endloop
  endfacet
  facet normal -0.982287 0.187382 0
    outer loop
      vertex 7.74866 17.1105 0
      vertex 7.93692 18.0973 10
      vertex 7.93692 18.0973 0
    endloop
  endfacet
  facet normal -0.982287 0.187382 0
    outer loop
      vertex 7.93692 18.0973 10
      vertex 7.74866 17.1105 0
      vertex 7.74866 17.1105 10
    endloop
  endfacet
  facet normal -0.684548 -0.728968 0
    outer loop
      vertex 5.09939 25.2641 0
      vertex 5.83175 24.5764 10
      vertex 5.09939 25.2641 10
    endloop
  endfacet
  facet normal -0.684548 -0.728968 -0
    outer loop
      vertex 5.83175 24.5764 10
      vertex 5.09939 25.2641 0
      vertex 5.83175 24.5764 0
    endloop
  endfacet
  facet normal -0.125333 -0.992115 0
    outer loop
      vertex 0.502324 27.0842 0
      vertex 1.49905 26.9583 10
      vertex 0.502324 27.0842 10
    endloop
  endfacet
  facet normal -0.125333 -0.992115 -0
    outer loop
      vertex 1.49905 26.9583 10
      vertex 0.502324 27.0842 0
      vertex 1.49905 26.9583 0
    endloop
  endfacet
  facet normal -0.481754 -0.876306 0
    outer loop
      vertex 3.40623 26.3386 0
      vertex 4.28661 25.8546 10
      vertex 3.40623 26.3386 10
    endloop
  endfacet
  facet normal -0.481754 -0.876306 -0
    outer loop
      vertex 4.28661 25.8546 10
      vertex 3.40623 26.3386 0
      vertex 4.28661 25.8546 0
    endloop
  endfacet
  facet normal 0.982287 -0.187381 0
    outer loop
      vertex -7.93692 20.1027 10
      vertex -7.74866 21.0895 0
      vertex -7.74866 21.0895 10
    endloop
  endfacet
  facet normal 0.982287 -0.187381 0
    outer loop
      vertex -7.74866 21.0895 0
      vertex -7.93692 20.1027 10
      vertex -7.93692 20.1027 0
    endloop
  endfacet
  facet normal 0.770514 -0.637423 0
    outer loop
      vertex -6.47214 23.8023 10
      vertex -5.83175 24.5764 0
      vertex -5.83175 24.5764 10
    endloop
  endfacet
  facet normal 0.770514 -0.637423 0
    outer loop
      vertex -5.83175 24.5764 0
      vertex -6.47214 23.8023 10
      vertex -6.47214 23.8023 0
    endloop
  endfacet
  facet normal 0.125333 -0.992115 0
    outer loop
      vertex -1.49905 26.9583 0
      vertex -0.502324 27.0842 10
      vertex -1.49905 26.9583 10
    endloop
  endfacet
  facet normal 0.125333 -0.992115 0
    outer loop
      vertex -0.502324 27.0842 10
      vertex -1.49905 26.9583 0
      vertex -0.502324 27.0842 0
    endloop
  endfacet
  facet normal 0.684548 -0.728968 0
    outer loop
      vertex -5.83175 24.5764 0
      vertex -5.09939 25.2641 10
      vertex -5.83175 24.5764 10
    endloop
  endfacet
  facet normal 0.684548 -0.728968 0
    outer loop
      vertex -5.09939 25.2641 10
      vertex -5.83175 24.5764 0
      vertex -5.09939 25.2641 0
    endloop
  endfacet
  facet normal -0.998027 -0.0627908 0
    outer loop
      vertex 8 19.1 0
      vertex 7.93692 20.1027 10
      vertex 7.93692 20.1027 0
    endloop
  endfacet
  facet normal -0.998027 -0.0627908 0
    outer loop
      vertex 7.93692 20.1027 10
      vertex 8 19.1 0
      vertex 8 19.1 10
    endloop
  endfacet
  facet normal 0.684547 0.728969 -0
    outer loop
      vertex -5.09939 12.9359 0
      vertex -5.83175 13.6236 10
      vertex -5.09939 12.9359 10
    endloop
  endfacet
  facet normal 0.684547 0.728969 0
    outer loop
      vertex -5.83175 13.6236 10
      vertex -5.09939 12.9359 0
      vertex -5.83175 13.6236 0
    endloop
  endfacet
  facet normal 0.904827 0.425779 0
    outer loop
      vertex -7.01045 15.246 10
      vertex -7.43821 16.155 0
      vertex -7.43821 16.155 10
    endloop
  endfacet
  facet normal 0.904827 0.425779 0
    outer loop
      vertex -7.43821 16.155 0
      vertex -7.01045 15.246 10
      vertex -7.01045 15.246 0
    endloop
  endfacet
  facet normal -0.481753 0.876307 0
    outer loop
      vertex 4.28661 12.3454 0
      vertex 3.40623 11.8614 10
      vertex 4.28661 12.3454 10
    endloop
  endfacet
  facet normal -0.481753 0.876307 0
    outer loop
      vertex 3.40623 11.8614 10
      vertex 4.28661 12.3454 0
      vertex 3.40623 11.8614 0
    endloop
  endfacet
  facet normal -0.982287 -0.187381 0
    outer loop
      vertex 7.93692 20.1027 0
      vertex 7.74866 21.0895 10
      vertex 7.74866 21.0895 0
    endloop
  endfacet
  facet normal -0.982287 -0.187381 0
    outer loop
      vertex 7.74866 21.0895 10
      vertex 7.93692 20.1027 0
      vertex 7.93692 20.1027 10
    endloop
  endfacet
  facet normal -0.951056 -0.309017 0
    outer loop
      vertex 7.74866 21.0895 0
      vertex 7.43821 22.045 10
      vertex 7.43821 22.045 0
    endloop
  endfacet
  facet normal -0.951056 -0.309017 0
    outer loop
      vertex 7.43821 22.045 10
      vertex 7.74866 21.0895 0
      vertex 7.74866 21.0895 10
    endloop
  endfacet
  facet normal -0.770514 -0.637423 0
    outer loop
      vertex 6.47214 23.8023 0
      vertex 5.83175 24.5764 10
      vertex 5.83175 24.5764 0
    endloop
  endfacet
  facet normal -0.770514 -0.637423 0
    outer loop
      vertex 5.83175 24.5764 10
      vertex 6.47214 23.8023 0
      vertex 6.47214 23.8023 10
    endloop
  endfacet
  facet normal 0 -1 0
    outer loop
      vertex -0.502324 27.0842 0
      vertex 0.502324 27.0842 10
      vertex -0.502324 27.0842 10
    endloop
  endfacet
  facet normal 0 -1 -0
    outer loop
      vertex 0.502324 27.0842 10
      vertex -0.502324 27.0842 0
      vertex 0.502324 27.0842 0
    endloop
  endfacet
  facet normal -0.248691 -0.968583 0
    outer loop
      vertex 1.49905 26.9583 0
      vertex 2.47214 26.7085 10
      vertex 1.49905 26.9583 10
    endloop
  endfacet
  facet normal -0.248691 -0.968583 -0
    outer loop
      vertex 2.47214 26.7085 10
      vertex 1.49905 26.9583 0
      vertex 2.47214 26.7085 0
    endloop
  endfacet
  facet normal -0.587784 -0.809018 0
    outer loop
      vertex 4.28661 25.8546 0
      vertex 5.09939 25.2641 10
      vertex 4.28661 25.8546 10
    endloop
  endfacet
  facet normal -0.587784 -0.809018 -0
    outer loop
      vertex 5.09939 25.2641 10
      vertex 4.28661 25.8546 0
      vertex 5.09939 25.2641 0
    endloop
  endfacet
  facet normal 0.998027 -0.0627908 0
    outer loop
      vertex -8 19.1 10
      vertex -7.93692 20.1027 0
      vertex -7.93692 20.1027 10
    endloop
  endfacet
  facet normal 0.998027 -0.0627908 0
    outer loop
      vertex -7.93692 20.1027 0
      vertex -8 19.1 10
      vertex -8 19.1 0
    endloop
  endfacet
  facet normal 0.844327 -0.535828 0
    outer loop
      vertex -7.01045 22.954 10
      vertex -6.47214 23.8023 0
      vertex -6.47214 23.8023 10
    endloop
  endfacet
  facet normal 0.844327 -0.535828 0
    outer loop
      vertex -6.47214 23.8023 0
      vertex -7.01045 22.954 10
      vertex -7.01045 22.954 0
    endloop
  endfacet
  facet normal 0.248691 -0.968583 0
    outer loop
      vertex -2.47214 26.7085 0
      vertex -1.49905 26.9583 10
      vertex -2.47214 26.7085 10
    endloop
  endfacet
  facet normal 0.248691 -0.968583 0
    outer loop
      vertex -1.49905 26.9583 10
      vertex -2.47214 26.7085 0
      vertex -1.49905 26.9583 0
    endloop
  endfacet
  facet normal 0.587784 -0.809018 0
    outer loop
      vertex -5.09939 25.2641 0
      vertex -4.28661 25.8546 10
      vertex -5.09939 25.2641 10
    endloop
  endfacet
  facet normal 0.587784 -0.809018 0
    outer loop
      vertex -4.28661 25.8546 10
      vertex -5.09939 25.2641 0
      vertex -4.28661 25.8546 0
    endloop
  endfacet
  facet normal 0.481754 -0.876306 0
    outer loop
      vertex -4.28661 25.8546 0
      vertex -3.40623 26.3386 10
      vertex -4.28661 25.8546 10
    endloop
  endfacet
  facet normal 0.481754 -0.876306 0
    outer loop
      vertex -3.40623 26.3386 10
      vertex -4.28661 25.8546 0
      vertex -3.40623 26.3386 0
    endloop
  endfacet
  facet normal -0.998027 0.0627909 0
    outer loop
      vertex 7.93692 18.0973 0
      vertex 8 19.1 10
      vertex 8 19.1 0
    endloop
  endfacet
  facet normal -0.998027 0.0627909 0
    outer loop
      vertex 8 19.1 10
      vertex 7.93692 18.0973 0
      vertex 7.93692 18.0973 10
    endloop
  endfacet
  facet normal -0.770513 0.637424 0
    outer loop
      vertex 5.83175 13.6236 0
      vertex 6.47214 14.3977 10
      vertex 6.47214 14.3977 0
    endloop
  endfacet
  facet normal -0.770513 0.637424 0
    outer loop
      vertex 6.47214 14.3977 10
      vertex 5.83175 13.6236 0
      vertex 5.83175 13.6236 10
    endloop
  endfacet
  facet normal 0.844328 0.535827 0
    outer loop
      vertex -6.47214 14.3977 10
      vertex -7.01045 15.246 0
      vertex -7.01045 15.246 10
    endloop
  endfacet
  facet normal 0.844328 0.535827 0
    outer loop
      vertex -7.01045 15.246 0
      vertex -6.47214 14.3977 10
      vertex -6.47214 14.3977 0
    endloop
  endfacet
  facet normal -0.125333 0.992115 0
    outer loop
      vertex 1.49905 11.2417 0
      vertex 0.502324 11.1158 10
      vertex 1.49905 11.2417 10
    endloop
  endfacet
  facet normal -0.125333 0.992115 0
    outer loop
      vertex 0.502324 11.1158 10
      vertex 1.49905 11.2417 0
      vertex 0.502324 11.1158 0
    endloop
  endfacet
  facet normal -0.587786 0.809017 0
    outer loop
      vertex 5.09939 12.9359 0
      vertex 4.28661 12.3454 10
      vertex 5.09939 12.9359 10
    endloop
  endfacet
  facet normal -0.587786 0.809017 0
    outer loop
      vertex 4.28661 12.3454 10
      vertex 5.09939 12.9359 0
      vertex 4.28661 12.3454 0
    endloop
  endfacet
  facet normal -0.904827 0.425779 0
    outer loop
      vertex 7.01045 15.246 0
      vertex 7.43821 16.155 10
      vertex 7.43821 16.155 0
    endloop
  endfacet
  facet normal -0.904827 0.425779 0
    outer loop
      vertex 7.43821 16.155 10
      vertex 7.01045 15.246 0
      vertex 7.01045 15.246 10
    endloop
  endfacet
  facet normal -0.951057 0.309017 0
    outer loop
      vertex 7.43821 16.155 0
      vertex 7.74866 17.1105 10
      vertex 7.74866 17.1105 0
    endloop
  endfacet
  facet normal -0.951057 0.309017 0
    outer loop
      vertex 7.74866 17.1105 10
      vertex 7.43821 16.155 0
      vertex 7.43821 16.155 10
    endloop
  endfacet
  facet normal -0.844328 0.535827 0
    outer loop
      vertex 6.47214 14.3977 0
      vertex 7.01045 15.246 10
      vertex 7.01045 15.246 0
    endloop
  endfacet
  facet normal -0.844328 0.535827 0
    outer loop
      vertex 7.01045 15.246 10
      vertex 6.47214 14.3977 0
      vertex 6.47214 14.3977 10
    endloop
  endfacet
  facet normal 0.587786 0.809017 -0
    outer loop
      vertex -4.28661 12.3454 0
      vertex -5.09939 12.9359 10
      vertex -4.28661 12.3454 10
    endloop
  endfacet
  facet normal 0.587786 0.809017 0
    outer loop
      vertex -5.09939 12.9359 10
      vertex -4.28661 12.3454 0
      vertex -5.09939 12.9359 0
    endloop
  endfacet
  facet normal 0.368125 0.929776 -0
    outer loop
      vertex -2.47214 11.4915 0
      vertex -3.40623 11.8614 10
      vertex -2.47214 11.4915 10
    endloop
  endfacet
  facet normal 0.368125 0.929776 0
    outer loop
      vertex -3.40623 11.8614 10
      vertex -2.47214 11.4915 0
      vertex -3.40623 11.8614 0
    endloop
  endfacet
  facet normal 0.24869 0.968583 -0
    outer loop
      vertex -1.49905 11.2417 0
      vertex -2.47214 11.4915 10
      vertex -1.49905 11.2417 10
    endloop
  endfacet
  facet normal 0.24869 0.968583 0
    outer loop
      vertex -2.47214 11.4915 10
      vertex -1.49905 11.2417 0
      vertex -2.47214 11.4915 0
    endloop
  endfacet
  facet normal 0.998027 0.0627909 0
    outer loop
      vertex -7.93692 18.0973 10
      vertex -8 19.1 0
      vertex -8 19.1 10
    endloop
  endfacet
  facet normal 0.998027 0.0627909 0
    outer loop
      vertex -8 19.1 0
      vertex -7.93692 18.0973 10
      vertex -7.93692 18.0973 0
    endloop
  endfacet
  facet normal 0.951057 0.309017 0
    outer loop
      vertex -7.43821 16.155 10
      vertex -7.74866 17.1105 0
      vertex -7.74866 17.1105 10
    endloop
  endfacet
  facet normal 0.951057 0.309017 0
    outer loop
      vertex -7.74866 17.1105 0
      vertex -7.43821 16.155 10
      vertex -7.43821 16.155 0
    endloop
  endfacet
  facet normal 0.770513 0.637424 0
    outer loop
      vertex -5.83175 13.6236 10
      vertex -6.47214 14.3977 0
      vertex -6.47214 14.3977 10
    endloop
  endfacet
  facet normal 0.770513 0.637424 0
    outer loop
      vertex -6.47214 14.3977 0
      vertex -5.83175 13.6236 10
      vertex -5.83175 13.6236 0
    endloop
  endfacet
  facet normal -0.368125 0.929776 0
    outer loop
      vertex 3.40623 11.8614 0
      vertex 2.47214 11.4915 10
      vertex 3.40623 11.8614 10
    endloop
  endfacet
  facet normal -0.368125 0.929776 0
    outer loop
      vertex 2.47214 11.4915 10
      vertex 3.40623 11.8614 0
      vertex 2.47214 11.4915 0
    endloop
  endfacet
  facet normal -0.24869 0.968583 0
    outer loop
      vertex 2.47214 11.4915 0
      vertex 1.49905 11.2417 10
      vertex 2.47214 11.4915 10
    endloop
  endfacet
  facet normal -0.24869 0.968583 0
    outer loop
      vertex 1.49905 11.2417 10
      vertex 2.47214 11.4915 0
      vertex 1.49905 11.2417 0
    endloop
  endfacet
  facet normal -0.684547 0.728969 0
    outer loop
      vertex 5.83175 13.6236 0
      vertex 5.09939 12.9359 10
      vertex 5.83175 13.6236 10
    endloop
  endfacet
  facet normal -0.684547 0.728969 0
    outer loop
      vertex 5.09939 12.9359 10
      vertex 5.83175 13.6236 0
      vertex 5.09939 12.9359 0
    endloop
  endfacet
  facet normal 0.125333 0.992115 -0
    outer loop
      vertex -0.502324 11.1158 0
      vertex -1.49905 11.2417 10
      vertex -0.502324 11.1158 10
    endloop
  endfacet
  facet normal 0.125333 0.992115 0
    outer loop
      vertex -1.49905 11.2417 10
      vertex -0.502324 11.1158 0
      vertex -1.49905 11.2417 0
    endloop
  endfacet
  facet normal 0 1 -0
    outer loop
      vertex 0.502324 11.1158 0
      vertex -0.502324 11.1158 10
      vertex 0.502324 11.1158 10
    endloop
  endfacet
  facet normal 0 1 0
    outer loop
      vertex -0.502324 11.1158 10
      vertex 0.502324 11.1158 0
      vertex -0.502324 11.1158 0
    endloop
  endfacet
  facet normal 0.982287 0.187382 0
    outer loop
      vertex -7.74866 17.1105 10
      vertex -7.93692 18.0973 0
      vertex -7.93692 18.0973 10
    endloop
  endfacet
  facet normal 0.982287 0.187382 0
    outer loop
      vertex -7.93692 18.0973 0
      vertex -7.74866 17.1105 10
      vertex -7.74866 17.1105 0
    endloop
  endfacet
  facet normal 0.481753 0.876307 -0
    outer loop
      vertex -3.40623 11.8614 0
      vertex -4.28661 12.3454 10
      vertex -3.40623 11.8614 10
    endloop
  endfacet
  facet normal 0.481753 0.876307 0
    outer loop
      vertex -4.28661 12.3454 10
      vertex -3.40623 11.8614 0
      vertex -4.28661 12.3454 0
    endloop
  endfacet
endsolid OpenSCAD_Model
