solid OpenSCAD_Model
  facet normal 0.904827 0.42578 0
    outer loop
      vertex 3.62613 1.43569 3
      vertex 3.4176 1.87884 1
      vertex 3.4176 1.87884 3
    endloop
  endfacet
  facet normal 0.904827 0.42578 0
    outer loop
      vertex 3.4176 1.87884 1
      vertex 3.62613 1.43569 3
      vertex 3.62613 1.43569 1
    endloop
  endfacet
  facet normal 0.844328 0.535827 0
    outer loop
      vertex 3.4176 1.87884 3
      vertex 3.15517 2.29236 1
      vertex 3.15517 2.29236 3
    endloop
  endfacet
  facet normal 0.844328 0.535827 0
    outer loop
      vertex 3.15517 2.29236 1
      vertex 3.4176 1.87884 3
      vertex 3.4176 1.87884 1
    endloop
  endfacet
  facet normal 0.248691 0.968583 -0
    outer loop
      vertex 1.20517 3.70912 1
      vertex 0.730786 3.83092 3
      vertex 1.20517 3.70912 3
    endloop
  endfacet
  facet normal 0.248691 0.968583 0
    outer loop
      vertex 0.730786 3.83092 3
      vertex 1.20517 3.70912 1
      vertex 0.730786 3.83092 1
    endloop
  endfacet
  facet normal 0.368125 0.929776 -0
    outer loop
      vertex 1.66054 3.52882 1
      vertex 1.20517 3.70912 3
      vertex 1.66054 3.52882 3
    endloop
  endfacet
  facet normal 0.368125 0.929776 0
    outer loop
      vertex 1.20517 3.70912 3
      vertex 1.66054 3.52882 1
      vertex 1.20517 3.70912 1
    endloop
  endfacet
  facet normal -0.368125 0.929776 0
    outer loop
      vertex -1.20517 3.70912 1
      vertex -1.66054 3.52882 3
      vertex -1.20517 3.70912 3
    endloop
  endfacet
  facet normal -0.368125 0.929776 0
    outer loop
      vertex -1.66054 3.52882 3
      vertex -1.20517 3.70912 1
      vertex -1.66054 3.52882 1
    endloop
  endfacet
  facet normal -0.904827 0.42578 0
    outer loop
      vertex -3.62613 1.43569 1
      vertex -3.4176 1.87884 3
      vertex -3.4176 1.87884 1
    endloop
  endfacet
  facet normal -0.904827 0.42578 0
    outer loop
      vertex -3.4176 1.87884 3
      vertex -3.62613 1.43569 1
      vertex -3.62613 1.43569 3
    endloop
  endfacet
  facet normal 0.998027 -0.0627915 0
    outer loop
      vertex 3.86925 -0.488799 3
      vertex 3.9 0 1
      vertex 3.9 0 3
    endloop
  endfacet
  facet normal 0.998027 -0.0627915 0
    outer loop
      vertex 3.9 0 1
      vertex 3.86925 -0.488799 3
      vertex 3.86925 -0.488799 1
    endloop
  endfacet
  facet normal 0.684547 0.728969 -0
    outer loop
      vertex 2.84298 2.66973 1
      vertex 2.48595 3.005 3
      vertex 2.84298 2.66973 3
    endloop
  endfacet
  facet normal 0.684547 0.728969 0
    outer loop
      vertex 2.48595 3.005 3
      vertex 2.84298 2.66973 1
      vertex 2.48595 3.005 1
    endloop
  endfacet
  facet normal 0.125332 0.992115 -0
    outer loop
      vertex 0.730786 3.83092 1
      vertex 0.244883 3.8923 3
      vertex 0.730786 3.83092 3
    endloop
  endfacet
  facet normal 0.125332 0.992115 0
    outer loop
      vertex 0.244883 3.8923 3
      vertex 0.730786 3.83092 1
      vertex 0.244883 3.8923 1
    endloop
  endfacet
  facet normal 0.481754 0.876306 -0
    outer loop
      vertex 2.08972 3.29288 1
      vertex 1.66054 3.52882 3
      vertex 2.08972 3.29288 3
    endloop
  endfacet
  facet normal 0.481754 0.876306 0
    outer loop
      vertex 1.66054 3.52882 3
      vertex 2.08972 3.29288 1
      vertex 1.66054 3.52882 1
    endloop
  endfacet
  facet normal -0.998027 0.0627915 0
    outer loop
      vertex -3.9 0 1
      vertex -3.86925 0.488799 3
      vertex -3.86925 0.488799 1
    endloop
  endfacet
  facet normal -0.998027 0.0627915 0
    outer loop
      vertex -3.86925 0.488799 3
      vertex -3.9 0 1
      vertex -3.9 0 3
    endloop
  endfacet
  facet normal -0.770513 0.637424 0
    outer loop
      vertex -3.15517 2.29236 1
      vertex -2.84298 2.66973 3
      vertex -2.84298 2.66973 1
    endloop
  endfacet
  facet normal -0.770513 0.637424 0
    outer loop
      vertex -2.84298 2.66973 3
      vertex -3.15517 2.29236 1
      vertex -3.15517 2.29236 3
    endloop
  endfacet
  facet normal -0.125332 0.992115 0
    outer loop
      vertex -0.244883 3.8923 1
      vertex -0.730786 3.83092 3
      vertex -0.244883 3.8923 3
    endloop
  endfacet
  facet normal -0.125332 0.992115 0
    outer loop
      vertex -0.730786 3.83092 3
      vertex -0.244883 3.8923 1
      vertex -0.730786 3.83092 1
    endloop
  endfacet
  facet normal -0.684547 0.728969 0
    outer loop
      vertex -2.48595 3.005 1
      vertex -2.84298 2.66973 3
      vertex -2.48595 3.005 3
    endloop
  endfacet
  facet normal -0.684547 0.728969 0
    outer loop
      vertex -2.84298 2.66973 3
      vertex -2.48595 3.005 1
      vertex -2.84298 2.66973 1
    endloop
  endfacet
  facet normal 0.481754 -0.876306 0
    outer loop
      vertex 1.66054 -3.52882 1
      vertex 2.08972 -3.29288 3
      vertex 1.66054 -3.52882 3
    endloop
  endfacet
  facet normal 0.481754 -0.876306 0
    outer loop
      vertex 2.08972 -3.29288 3
      vertex 1.66054 -3.52882 1
      vertex 2.08972 -3.29288 1
    endloop
  endfacet
  facet normal 0.904827 -0.42578 0
    outer loop
      vertex 3.4176 -1.87884 3
      vertex 3.62613 -1.43569 1
      vertex 3.62613 -1.43569 3
    endloop
  endfacet
  facet normal 0.904827 -0.42578 0
    outer loop
      vertex 3.62613 -1.43569 1
      vertex 3.4176 -1.87884 3
      vertex 3.4176 -1.87884 1
    endloop
  endfacet
  facet normal -0.684547 -0.728969 0
    outer loop
      vertex -2.84298 -2.66973 1
      vertex -2.48595 -3.005 3
      vertex -2.84298 -2.66973 3
    endloop
  endfacet
  facet normal -0.684547 -0.728969 -0
    outer loop
      vertex -2.48595 -3.005 3
      vertex -2.84298 -2.66973 1
      vertex -2.48595 -3.005 1
    endloop
  endfacet
  facet normal -0.904827 -0.42578 0
    outer loop
      vertex -3.4176 -1.87884 1
      vertex -3.62613 -1.43569 3
      vertex -3.62613 -1.43569 1
    endloop
  endfacet
  facet normal -0.904827 -0.42578 0
    outer loop
      vertex -3.62613 -1.43569 3
      vertex -3.4176 -1.87884 1
      vertex -3.4176 -1.87884 3
    endloop
  endfacet
  facet normal 0.951057 0.309015 0
    outer loop
      vertex 3.77747 0.96989 3
      vertex 3.62613 1.43569 1
      vertex 3.62613 1.43569 3
    endloop
  endfacet
  facet normal 0.951057 0.309015 0
    outer loop
      vertex 3.62613 1.43569 1
      vertex 3.77747 0.96989 3
      vertex 3.77747 0.96989 1
    endloop
  endfacet
  facet normal 0.770513 0.637424 0
    outer loop
      vertex 3.15517 2.29236 3
      vertex 2.84298 2.66973 1
      vertex 2.84298 2.66973 3
    endloop
  endfacet
  facet normal 0.770513 0.637424 0
    outer loop
      vertex 2.84298 2.66973 1
      vertex 3.15517 2.29236 3
      vertex 3.15517 2.29236 1
    endloop
  endfacet
  facet normal 0 1 -0
    outer loop
      vertex 0.244883 3.8923 1
      vertex -0.244883 3.8923 3
      vertex 0.244883 3.8923 3
    endloop
  endfacet
  facet normal 0 1 0
    outer loop
      vertex -0.244883 3.8923 3
      vertex 0.244883 3.8923 1
      vertex -0.244883 3.8923 1
    endloop
  endfacet
  facet normal 0.587784 0.809018 -0
    outer loop
      vertex 2.48595 3.005 1
      vertex 2.08972 3.29288 3
      vertex 2.48595 3.005 3
    endloop
  endfacet
  facet normal 0.587784 0.809018 0
    outer loop
      vertex 2.08972 3.29288 3
      vertex 2.48595 3.005 1
      vertex 2.08972 3.29288 1
    endloop
  endfacet
  facet normal 0 0 1
    outer loop
      vertex 2 0 3
      vertex 3.9 0 3
      vertex 3.86925 0.488799 3
    endloop
  endfacet
  facet normal 0 0 1
    outer loop
      vertex 1.98423 0.250666 3
      vertex 3.86925 0.488799 3
      vertex 3.77747 0.96989 3
    endloop
  endfacet
  facet normal 0 0 1
    outer loop
      vertex 3.9 0 3
      vertex 2 0 3
      vertex 3.86925 -0.488799 3
    endloop
  endfacet
  facet normal 0 0 1
    outer loop
      vertex 1.93717 0.497379 3
      vertex 3.77747 0.96989 3
      vertex 3.62613 1.43569 3
    endloop
  endfacet
  facet normal -0 0 1
    outer loop
      vertex 1.98423 -0.250666 3
      vertex 3.86925 -0.488799 3
      vertex 2 0 3
    endloop
  endfacet
  facet normal 0 0 1
    outer loop
      vertex 1.85955 0.736249 3
      vertex 3.62613 1.43569 3
      vertex 3.4176 1.87884 3
    endloop
  endfacet
  facet normal 0 0 1
    outer loop
      vertex 3.86925 -0.488799 3
      vertex 1.98423 -0.250666 3
      vertex 3.77747 -0.96989 3
    endloop
  endfacet
  facet normal 0 0 1
    outer loop
      vertex 1.75261 0.963507 3
      vertex 3.4176 1.87884 3
      vertex 3.15517 2.29236 3
    endloop
  endfacet
  facet normal -0 0 1
    outer loop
      vertex 1.93717 -0.497379 3
      vertex 3.77747 -0.96989 3
      vertex 1.98423 -0.250666 3
    endloop
  endfacet
  facet normal 0 0 1
    outer loop
      vertex 1.61803 1.17557 3
      vertex 3.15517 2.29236 3
      vertex 2.84298 2.66973 3
    endloop
  endfacet
  facet normal 0 0 1
    outer loop
      vertex 3.77747 -0.96989 3
      vertex 1.93717 -0.497379 3
      vertex 3.62613 -1.43569 3
    endloop
  endfacet
  facet normal 0 0 1
    outer loop
      vertex 1.45794 1.36909 3
      vertex 2.84298 2.66973 3
      vertex 2.48595 3.005 3
    endloop
  endfacet
  facet normal -0 0 1
    outer loop
      vertex 1.85955 -0.736249 3
      vertex 3.62613 -1.43569 3
      vertex 1.93717 -0.497379 3
    endloop
  endfacet
  facet normal 0 0 1
    outer loop
      vertex 1.27485 1.54103 3
      vertex 2.48595 3.005 3
      vertex 2.08972 3.29288 3
    endloop
  endfacet
  facet normal 0 0 1
    outer loop
      vertex 3.62613 -1.43569 3
      vertex 1.85955 -0.736249 3
      vertex 3.4176 -1.87884 3
    endloop
  endfacet
  facet normal -0 0 1
    outer loop
      vertex 1.75261 -0.963507 3
      vertex 3.4176 -1.87884 3
      vertex 1.85955 -0.736249 3
    endloop
  endfacet
  facet normal 0 0 1
    outer loop
      vertex 3.86925 0.488799 3
      vertex 1.98423 0.250666 3
      vertex 2 0 3
    endloop
  endfacet
  facet normal 0 0 1
    outer loop
      vertex 3.77747 0.96989 3
      vertex 1.93717 0.497379 3
      vertex 1.98423 0.250666 3
    endloop
  endfacet
  facet normal 0 0 1
    outer loop
      vertex 3.62613 1.43569 3
      vertex 1.85955 0.736249 3
      vertex 1.93717 0.497379 3
    endloop
  endfacet
  facet normal 0 0 1
    outer loop
      vertex 3.4176 1.87884 3
      vertex 1.75261 0.963507 3
      vertex 1.85955 0.736249 3
    endloop
  endfacet
  facet normal 0 0 1
    outer loop
      vertex 1.07165 1.68865 3
      vertex 2.08972 3.29288 3
      vertex 1.66054 3.52882 3
    endloop
  endfacet
  facet normal 0 0 1
    outer loop
      vertex 3.15517 2.29236 3
      vertex 1.61803 1.17557 3
      vertex 1.75261 0.963507 3
    endloop
  endfacet
  facet normal 0 0 1
    outer loop
      vertex 2.84298 2.66973 3
      vertex 1.45794 1.36909 3
      vertex 1.61803 1.17557 3
    endloop
  endfacet
  facet normal 0 0 1
    outer loop
      vertex 2.48595 3.005 3
      vertex 1.27485 1.54103 3
      vertex 1.45794 1.36909 3
    endloop
  endfacet
  facet normal 0 0 1
    outer loop
      vertex 0.851558 1.80965 3
      vertex 1.66054 3.52882 3
      vertex 1.20517 3.70912 3
    endloop
  endfacet
  facet normal 0 0 1
    outer loop
      vertex 2.08972 3.29288 3
      vertex 1.07165 1.68865 3
      vertex 1.27485 1.54103 3
    endloop
  endfacet
  facet normal 0 0 1
    outer loop
      vertex 1.66054 3.52882 3
      vertex 0.851558 1.80965 3
      vertex 1.07165 1.68865 3
    endloop
  endfacet
  facet normal 0 0 1
    outer loop
      vertex 0.618033 1.90211 3
      vertex 1.20517 3.70912 3
      vertex 0.730786 3.83092 3
    endloop
  endfacet
  facet normal 0 0 1
    outer loop
      vertex 1.20517 3.70912 3
      vertex 0.618033 1.90211 3
      vertex 0.851558 1.80965 3
    endloop
  endfacet
  facet normal 0 0 1
    outer loop
      vertex 0.730786 3.83092 3
      vertex 0.374763 1.96457 3
      vertex 0.618033 1.90211 3
    endloop
  endfacet
  facet normal 0 0 1
    outer loop
      vertex 0.244883 3.8923 3
      vertex 0.374763 1.96457 3
      vertex 0.730786 3.83092 3
    endloop
  endfacet
  facet normal 0 0 1
    outer loop
      vertex 0.244883 3.8923 3
      vertex 0.125581 1.99605 3
      vertex 0.374763 1.96457 3
    endloop
  endfacet
  facet normal 0 0 1
    outer loop
      vertex 0.244883 3.8923 3
      vertex -0.125581 1.99605 3
      vertex 0.125581 1.99605 3
    endloop
  endfacet
  facet normal -0 0 1
    outer loop
      vertex -0.244883 3.8923 3
      vertex -0.125581 1.99605 3
      vertex 0.244883 3.8923 3
    endloop
  endfacet
  facet normal 0 0 1
    outer loop
      vertex -0.244883 3.8923 3
      vertex -0.374763 1.96457 3
      vertex -0.125581 1.99605 3
    endloop
  endfacet
  facet normal -0 0 1
    outer loop
      vertex -0.730786 3.83092 3
      vertex -0.374763 1.96457 3
      vertex -0.244883 3.8923 3
    endloop
  endfacet
  facet normal 0 0 1
    outer loop
      vertex -0.374763 1.96457 3
      vertex -0.730786 3.83092 3
      vertex -0.618033 1.90211 3
    endloop
  endfacet
  facet normal -0 0 1
    outer loop
      vertex -1.20517 3.70912 3
      vertex -0.618033 1.90211 3
      vertex -0.730786 3.83092 3
    endloop
  endfacet
  facet normal 0 0 1
    outer loop
      vertex -0.618033 1.90211 3
      vertex -1.20517 3.70912 3
      vertex -0.851558 1.80965 3
    endloop
  endfacet
  facet normal -0 0 1
    outer loop
      vertex -1.66054 3.52882 3
      vertex -0.851558 1.80965 3
      vertex -1.20517 3.70912 3
    endloop
  endfacet
  facet normal 0 0 1
    outer loop
      vertex -0.851558 1.80965 3
      vertex -1.66054 3.52882 3
      vertex -1.07165 1.68865 3
    endloop
  endfacet
  facet normal -0 0 1
    outer loop
      vertex -2.08972 3.29288 3
      vertex -1.07165 1.68865 3
      vertex -1.66054 3.52882 3
    endloop
  endfacet
  facet normal 0 0 1
    outer loop
      vertex -1.07165 1.68865 3
      vertex -2.08972 3.29288 3
      vertex -1.27485 1.54103 3
    endloop
  endfacet
  facet normal -0 0 1
    outer loop
      vertex -2.48595 3.005 3
      vertex -1.27485 1.54103 3
      vertex -2.08972 3.29288 3
    endloop
  endfacet
  facet normal 0 0 1
    outer loop
      vertex -1.27485 1.54103 3
      vertex -2.48595 3.005 3
      vertex -1.45794 1.36909 3
    endloop
  endfacet
  facet normal -0 0 1
    outer loop
      vertex -2.84298 2.66973 3
      vertex -1.45794 1.36909 3
      vertex -2.48595 3.005 3
    endloop
  endfacet
  facet normal 0 0 1
    outer loop
      vertex -1.45794 1.36909 3
      vertex -2.84298 2.66973 3
      vertex -1.61803 1.17557 3
    endloop
  endfacet
  facet normal -0 0 1
    outer loop
      vertex -3.15517 2.29236 3
      vertex -1.61803 1.17557 3
      vertex -2.84298 2.66973 3
    endloop
  endfacet
  facet normal -0 0 1
    outer loop
      vertex -3.4176 1.87884 3
      vertex -1.75261 0.963507 3
      vertex -3.15517 2.29236 3
    endloop
  endfacet
  facet normal 0 0 1
    outer loop
      vertex -1.61803 1.17557 3
      vertex -3.15517 2.29236 3
      vertex -1.75261 0.963507 3
    endloop
  endfacet
  facet normal 0 0 1
    outer loop
      vertex 3.4176 -1.87884 3
      vertex 1.75261 -0.963507 3
      vertex 3.15517 -2.29236 3
    endloop
  endfacet
  facet normal -0 0 1
    outer loop
      vertex 1.61803 -1.17557 3
      vertex 3.15517 -2.29236 3
      vertex 1.75261 -0.963507 3
    endloop
  endfacet
  facet normal 0 0 1
    outer loop
      vertex 3.15517 -2.29236 3
      vertex 1.61803 -1.17557 3
      vertex 2.84298 -2.66973 3
    endloop
  endfacet
  facet normal -0 0 1
    outer loop
      vertex 1.45794 -1.36909 3
      vertex 2.84298 -2.66973 3
      vertex 1.61803 -1.17557 3
    endloop
  endfacet
  facet normal 0 0 1
    outer loop
      vertex 2.84298 -2.66973 3
      vertex 1.45794 -1.36909 3
      vertex 2.48595 -3.005 3
    endloop
  endfacet
  facet normal -0 0 1
    outer loop
      vertex 1.27485 -1.54103 3
      vertex 2.48595 -3.005 3
      vertex 1.45794 -1.36909 3
    endloop
  endfacet
  facet normal 0 0 1
    outer loop
      vertex 2.48595 -3.005 3
      vertex 1.27485 -1.54103 3
      vertex 2.08972 -3.29288 3
    endloop
  endfacet
  facet normal -0 0 1
    outer loop
      vertex 1.07165 -1.68865 3
      vertex 2.08972 -3.29288 3
      vertex 1.27485 -1.54103 3
    endloop
  endfacet
  facet normal 0 0 1
    outer loop
      vertex 2.08972 -3.29288 3
      vertex 1.07165 -1.68865 3
      vertex 1.66054 -3.52882 3
    endloop
  endfacet
  facet normal -0 0 1
    outer loop
      vertex 0.851558 -1.80965 3
      vertex 1.66054 -3.52882 3
      vertex 1.07165 -1.68865 3
    endloop
  endfacet
  facet normal 0 0 1
    outer loop
      vertex 1.66054 -3.52882 3
      vertex 0.851558 -1.80965 3
      vertex 1.20517 -3.70912 3
    endloop
  endfacet
  facet normal -0 0 1
    outer loop
      vertex 0.618033 -1.90211 3
      vertex 1.20517 -3.70912 3
      vertex 0.851558 -1.80965 3
    endloop
  endfacet
  facet normal 0 0 1
    outer loop
      vertex 1.20517 -3.70912 3
      vertex 0.618033 -1.90211 3
      vertex 0.730786 -3.83092 3
    endloop
  endfacet
  facet normal -0 0 1
    outer loop
      vertex 0.374763 -1.96457 3
      vertex 0.730786 -3.83092 3
      vertex 0.618033 -1.90211 3
    endloop
  endfacet
  facet normal 0 0 1
    outer loop
      vertex 0.374763 -1.96457 3
      vertex 0.244883 -3.8923 3
      vertex 0.730786 -3.83092 3
    endloop
  endfacet
  facet normal -0 0 1
    outer loop
      vertex 0.125581 -1.99605 3
      vertex 0.244883 -3.8923 3
      vertex 0.374763 -1.96457 3
    endloop
  endfacet
  facet normal -0 0 1
    outer loop
      vertex -0.125581 -1.99605 3
      vertex 0.244883 -3.8923 3
      vertex 0.125581 -1.99605 3
    endloop
  endfacet
  facet normal 0 0 1
    outer loop
      vertex -0.125581 -1.99605 3
      vertex -0.244883 -3.8923 3
      vertex 0.244883 -3.8923 3
    endloop
  endfacet
  facet normal 0 0 1
    outer loop
      vertex -0.374763 -1.96457 3
      vertex -0.244883 -3.8923 3
      vertex -0.125581 -1.99605 3
    endloop
  endfacet
  facet normal 0 0 1
    outer loop
      vertex -0.730786 -3.83092 3
      vertex -0.374763 -1.96457 3
      vertex -0.618033 -1.90211 3
    endloop
  endfacet
  facet normal 0 0 1
    outer loop
      vertex -0.374763 -1.96457 3
      vertex -0.730786 -3.83092 3
      vertex -0.244883 -3.8923 3
    endloop
  endfacet
  facet normal 0 0 1
    outer loop
      vertex -1.20517 -3.70912 3
      vertex -0.618033 -1.90211 3
      vertex -0.851558 -1.80965 3
    endloop
  endfacet
  facet normal 0 0 1
    outer loop
      vertex -1.66054 -3.52882 3
      vertex -0.851558 -1.80965 3
      vertex -1.07165 -1.68865 3
    endloop
  endfacet
  facet normal 0 0 1
    outer loop
      vertex -0.618033 -1.90211 3
      vertex -1.20517 -3.70912 3
      vertex -0.730786 -3.83092 3
    endloop
  endfacet
  facet normal 0 0 1
    outer loop
      vertex -2.08972 -3.29288 3
      vertex -1.07165 -1.68865 3
      vertex -1.27485 -1.54103 3
    endloop
  endfacet
  facet normal 0 0 1
    outer loop
      vertex -2.48595 -3.005 3
      vertex -1.27485 -1.54103 3
      vertex -1.45794 -1.36909 3
    endloop
  endfacet
  facet normal 0 0 1
    outer loop
      vertex -2.84298 -2.66973 3
      vertex -1.45794 -1.36909 3
      vertex -1.61803 -1.17557 3
    endloop
  endfacet
  facet normal 0 0 1
    outer loop
      vertex -0.851558 -1.80965 3
      vertex -1.66054 -3.52882 3
      vertex -1.20517 -3.70912 3
    endloop
  endfacet
  facet normal 0 0 1
    outer loop
      vertex -3.15517 -2.29236 3
      vertex -1.61803 -1.17557 3
      vertex -1.75261 -0.963507 3
    endloop
  endfacet
  facet normal 0 0 1
    outer loop
      vertex -3.4176 -1.87884 3
      vertex -1.75261 -0.963507 3
      vertex -1.85955 -0.736249 3
    endloop
  endfacet
  facet normal 0 0 1
    outer loop
      vertex -3.62613 -1.43569 3
      vertex -1.85955 -0.736249 3
      vertex -1.93717 -0.497379 3
    endloop
  endfacet
  facet normal 0 0 1
    outer loop
      vertex -3.77747 -0.96989 3
      vertex -1.93717 -0.497379 3
      vertex -1.98423 -0.250666 3
    endloop
  endfacet
  facet normal 0 0 1
    outer loop
      vertex -1.07165 -1.68865 3
      vertex -2.08972 -3.29288 3
      vertex -1.66054 -3.52882 3
    endloop
  endfacet
  facet normal 0 0 1
    outer loop
      vertex -3.86925 -0.488799 3
      vertex -1.98423 -0.250666 3
      vertex -2 0 3
    endloop
  endfacet
  facet normal 0 0 1
    outer loop
      vertex -1.75261 0.963507 3
      vertex -3.4176 1.87884 3
      vertex -1.85955 0.736249 3
    endloop
  endfacet
  facet normal -0 0 1
    outer loop
      vertex -3.62613 1.43569 3
      vertex -1.85955 0.736249 3
      vertex -3.4176 1.87884 3
    endloop
  endfacet
  facet normal 0 0 1
    outer loop
      vertex -1.27485 -1.54103 3
      vertex -2.48595 -3.005 3
      vertex -2.08972 -3.29288 3
    endloop
  endfacet
  facet normal 0 0 1
    outer loop
      vertex -1.85955 0.736249 3
      vertex -3.62613 1.43569 3
      vertex -1.93717 0.497379 3
    endloop
  endfacet
  facet normal 0 0 1
    outer loop
      vertex -1.45794 -1.36909 3
      vertex -2.84298 -2.66973 3
      vertex -2.48595 -3.005 3
    endloop
  endfacet
  facet normal -0 0 1
    outer loop
      vertex -3.77747 0.96989 3
      vertex -1.93717 0.497379 3
      vertex -3.62613 1.43569 3
    endloop
  endfacet
  facet normal 0 0 1
    outer loop
      vertex -1.61803 -1.17557 3
      vertex -3.15517 -2.29236 3
      vertex -2.84298 -2.66973 3
    endloop
  endfacet
  facet normal 0 0 1
    outer loop
      vertex -1.93717 0.497379 3
      vertex -3.77747 0.96989 3
      vertex -1.98423 0.250666 3
    endloop
  endfacet
  facet normal 0 0 1
    outer loop
      vertex -1.75261 -0.963507 3
      vertex -3.4176 -1.87884 3
      vertex -3.15517 -2.29236 3
    endloop
  endfacet
  facet normal -0 0 1
    outer loop
      vertex -3.86925 0.488799 3
      vertex -1.98423 0.250666 3
      vertex -3.77747 0.96989 3
    endloop
  endfacet
  facet normal 0 0 1
    outer loop
      vertex -1.85955 -0.736249 3
      vertex -3.62613 -1.43569 3
      vertex -3.4176 -1.87884 3
    endloop
  endfacet
  facet normal 0 0 1
    outer loop
      vertex -1.98423 0.250666 3
      vertex -3.86925 0.488799 3
      vertex -2 0 3
    endloop
  endfacet
  facet normal 0 0 1
    outer loop
      vertex -1.93717 -0.497379 3
      vertex -3.77747 -0.96989 3
      vertex -3.62613 -1.43569 3
    endloop
  endfacet
  facet normal 0 0 1
    outer loop
      vertex -3.9 0 3
      vertex -2 0 3
      vertex -3.86925 0.488799 3
    endloop
  endfacet
  facet normal 0 0 1
    outer loop
      vertex -1.98423 -0.250666 3
      vertex -3.86925 -0.488799 3
      vertex -3.77747 -0.96989 3
    endloop
  endfacet
  facet normal 0 0 1
    outer loop
      vertex -2 0 3
      vertex -3.9 0 3
      vertex -3.86925 -0.488799 3
    endloop
  endfacet
  facet normal -0.951057 0.309015 0
    outer loop
      vertex -3.77747 0.96989 1
      vertex -3.62613 1.43569 3
      vertex -3.62613 1.43569 1
    endloop
  endfacet
  facet normal -0.951057 0.309015 0
    outer loop
      vertex -3.62613 1.43569 3
      vertex -3.77747 0.96989 1
      vertex -3.77747 0.96989 3
    endloop
  endfacet
  facet normal -0.982287 0.187382 0
    outer loop
      vertex -3.86925 0.488799 1
      vertex -3.77747 0.96989 3
      vertex -3.77747 0.96989 1
    endloop
  endfacet
  facet normal -0.982287 0.187382 0
    outer loop
      vertex -3.77747 0.96989 3
      vertex -3.86925 0.488799 1
      vertex -3.86925 0.488799 3
    endloop
  endfacet
  facet normal -0.844328 0.535827 0
    outer loop
      vertex -3.4176 1.87884 1
      vertex -3.15517 2.29236 3
      vertex -3.15517 2.29236 1
    endloop
  endfacet
  facet normal -0.844328 0.535827 0
    outer loop
      vertex -3.15517 2.29236 3
      vertex -3.4176 1.87884 1
      vertex -3.4176 1.87884 3
    endloop
  endfacet
  facet normal -0.248691 0.968583 0
    outer loop
      vertex -0.730786 3.83092 1
      vertex -1.20517 3.70912 3
      vertex -0.730786 3.83092 3
    endloop
  endfacet
  facet normal -0.248691 0.968583 0
    outer loop
      vertex -1.20517 3.70912 3
      vertex -0.730786 3.83092 1
      vertex -1.20517 3.70912 1
    endloop
  endfacet
  facet normal -0.587784 0.809018 0
    outer loop
      vertex -2.08972 3.29288 1
      vertex -2.48595 3.005 3
      vertex -2.08972 3.29288 3
    endloop
  endfacet
  facet normal -0.587784 0.809018 0
    outer loop
      vertex -2.48595 3.005 3
      vertex -2.08972 3.29288 1
      vertex -2.48595 3.005 1
    endloop
  endfacet
  facet normal -0.481754 0.876306 0
    outer loop
      vertex -1.66054 3.52882 1
      vertex -2.08972 3.29288 3
      vertex -1.66054 3.52882 3
    endloop
  endfacet
  facet normal -0.481754 0.876306 0
    outer loop
      vertex -2.08972 3.29288 3
      vertex -1.66054 3.52882 1
      vertex -2.08972 3.29288 1
    endloop
  endfacet
  facet normal 0.998027 0.0627915 0
    outer loop
      vertex 3.9 0 3
      vertex 3.86925 0.488799 1
      vertex 3.86925 0.488799 3
    endloop
  endfacet
  facet normal 0.998027 0.0627915 0
    outer loop
      vertex 3.86925 0.488799 1
      vertex 3.9 0 3
      vertex 3.9 0 1
    endloop
  endfacet
  facet normal 0.951057 -0.309015 0
    outer loop
      vertex 3.62613 -1.43569 3
      vertex 3.77747 -0.96989 1
      vertex 3.77747 -0.96989 3
    endloop
  endfacet
  facet normal 0.951057 -0.309015 0
    outer loop
      vertex 3.77747 -0.96989 1
      vertex 3.62613 -1.43569 3
      vertex 3.62613 -1.43569 1
    endloop
  endfacet
  facet normal -0.998027 -0.0627915 0
    outer loop
      vertex -3.86925 -0.488799 1
      vertex -3.9 0 3
      vertex -3.9 0 1
    endloop
  endfacet
  facet normal -0.998027 -0.0627915 0
    outer loop
      vertex -3.9 0 3
      vertex -3.86925 -0.488799 1
      vertex -3.86925 -0.488799 3
    endloop
  endfacet
  facet normal -0.844328 -0.535827 0
    outer loop
      vertex -3.15517 -2.29236 1
      vertex -3.4176 -1.87884 3
      vertex -3.4176 -1.87884 1
    endloop
  endfacet
  facet normal -0.844328 -0.535827 0
    outer loop
      vertex -3.4176 -1.87884 3
      vertex -3.15517 -2.29236 1
      vertex -3.15517 -2.29236 3
    endloop
  endfacet
  facet normal 0.125332 -0.992115 0
    outer loop
      vertex 0.244883 -3.8923 1
      vertex 0.730786 -3.83092 3
      vertex 0.244883 -3.8923 3
    endloop
  endfacet
  facet normal 0.125332 -0.992115 0
    outer loop
      vertex 0.730786 -3.83092 3
      vertex 0.244883 -3.8923 1
      vertex 0.730786 -3.83092 1
    endloop
  endfacet
  facet normal 0.368125 -0.929776 0
    outer loop
      vertex 1.20517 -3.70912 1
      vertex 1.66054 -3.52882 3
      vertex 1.20517 -3.70912 3
    endloop
  endfacet
  facet normal 0.368125 -0.929776 0
    outer loop
      vertex 1.66054 -3.52882 3
      vertex 1.20517 -3.70912 1
      vertex 1.66054 -3.52882 1
    endloop
  endfacet
  facet normal 0.982287 0.187382 0
    outer loop
      vertex 3.86925 0.488799 3
      vertex 3.77747 0.96989 1
      vertex 3.77747 0.96989 3
    endloop
  endfacet
  facet normal 0.982287 0.187382 0
    outer loop
      vertex 3.77747 0.96989 1
      vertex 3.86925 0.488799 3
      vertex 3.86925 0.488799 1
    endloop
  endfacet
  facet normal 0.684547 -0.728969 0
    outer loop
      vertex 2.48595 -3.005 1
      vertex 2.84298 -2.66973 3
      vertex 2.48595 -3.005 3
    endloop
  endfacet
  facet normal 0.684547 -0.728969 0
    outer loop
      vertex 2.84298 -2.66973 3
      vertex 2.48595 -3.005 1
      vertex 2.84298 -2.66973 1
    endloop
  endfacet
  facet normal 0.770513 -0.637424 0
    outer loop
      vertex 2.84298 -2.66973 3
      vertex 3.15517 -2.29236 1
      vertex 3.15517 -2.29236 3
    endloop
  endfacet
  facet normal 0.770513 -0.637424 0
    outer loop
      vertex 3.15517 -2.29236 1
      vertex 2.84298 -2.66973 3
      vertex 2.84298 -2.66973 1
    endloop
  endfacet
  facet normal 0.844328 -0.535827 0
    outer loop
      vertex 3.15517 -2.29236 3
      vertex 3.4176 -1.87884 1
      vertex 3.4176 -1.87884 3
    endloop
  endfacet
  facet normal 0.844328 -0.535827 0
    outer loop
      vertex 3.4176 -1.87884 1
      vertex 3.15517 -2.29236 3
      vertex 3.15517 -2.29236 1
    endloop
  endfacet
  facet normal -0.368125 -0.929776 0
    outer loop
      vertex -1.66054 -3.52882 1
      vertex -1.20517 -3.70912 3
      vertex -1.66054 -3.52882 3
    endloop
  endfacet
  facet normal -0.368125 -0.929776 -0
    outer loop
      vertex -1.20517 -3.70912 3
      vertex -1.66054 -3.52882 1
      vertex -1.20517 -3.70912 1
    endloop
  endfacet
  facet normal -0.248691 -0.968583 0
    outer loop
      vertex -1.20517 -3.70912 1
      vertex -0.730786 -3.83092 3
      vertex -1.20517 -3.70912 3
    endloop
  endfacet
  facet normal -0.248691 -0.968583 -0
    outer loop
      vertex -0.730786 -3.83092 3
      vertex -1.20517 -3.70912 1
      vertex -0.730786 -3.83092 1
    endloop
  endfacet
  facet normal -0.125332 -0.992115 0
    outer loop
      vertex -0.730786 -3.83092 1
      vertex -0.244883 -3.8923 3
      vertex -0.730786 -3.83092 3
    endloop
  endfacet
  facet normal -0.125332 -0.992115 -0
    outer loop
      vertex -0.244883 -3.8923 3
      vertex -0.730786 -3.83092 1
      vertex -0.244883 -3.8923 1
    endloop
  endfacet
  facet normal 0 0 -1
    outer loop
      vertex 2 0 0
      vertex 10 0 0
      vertex 9.92115 -1.25333 0
    endloop
  endfacet
  facet normal 0 0 -1
    outer loop
      vertex 1.98423 -0.250666 0
      vertex 9.92115 -1.25333 0
      vertex 9.68583 -2.4869 0
    endloop
  endfacet
  facet normal 0 0 -1
    outer loop
      vertex 10 0 0
      vertex 2 0 0
      vertex 9.92115 1.25333 0
    endloop
  endfacet
  facet normal 0 0 -1
    outer loop
      vertex 1.93717 -0.497379 0
      vertex 9.68583 -2.4869 0
      vertex 9.29776 -3.68124 0
    endloop
  endfacet
  facet normal 0 0 -1
    outer loop
      vertex 1.98423 0.250666 0
      vertex 9.92115 1.25333 0
      vertex 2 0 0
    endloop
  endfacet
  facet normal 0 0 -1
    outer loop
      vertex 1.85955 -0.736249 0
      vertex 9.29776 -3.68124 0
      vertex 8.76307 -4.81754 0
    endloop
  endfacet
  facet normal -0 0 -1
    outer loop
      vertex 9.92115 1.25333 0
      vertex 1.98423 0.250666 0
      vertex 9.68583 2.4869 0
    endloop
  endfacet
  facet normal 0 0 -1
    outer loop
      vertex 1.75261 -0.963507 0
      vertex 8.76307 -4.81754 0
      vertex 8.09017 -5.87785 0
    endloop
  endfacet
  facet normal 0 0 -1
    outer loop
      vertex 1.93717 0.497379 0
      vertex 9.68583 2.4869 0
      vertex 1.98423 0.250666 0
    endloop
  endfacet
  facet normal 0 0 -1
    outer loop
      vertex 1.61803 -1.17557 0
      vertex 8.09017 -5.87785 0
      vertex 7.28969 -6.84547 0
    endloop
  endfacet
  facet normal -0 0 -1
    outer loop
      vertex 9.68583 2.4869 0
      vertex 1.93717 0.497379 0
      vertex 9.29776 3.68124 0
    endloop
  endfacet
  facet normal 0 0 -1
    outer loop
      vertex 1.45794 -1.36909 0
      vertex 7.28969 -6.84547 0
      vertex 6.37424 -7.70513 0
    endloop
  endfacet
  facet normal 0 0 -1
    outer loop
      vertex 1.85955 0.736249 0
      vertex 9.29776 3.68124 0
      vertex 1.93717 0.497379 0
    endloop
  endfacet
  facet normal 0 0 -1
    outer loop
      vertex 1.27485 -1.54103 0
      vertex 6.37424 -7.70513 0
      vertex 5.35827 -8.44328 0
    endloop
  endfacet
  facet normal -0 0 -1
    outer loop
      vertex 9.29776 3.68124 0
      vertex 1.85955 0.736249 0
      vertex 8.76307 4.81754 0
    endloop
  endfacet
  facet normal 0 0 -1
    outer loop
      vertex 1.07165 -1.68865 0
      vertex 5.35827 -8.44328 0
      vertex 4.25779 -9.04827 0
    endloop
  endfacet
  facet normal 0 0 -1
    outer loop
      vertex 1.75261 0.963507 0
      vertex 8.76307 4.81754 0
      vertex 1.85955 0.736249 0
    endloop
  endfacet
  facet normal 0 0 -1
    outer loop
      vertex 0.851558 -1.80965 0
      vertex 4.25779 -9.04827 0
      vertex 3.09017 -9.51056 0
    endloop
  endfacet
  facet normal -0 0 -1
    outer loop
      vertex 8.76307 4.81754 0
      vertex 1.75261 0.963507 0
      vertex 8.09017 5.87785 0
    endloop
  endfacet
  facet normal 0 0 -1
    outer loop
      vertex 1.61803 1.17557 0
      vertex 8.09017 5.87785 0
      vertex 1.75261 0.963507 0
    endloop
  endfacet
  facet normal 0 0 -1
    outer loop
      vertex 9.92115 -1.25333 0
      vertex 1.98423 -0.250666 0
      vertex 2 0 0
    endloop
  endfacet
  facet normal 0 0 -1
    outer loop
      vertex 9.68583 -2.4869 0
      vertex 1.93717 -0.497379 0
      vertex 1.98423 -0.250666 0
    endloop
  endfacet
  facet normal 0 0 -1
    outer loop
      vertex 0.618033 -1.90211 0
      vertex 3.09017 -9.51056 0
      vertex 1.87381 -9.82287 0
    endloop
  endfacet
  facet normal 0 0 -1
    outer loop
      vertex 9.29776 -3.68124 0
      vertex 1.85955 -0.736249 0
      vertex 1.93717 -0.497379 0
    endloop
  endfacet
  facet normal 0 0 -1
    outer loop
      vertex 8.76307 -4.81754 0
      vertex 1.75261 -0.963507 0
      vertex 1.85955 -0.736249 0
    endloop
  endfacet
  facet normal 0 0 -1
    outer loop
      vertex 8.09017 -5.87785 0
      vertex 1.61803 -1.17557 0
      vertex 1.75261 -0.963507 0
    endloop
  endfacet
  facet normal 0 0 -1
    outer loop
      vertex 7.28969 -6.84547 0
      vertex 1.45794 -1.36909 0
      vertex 1.61803 -1.17557 0
    endloop
  endfacet
  facet normal 0 0 -1
    outer loop
      vertex 6.37424 -7.70513 0
      vertex 1.27485 -1.54103 0
      vertex 1.45794 -1.36909 0
    endloop
  endfacet
  facet normal 0 0 -1
    outer loop
      vertex 5.35827 -8.44328 0
      vertex 1.07165 -1.68865 0
      vertex 1.27485 -1.54103 0
    endloop
  endfacet
  facet normal 0 0 -1
    outer loop
      vertex 4.25779 -9.04827 0
      vertex 0.851558 -1.80965 0
      vertex 1.07165 -1.68865 0
    endloop
  endfacet
  facet normal 0 0 -1
    outer loop
      vertex 0.374763 -1.96457 0
      vertex 1.87381 -9.82287 0
      vertex 0.627905 -9.98027 0
    endloop
  endfacet
  facet normal 0 0 -1
    outer loop
      vertex 3.09017 -9.51056 0
      vertex 0.618033 -1.90211 0
      vertex 0.851558 -1.80965 0
    endloop
  endfacet
  facet normal 0 0 -1
    outer loop
      vertex 1.87381 -9.82287 0
      vertex 0.374763 -1.96457 0
      vertex 0.618033 -1.90211 0
    endloop
  endfacet
  facet normal 0 0 -1
    outer loop
      vertex 0.627905 -9.98027 0
      vertex 0.125581 -1.99605 0
      vertex 0.374763 -1.96457 0
    endloop
  endfacet
  facet normal 0 0 -1
    outer loop
      vertex 0.627905 -9.98027 0
      vertex -0.125581 -1.99605 0
      vertex 0.125581 -1.99605 0
    endloop
  endfacet
  facet normal 0 0 -1
    outer loop
      vertex -0.627905 -9.98027 0
      vertex -0.125581 -1.99605 0
      vertex 0.627905 -9.98027 0
    endloop
  endfacet
  facet normal -0 0 -1
    outer loop
      vertex -0.125581 -1.99605 0
      vertex -0.627905 -9.98027 0
      vertex -0.374763 -1.96457 0
    endloop
  endfacet
  facet normal 0 0 -1
    outer loop
      vertex -1.87381 -9.82287 0
      vertex -0.374763 -1.96457 0
      vertex -0.627905 -9.98027 0
    endloop
  endfacet
  facet normal -0 0 -1
    outer loop
      vertex -0.374763 -1.96457 0
      vertex -1.87381 -9.82287 0
      vertex -0.618033 -1.90211 0
    endloop
  endfacet
  facet normal 0 0 -1
    outer loop
      vertex -3.09017 -9.51056 0
      vertex -0.618033 -1.90211 0
      vertex -1.87381 -9.82287 0
    endloop
  endfacet
  facet normal -0 0 -1
    outer loop
      vertex -0.618033 -1.90211 0
      vertex -3.09017 -9.51056 0
      vertex -0.851558 -1.80965 0
    endloop
  endfacet
  facet normal 0 0 -1
    outer loop
      vertex -4.25779 -9.04827 0
      vertex -0.851558 -1.80965 0
      vertex -3.09017 -9.51056 0
    endloop
  endfacet
  facet normal -0 0 -1
    outer loop
      vertex -0.851558 -1.80965 0
      vertex -4.25779 -9.04827 0
      vertex -1.07165 -1.68865 0
    endloop
  endfacet
  facet normal 0 0 -1
    outer loop
      vertex -5.35827 -8.44328 0
      vertex -1.07165 -1.68865 0
      vertex -4.25779 -9.04827 0
    endloop
  endfacet
  facet normal -0 0 -1
    outer loop
      vertex -1.07165 -1.68865 0
      vertex -5.35827 -8.44328 0
      vertex -1.27485 -1.54103 0
    endloop
  endfacet
  facet normal 0 0 -1
    outer loop
      vertex -6.37424 -7.70513 0
      vertex -1.27485 -1.54103 0
      vertex -5.35827 -8.44328 0
    endloop
  endfacet
  facet normal -0 0 -1
    outer loop
      vertex -1.27485 -1.54103 0
      vertex -6.37424 -7.70513 0
      vertex -1.45794 -1.36909 0
    endloop
  endfacet
  facet normal 0 0 -1
    outer loop
      vertex -7.28969 -6.84547 0
      vertex -1.45794 -1.36909 0
      vertex -6.37424 -7.70513 0
    endloop
  endfacet
  facet normal -0 0 -1
    outer loop
      vertex -1.45794 -1.36909 0
      vertex -7.28969 -6.84547 0
      vertex -1.61803 -1.17557 0
    endloop
  endfacet
  facet normal 0 0 -1
    outer loop
      vertex -8.09017 -5.87785 0
      vertex -1.61803 -1.17557 0
      vertex -7.28969 -6.84547 0
    endloop
  endfacet
  facet normal -0 0 -1
    outer loop
      vertex 8.09017 5.87785 0
      vertex 1.61803 1.17557 0
      vertex 7.28969 6.84547 0
    endloop
  endfacet
  facet normal 0 0 -1
    outer loop
      vertex 1.45794 1.36909 0
      vertex 7.28969 6.84547 0
      vertex 1.61803 1.17557 0
    endloop
  endfacet
  facet normal -0 0 -1
    outer loop
      vertex 7.28969 6.84547 0
      vertex 1.45794 1.36909 0
      vertex 6.37424 7.70513 0
    endloop
  endfacet
  facet normal 0 0 -1
    outer loop
      vertex 1.27485 1.54103 0
      vertex 6.37424 7.70513 0
      vertex 1.45794 1.36909 0
    endloop
  endfacet
  facet normal -0 0 -1
    outer loop
      vertex 6.37424 7.70513 0
      vertex 1.27485 1.54103 0
      vertex 5.35827 8.44328 0
    endloop
  endfacet
  facet normal 0 0 -1
    outer loop
      vertex 1.07165 1.68865 0
      vertex 5.35827 8.44328 0
      vertex 1.27485 1.54103 0
    endloop
  endfacet
  facet normal -0 0 -1
    outer loop
      vertex 5.35827 8.44328 0
      vertex 1.07165 1.68865 0
      vertex 4.25779 9.04827 0
    endloop
  endfacet
  facet normal 0 0 -1
    outer loop
      vertex 0.851558 1.80965 0
      vertex 4.25779 9.04827 0
      vertex 1.07165 1.68865 0
    endloop
  endfacet
  facet normal -0 0 -1
    outer loop
      vertex 4.25779 9.04827 0
      vertex 0.851558 1.80965 0
      vertex 3.09017 9.51056 0
    endloop
  endfacet
  facet normal 0 0 -1
    outer loop
      vertex 0.618033 1.90211 0
      vertex 3.09017 9.51056 0
      vertex 0.851558 1.80965 0
    endloop
  endfacet
  facet normal -0 0 -1
    outer loop
      vertex 3.09017 9.51056 0
      vertex 0.618033 1.90211 0
      vertex 1.87381 9.82287 0
    endloop
  endfacet
  facet normal 0 0 -1
    outer loop
      vertex 0.374763 1.96457 0
      vertex 1.87381 9.82287 0
      vertex 0.618033 1.90211 0
    endloop
  endfacet
  facet normal -0 0 -1
    outer loop
      vertex 1.87381 9.82287 0
      vertex 0.374763 1.96457 0
      vertex 0.627905 9.98027 0
    endloop
  endfacet
  facet normal 0 0 -1
    outer loop
      vertex 0.125581 1.99605 0
      vertex 0.627905 9.98027 0
      vertex 0.374763 1.96457 0
    endloop
  endfacet
  facet normal 0 0 -1
    outer loop
      vertex -0.125581 1.99605 0
      vertex 0.627905 9.98027 0
      vertex 0.125581 1.99605 0
    endloop
  endfacet
  facet normal 0 0 -1
    outer loop
      vertex -0.627905 9.98027 0
      vertex -0.125581 1.99605 0
      vertex -0.374763 1.96457 0
    endloop
  endfacet
  facet normal 0 0 -1
    outer loop
      vertex -1.87381 9.82287 0
      vertex -0.374763 1.96457 0
      vertex -0.618033 1.90211 0
    endloop
  endfacet
  facet normal 0 0 -1
    outer loop
      vertex -0.125581 1.99605 0
      vertex -0.627905 9.98027 0
      vertex 0.627905 9.98027 0
    endloop
  endfacet
  facet normal 0 0 -1
    outer loop
      vertex -3.09017 9.51056 0
      vertex -0.618033 1.90211 0
      vertex -0.851558 1.80965 0
    endloop
  endfacet
  facet normal 0 0 -1
    outer loop
      vertex -4.25779 9.04827 0
      vertex -0.851558 1.80965 0
      vertex -1.07165 1.68865 0
    endloop
  endfacet
  facet normal 0 0 -1
    outer loop
      vertex -5.35827 8.44328 0
      vertex -1.07165 1.68865 0
      vertex -1.27485 1.54103 0
    endloop
  endfacet
  facet normal 0 0 -1
    outer loop
      vertex -6.37424 7.70513 0
      vertex -1.27485 1.54103 0
      vertex -1.45794 1.36909 0
    endloop
  endfacet
  facet normal 0 0 -1
    outer loop
      vertex -7.28969 6.84547 0
      vertex -1.45794 1.36909 0
      vertex -1.61803 1.17557 0
    endloop
  endfacet
  facet normal 0 0 -1
    outer loop
      vertex -8.09017 5.87785 0
      vertex -1.61803 1.17557 0
      vertex -1.75261 0.963507 0
    endloop
  endfacet
  facet normal 0 0 -1
    outer loop
      vertex -8.76307 4.81754 0
      vertex -1.75261 0.963507 0
      vertex -1.85955 0.736249 0
    endloop
  endfacet
  facet normal 0 0 -1
    outer loop
      vertex -0.374763 1.96457 0
      vertex -1.87381 9.82287 0
      vertex -0.627905 9.98027 0
    endloop
  endfacet
  facet normal 0 0 -1
    outer loop
      vertex -9.29776 3.68124 0
      vertex -1.85955 0.736249 0
      vertex -1.93717 0.497379 0
    endloop
  endfacet
  facet normal 0 0 -1
    outer loop
      vertex -9.68583 2.4869 0
      vertex -1.93717 0.497379 0
      vertex -1.98423 0.250666 0
    endloop
  endfacet
  facet normal 0 0 -1
    outer loop
      vertex -9.92115 1.25333 0
      vertex -1.98423 0.250666 0
      vertex -2 0 0
    endloop
  endfacet
  facet normal -0 0 -1
    outer loop
      vertex -1.61803 -1.17557 0
      vertex -8.09017 -5.87785 0
      vertex -1.75261 -0.963507 0
    endloop
  endfacet
  facet normal 0 0 -1
    outer loop
      vertex -0.618033 1.90211 0
      vertex -3.09017 9.51056 0
      vertex -1.87381 9.82287 0
    endloop
  endfacet
  facet normal 0 0 -1
    outer loop
      vertex -8.76307 -4.81754 0
      vertex -1.75261 -0.963507 0
      vertex -8.09017 -5.87785 0
    endloop
  endfacet
  facet normal 0 0 -1
    outer loop
      vertex -0.851558 1.80965 0
      vertex -4.25779 9.04827 0
      vertex -3.09017 9.51056 0
    endloop
  endfacet
  facet normal -0 0 -1
    outer loop
      vertex -1.75261 -0.963507 0
      vertex -8.76307 -4.81754 0
      vertex -1.85955 -0.736249 0
    endloop
  endfacet
  facet normal 0 0 -1
    outer loop
      vertex -1.07165 1.68865 0
      vertex -5.35827 8.44328 0
      vertex -4.25779 9.04827 0
    endloop
  endfacet
  facet normal 0 0 -1
    outer loop
      vertex -9.29776 -3.68124 0
      vertex -1.85955 -0.736249 0
      vertex -8.76307 -4.81754 0
    endloop
  endfacet
  facet normal 0 0 -1
    outer loop
      vertex -1.27485 1.54103 0
      vertex -6.37424 7.70513 0
      vertex -5.35827 8.44328 0
    endloop
  endfacet
  facet normal -0 0 -1
    outer loop
      vertex -1.85955 -0.736249 0
      vertex -9.29776 -3.68124 0
      vertex -1.93717 -0.497379 0
    endloop
  endfacet
  facet normal 0 0 -1
    outer loop
      vertex -1.45794 1.36909 0
      vertex -7.28969 6.84547 0
      vertex -6.37424 7.70513 0
    endloop
  endfacet
  facet normal 0 0 -1
    outer loop
      vertex -9.68583 -2.4869 0
      vertex -1.93717 -0.497379 0
      vertex -9.29776 -3.68124 0
    endloop
  endfacet
  facet normal 0 0 -1
    outer loop
      vertex -1.61803 1.17557 0
      vertex -8.09017 5.87785 0
      vertex -7.28969 6.84547 0
    endloop
  endfacet
  facet normal -0 0 -1
    outer loop
      vertex -1.93717 -0.497379 0
      vertex -9.68583 -2.4869 0
      vertex -1.98423 -0.250666 0
    endloop
  endfacet
  facet normal 0 0 -1
    outer loop
      vertex -1.75261 0.963507 0
      vertex -8.76307 4.81754 0
      vertex -8.09017 5.87785 0
    endloop
  endfacet
  facet normal 0 0 -1
    outer loop
      vertex -9.92115 -1.25333 0
      vertex -1.98423 -0.250666 0
      vertex -9.68583 -2.4869 0
    endloop
  endfacet
  facet normal 0 0 -1
    outer loop
      vertex -1.85955 0.736249 0
      vertex -9.29776 3.68124 0
      vertex -8.76307 4.81754 0
    endloop
  endfacet
  facet normal -0 0 -1
    outer loop
      vertex -1.98423 -0.250666 0
      vertex -9.92115 -1.25333 0
      vertex -2 0 0
    endloop
  endfacet
  facet normal 0 0 -1
    outer loop
      vertex -1.93717 0.497379 0
      vertex -9.68583 2.4869 0
      vertex -9.29776 3.68124 0
    endloop
  endfacet
  facet normal 0 0 -1
    outer loop
      vertex -10 0 0
      vertex -2 0 0
      vertex -9.92115 -1.25333 0
    endloop
  endfacet
  facet normal 0 0 -1
    outer loop
      vertex -1.98423 0.250666 0
      vertex -9.92115 1.25333 0
      vertex -9.68583 2.4869 0
    endloop
  endfacet
  facet normal 0 0 -1
    outer loop
      vertex -2 0 0
      vertex -10 0 0
      vertex -9.92115 1.25333 0
    endloop
  endfacet
  facet normal -0.951057 -0.309015 0
    outer loop
      vertex -3.62613 -1.43569 1
      vertex -3.77747 -0.96989 3
      vertex -3.77747 -0.96989 1
    endloop
  endfacet
  facet normal -0.951057 -0.309015 0
    outer loop
      vertex -3.77747 -0.96989 3
      vertex -3.62613 -1.43569 1
      vertex -3.62613 -1.43569 3
    endloop
  endfacet
  facet normal -0.982287 -0.187382 0
    outer loop
      vertex -3.77747 -0.96989 1
      vertex -3.86925 -0.488799 3
      vertex -3.86925 -0.488799 1
    endloop
  endfacet
  facet normal -0.982287 -0.187382 0
    outer loop
      vertex -3.86925 -0.488799 3
      vertex -3.77747 -0.96989 1
      vertex -3.77747 -0.96989 3
    endloop
  endfacet
  facet normal -0.770513 -0.637424 0
    outer loop
      vertex -2.84298 -2.66973 1
      vertex -3.15517 -2.29236 3
      vertex -3.15517 -2.29236 1
    endloop
  endfacet
  facet normal -0.770513 -0.637424 0
    outer loop
      vertex -3.15517 -2.29236 3
      vertex -2.84298 -2.66973 1
      vertex -2.84298 -2.66973 3
    endloop
  endfacet
  facet normal 0.248691 -0.968583 0
    outer loop
      vertex 0.730786 -3.83092 1
      vertex 1.20517 -3.70912 3
      vertex 0.730786 -3.83092 3
    endloop
  endfacet
  facet normal 0.248691 -0.968583 0
    outer loop
      vertex 1.20517 -3.70912 3
      vertex 0.730786 -3.83092 1
      vertex 1.20517 -3.70912 1
    endloop
  endfacet
  facet normal 0.982287 -0.187382 0
    outer loop
      vertex 3.77747 -0.96989 3
      vertex 3.86925 -0.488799 1
      vertex 3.86925 -0.488799 3
    endloop
  endfacet
  facet normal 0.982287 -0.187382 0
    outer loop
      vertex 3.86925 -0.488799 1
      vertex 3.77747 -0.96989 3
      vertex 3.77747 -0.96989 1
    endloop
  endfacet
  facet normal 0.587784 -0.809018 0
    outer loop
      vertex 2.08972 -3.29288 1
      vertex 2.48595 -3.005 3
      vertex 2.08972 -3.29288 3
    endloop
  endfacet
  facet normal 0.587784 -0.809018 0
    outer loop
      vertex 2.48595 -3.005 3
      vertex 2.08972 -3.29288 1
      vertex 2.48595 -3.005 1
    endloop
  endfacet
  facet normal 0 -1 0
    outer loop
      vertex -0.244883 -3.8923 1
      vertex 0.244883 -3.8923 3
      vertex -0.244883 -3.8923 3
    endloop
  endfacet
  facet normal 0 -1 -0
    outer loop
      vertex 0.244883 -3.8923 3
      vertex -0.244883 -3.8923 1
      vertex 0.244883 -3.8923 1
    endloop
  endfacet
  facet normal -0.481754 -0.876306 0
    outer loop
      vertex -2.08972 -3.29288 1
      vertex -1.66054 -3.52882 3
      vertex -2.08972 -3.29288 3
    endloop
  endfacet
  facet normal -0.481754 -0.876306 -0
    outer loop
      vertex -1.66054 -3.52882 3
      vertex -2.08972 -3.29288 1
      vertex -1.66054 -3.52882 1
    endloop
  endfacet
  facet normal -0.587784 -0.809018 0
    outer loop
      vertex -2.48595 -3.005 1
      vertex -2.08972 -3.29288 3
      vertex -2.48595 -3.005 3
    endloop
  endfacet
  facet normal -0.587784 -0.809018 -0
    outer loop
      vertex -2.08972 -3.29288 3
      vertex -2.48595 -3.005 1
      vertex -2.08972 -3.29288 1
    endloop
  endfacet
  facet normal 0.904827 0.425779 0
    outer loop
      vertex 9.29776 3.68124 1
      vertex 8.76307 4.81754 0
      vertex 8.76307 4.81754 1
    endloop
  endfacet
  facet normal 0.904827 0.425779 0
    outer loop
      vertex 8.76307 4.81754 0
      vertex 9.29776 3.68124 1
      vertex 9.29776 3.68124 0
    endloop
  endfacet
  facet normal -0.951057 0.309017 0
    outer loop
      vertex -9.68583 2.4869 0
      vertex -9.29776 3.68124 1
      vertex -9.29776 3.68124 0
    endloop
  endfacet
  facet normal -0.951057 0.309017 0
    outer loop
      vertex -9.29776 3.68124 1
      vertex -9.68583 2.4869 0
      vertex -9.68583 2.4869 1
    endloop
  endfacet
  facet normal 0.844328 0.535826 0
    outer loop
      vertex 8.76307 4.81754 1
      vertex 8.09017 5.87785 0
      vertex 8.09017 5.87785 1
    endloop
  endfacet
  facet normal 0.844328 0.535826 0
    outer loop
      vertex 8.09017 5.87785 0
      vertex 8.76307 4.81754 1
      vertex 8.76307 4.81754 0
    endloop
  endfacet
  facet normal 0.24869 0.968583 -0
    outer loop
      vertex 3.09017 9.51056 0
      vertex 1.87381 9.82287 1
      vertex 3.09017 9.51056 1
    endloop
  endfacet
  facet normal 0.24869 0.968583 0
    outer loop
      vertex 1.87381 9.82287 1
      vertex 3.09017 9.51056 0
      vertex 1.87381 9.82287 0
    endloop
  endfacet
  facet normal 0.368125 0.929776 -0
    outer loop
      vertex 4.25779 9.04827 0
      vertex 3.09017 9.51056 1
      vertex 4.25779 9.04827 1
    endloop
  endfacet
  facet normal 0.368125 0.929776 0
    outer loop
      vertex 3.09017 9.51056 1
      vertex 4.25779 9.04827 0
      vertex 3.09017 9.51056 0
    endloop
  endfacet
  facet normal -0.368125 0.929776 0
    outer loop
      vertex -3.09017 9.51056 0
      vertex -4.25779 9.04827 1
      vertex -3.09017 9.51056 1
    endloop
  endfacet
  facet normal -0.368125 0.929776 0
    outer loop
      vertex -4.25779 9.04827 1
      vertex -3.09017 9.51056 0
      vertex -4.25779 9.04827 0
    endloop
  endfacet
  facet normal -0.904827 0.425779 0
    outer loop
      vertex -9.29776 3.68124 0
      vertex -8.76307 4.81754 1
      vertex -8.76307 4.81754 0
    endloop
  endfacet
  facet normal -0.904827 0.425779 0
    outer loop
      vertex -8.76307 4.81754 1
      vertex -9.29776 3.68124 0
      vertex -9.29776 3.68124 1
    endloop
  endfacet
  facet normal 0.982287 -0.187381 0
    outer loop
      vertex 9.68583 -2.4869 1
      vertex 9.92115 -1.25333 0
      vertex 9.92115 -1.25333 1
    endloop
  endfacet
  facet normal 0.982287 -0.187381 0
    outer loop
      vertex 9.92115 -1.25333 0
      vertex 9.68583 -2.4869 1
      vertex 9.68583 -2.4869 0
    endloop
  endfacet
  facet normal 0.481754 0.876307 -0
    outer loop
      vertex 5.35827 8.44328 0
      vertex 4.25779 9.04827 1
      vertex 5.35827 8.44328 1
    endloop
  endfacet
  facet normal 0.481754 0.876307 0
    outer loop
      vertex 4.25779 9.04827 1
      vertex 5.35827 8.44328 0
      vertex 4.25779 9.04827 0
    endloop
  endfacet
  facet normal -0.770513 0.637424 0
    outer loop
      vertex -8.09017 5.87785 0
      vertex -7.28969 6.84547 1
      vertex -7.28969 6.84547 0
    endloop
  endfacet
  facet normal -0.770513 0.637424 0
    outer loop
      vertex -7.28969 6.84547 1
      vertex -8.09017 5.87785 0
      vertex -8.09017 5.87785 1
    endloop
  endfacet
  facet normal -0.481754 0.876307 0
    outer loop
      vertex -4.25779 9.04827 0
      vertex -5.35827 8.44328 1
      vertex -4.25779 9.04827 1
    endloop
  endfacet
  facet normal -0.481754 0.876307 0
    outer loop
      vertex -5.35827 8.44328 1
      vertex -4.25779 9.04827 0
      vertex -5.35827 8.44328 0
    endloop
  endfacet
  facet normal -0.125333 0.992115 0
    outer loop
      vertex -0.627905 9.98027 0
      vertex -1.87381 9.82287 1
      vertex -0.627905 9.98027 1
    endloop
  endfacet
  facet normal -0.125333 0.992115 0
    outer loop
      vertex -1.87381 9.82287 1
      vertex -0.627905 9.98027 0
      vertex -1.87381 9.82287 0
    endloop
  endfacet
  facet normal 0.998027 0.062791 0
    outer loop
      vertex 10 0 1
      vertex 9.92115 1.25333 0
      vertex 9.92115 1.25333 1
    endloop
  endfacet
  facet normal 0.998027 0.062791 0
    outer loop
      vertex 9.92115 1.25333 0
      vertex 10 0 1
      vertex 10 0 0
    endloop
  endfacet
  facet normal 0.951057 -0.309017 0
    outer loop
      vertex 9.29776 -3.68124 1
      vertex 9.68583 -2.4869 0
      vertex 9.68583 -2.4869 1
    endloop
  endfacet
  facet normal 0.951057 -0.309017 0
    outer loop
      vertex 9.68583 -2.4869 0
      vertex 9.29776 -3.68124 1
      vertex 9.29776 -3.68124 0
    endloop
  endfacet
  facet normal -0.684547 -0.728969 0
    outer loop
      vertex -7.28969 -6.84547 0
      vertex -6.37424 -7.70513 1
      vertex -7.28969 -6.84547 1
    endloop
  endfacet
  facet normal -0.684547 -0.728969 -0
    outer loop
      vertex -6.37424 -7.70513 1
      vertex -7.28969 -6.84547 0
      vertex -6.37424 -7.70513 0
    endloop
  endfacet
  facet normal 0.982287 0.187381 0
    outer loop
      vertex 9.92115 1.25333 1
      vertex 9.68583 2.4869 0
      vertex 9.68583 2.4869 1
    endloop
  endfacet
  facet normal 0.982287 0.187381 0
    outer loop
      vertex 9.68583 2.4869 0
      vertex 9.92115 1.25333 1
      vertex 9.92115 1.25333 0
    endloop
  endfacet
  facet normal 0.951057 0.309017 0
    outer loop
      vertex 9.68583 2.4869 1
      vertex 9.29776 3.68124 0
      vertex 9.29776 3.68124 1
    endloop
  endfacet
  facet normal 0.951057 0.309017 0
    outer loop
      vertex 9.29776 3.68124 0
      vertex 9.68583 2.4869 1
      vertex 9.68583 2.4869 0
    endloop
  endfacet
  facet normal 0.684547 0.728969 -0
    outer loop
      vertex 7.28969 6.84547 0
      vertex 6.37424 7.70513 1
      vertex 7.28969 6.84547 1
    endloop
  endfacet
  facet normal 0.684547 0.728969 0
    outer loop
      vertex 6.37424 7.70513 1
      vertex 7.28969 6.84547 0
      vertex 6.37424 7.70513 0
    endloop
  endfacet
  facet normal 0.770513 0.637424 0
    outer loop
      vertex 8.09017 5.87785 1
      vertex 7.28969 6.84547 0
      vertex 7.28969 6.84547 1
    endloop
  endfacet
  facet normal 0.770513 0.637424 0
    outer loop
      vertex 7.28969 6.84547 0
      vertex 8.09017 5.87785 1
      vertex 8.09017 5.87785 0
    endloop
  endfacet
  facet normal 0 1 -0
    outer loop
      vertex 0.627905 9.98027 0
      vertex -0.627905 9.98027 1
      vertex 0.627905 9.98027 1
    endloop
  endfacet
  facet normal 0 1 0
    outer loop
      vertex -0.627905 9.98027 1
      vertex 0.627905 9.98027 0
      vertex -0.627905 9.98027 0
    endloop
  endfacet
  facet normal 0.587786 0.809017 -0
    outer loop
      vertex 6.37424 7.70513 0
      vertex 5.35827 8.44328 1
      vertex 6.37424 7.70513 1
    endloop
  endfacet
  facet normal 0.587786 0.809017 0
    outer loop
      vertex 5.35827 8.44328 1
      vertex 6.37424 7.70513 0
      vertex 5.35827 8.44328 0
    endloop
  endfacet
  facet normal -0.998027 0.062791 0
    outer loop
      vertex -10 0 0
      vertex -9.92115 1.25333 1
      vertex -9.92115 1.25333 0
    endloop
  endfacet
  facet normal -0.998027 0.062791 0
    outer loop
      vertex -9.92115 1.25333 1
      vertex -10 0 0
      vertex -10 0 1
    endloop
  endfacet
  facet normal -0.844328 0.535826 0
    outer loop
      vertex -8.76307 4.81754 0
      vertex -8.09017 5.87785 1
      vertex -8.09017 5.87785 0
    endloop
  endfacet
  facet normal -0.844328 0.535826 0
    outer loop
      vertex -8.09017 5.87785 1
      vertex -8.76307 4.81754 0
      vertex -8.76307 4.81754 1
    endloop
  endfacet
  facet normal -0.24869 0.968583 0
    outer loop
      vertex -1.87381 9.82287 0
      vertex -3.09017 9.51056 1
      vertex -1.87381 9.82287 1
    endloop
  endfacet
  facet normal -0.24869 0.968583 0
    outer loop
      vertex -3.09017 9.51056 1
      vertex -1.87381 9.82287 0
      vertex -3.09017 9.51056 0
    endloop
  endfacet
  facet normal -0.587786 0.809017 0
    outer loop
      vertex -5.35827 8.44328 0
      vertex -6.37424 7.70513 1
      vertex -5.35827 8.44328 1
    endloop
  endfacet
  facet normal -0.587786 0.809017 0
    outer loop
      vertex -6.37424 7.70513 1
      vertex -5.35827 8.44328 0
      vertex -6.37424 7.70513 0
    endloop
  endfacet
  facet normal -0.684547 0.728969 0
    outer loop
      vertex -6.37424 7.70513 0
      vertex -7.28969 6.84547 1
      vertex -6.37424 7.70513 1
    endloop
  endfacet
  facet normal -0.684547 0.728969 0
    outer loop
      vertex -7.28969 6.84547 1
      vertex -6.37424 7.70513 0
      vertex -7.28969 6.84547 0
    endloop
  endfacet
  facet normal 0.998027 -0.062791 0
    outer loop
      vertex 9.92115 -1.25333 1
      vertex 10 0 0
      vertex 10 0 1
    endloop
  endfacet
  facet normal 0.998027 -0.062791 0
    outer loop
      vertex 10 0 0
      vertex 9.92115 -1.25333 1
      vertex 9.92115 -1.25333 0
    endloop
  endfacet
  facet normal -0.770513 -0.637424 0
    outer loop
      vertex -7.28969 -6.84547 0
      vertex -8.09017 -5.87785 1
      vertex -8.09017 -5.87785 0
    endloop
  endfacet
  facet normal -0.770513 -0.637424 0
    outer loop
      vertex -8.09017 -5.87785 1
      vertex -7.28969 -6.84547 0
      vertex -7.28969 -6.84547 1
    endloop
  endfacet
  facet normal 0.125333 -0.992115 0
    outer loop
      vertex 0.627905 -9.98027 0
      vertex 1.87381 -9.82287 1
      vertex 0.627905 -9.98027 1
    endloop
  endfacet
  facet normal 0.125333 -0.992115 0
    outer loop
      vertex 1.87381 -9.82287 1
      vertex 0.627905 -9.98027 0
      vertex 1.87381 -9.82287 0
    endloop
  endfacet
  facet normal 0.368125 -0.929776 0
    outer loop
      vertex 3.09017 -9.51056 0
      vertex 4.25779 -9.04827 1
      vertex 3.09017 -9.51056 1
    endloop
  endfacet
  facet normal 0.368125 -0.929776 0
    outer loop
      vertex 4.25779 -9.04827 1
      vertex 3.09017 -9.51056 0
      vertex 4.25779 -9.04827 0
    endloop
  endfacet
  facet normal 0.125333 0.992115 -0
    outer loop
      vertex 1.87381 9.82287 0
      vertex 0.627905 9.98027 1
      vertex 1.87381 9.82287 1
    endloop
  endfacet
  facet normal 0.125333 0.992115 0
    outer loop
      vertex 0.627905 9.98027 1
      vertex 1.87381 9.82287 0
      vertex 0.627905 9.98027 0
    endloop
  endfacet
  facet normal 0 0 1
    outer loop
      vertex 3.9 0 1
      vertex 10 0 1
      vertex 9.92115 1.25333 1
    endloop
  endfacet
  facet normal 0 0 1
    outer loop
      vertex 3.86925 0.488799 1
      vertex 9.92115 1.25333 1
      vertex 9.68583 2.4869 1
    endloop
  endfacet
  facet normal 0 0 1
    outer loop
      vertex 10 0 1
      vertex 3.9 0 1
      vertex 9.92115 -1.25333 1
    endloop
  endfacet
  facet normal 0 0 1
    outer loop
      vertex 3.77747 0.96989 1
      vertex 9.68583 2.4869 1
      vertex 9.29776 3.68124 1
    endloop
  endfacet
  facet normal -0 0 1
    outer loop
      vertex 3.86925 -0.488799 1
      vertex 9.92115 -1.25333 1
      vertex 3.9 0 1
    endloop
  endfacet
  facet normal 0 0 1
    outer loop
      vertex 3.62613 1.43569 1
      vertex 9.29776 3.68124 1
      vertex 8.76307 4.81754 1
    endloop
  endfacet
  facet normal 0 0 1
    outer loop
      vertex 9.92115 -1.25333 1
      vertex 3.86925 -0.488799 1
      vertex 9.68583 -2.4869 1
    endloop
  endfacet
  facet normal 0 0 1
    outer loop
      vertex 3.4176 1.87884 1
      vertex 8.76307 4.81754 1
      vertex 8.09017 5.87785 1
    endloop
  endfacet
  facet normal -0 0 1
    outer loop
      vertex 3.77747 -0.96989 1
      vertex 9.68583 -2.4869 1
      vertex 3.86925 -0.488799 1
    endloop
  endfacet
  facet normal 0 0 1
    outer loop
      vertex 3.15517 2.29236 1
      vertex 8.09017 5.87785 1
      vertex 7.28969 6.84547 1
    endloop
  endfacet
  facet normal 0 0 1
    outer loop
      vertex 9.68583 -2.4869 1
      vertex 3.77747 -0.96989 1
      vertex 9.29776 -3.68124 1
    endloop
  endfacet
  facet normal 0 0 1
    outer loop
      vertex 2.84298 2.66973 1
      vertex 7.28969 6.84547 1
      vertex 6.37424 7.70513 1
    endloop
  endfacet
  facet normal -0 0 1
    outer loop
      vertex 3.62613 -1.43569 1
      vertex 9.29776 -3.68124 1
      vertex 3.77747 -0.96989 1
    endloop
  endfacet
  facet normal 0 0 1
    outer loop
      vertex 2.48595 3.005 1
      vertex 6.37424 7.70513 1
      vertex 5.35827 8.44328 1
    endloop
  endfacet
  facet normal 0 0 1
    outer loop
      vertex 9.29776 -3.68124 1
      vertex 3.62613 -1.43569 1
      vertex 8.76307 -4.81754 1
    endloop
  endfacet
  facet normal 0 0 1
    outer loop
      vertex 2.08972 3.29288 1
      vertex 5.35827 8.44328 1
      vertex 4.25779 9.04827 1
    endloop
  endfacet
  facet normal -0 0 1
    outer loop
      vertex 3.4176 -1.87884 1
      vertex 8.76307 -4.81754 1
      vertex 3.62613 -1.43569 1
    endloop
  endfacet
  facet normal 0 0 1
    outer loop
      vertex 8.76307 -4.81754 1
      vertex 3.4176 -1.87884 1
      vertex 8.09017 -5.87785 1
    endloop
  endfacet
  facet normal 0 0 1
    outer loop
      vertex 9.92115 1.25333 1
      vertex 3.86925 0.488799 1
      vertex 3.9 0 1
    endloop
  endfacet
  facet normal 0 0 1
    outer loop
      vertex 9.68583 2.4869 1
      vertex 3.77747 0.96989 1
      vertex 3.86925 0.488799 1
    endloop
  endfacet
  facet normal 0 0 1
    outer loop
      vertex 9.29776 3.68124 1
      vertex 3.62613 1.43569 1
      vertex 3.77747 0.96989 1
    endloop
  endfacet
  facet normal 0 0 1
    outer loop
      vertex 8.76307 4.81754 1
      vertex 3.4176 1.87884 1
      vertex 3.62613 1.43569 1
    endloop
  endfacet
  facet normal 0 0 1
    outer loop
      vertex 8.09017 5.87785 1
      vertex 3.15517 2.29236 1
      vertex 3.4176 1.87884 1
    endloop
  endfacet
  facet normal 0 0 1
    outer loop
      vertex 1.66054 3.52882 1
      vertex 4.25779 9.04827 1
      vertex 3.09017 9.51056 1
    endloop
  endfacet
  facet normal 0 0 1
    outer loop
      vertex 7.28969 6.84547 1
      vertex 2.84298 2.66973 1
      vertex 3.15517 2.29236 1
    endloop
  endfacet
  facet normal 0 0 1
    outer loop
      vertex 6.37424 7.70513 1
      vertex 2.48595 3.005 1
      vertex 2.84298 2.66973 1
    endloop
  endfacet
  facet normal 0 0 1
    outer loop
      vertex 5.35827 8.44328 1
      vertex 2.08972 3.29288 1
      vertex 2.48595 3.005 1
    endloop
  endfacet
  facet normal 0 0 1
    outer loop
      vertex 1.20517 3.70912 1
      vertex 3.09017 9.51056 1
      vertex 1.87381 9.82287 1
    endloop
  endfacet
  facet normal 0 0 1
    outer loop
      vertex 4.25779 9.04827 1
      vertex 1.66054 3.52882 1
      vertex 2.08972 3.29288 1
    endloop
  endfacet
  facet normal 0 0 1
    outer loop
      vertex 3.09017 9.51056 1
      vertex 1.20517 3.70912 1
      vertex 1.66054 3.52882 1
    endloop
  endfacet
  facet normal 0 0 1
    outer loop
      vertex 1.87381 9.82287 1
      vertex 0.730786 3.83092 1
      vertex 1.20517 3.70912 1
    endloop
  endfacet
  facet normal 0 0 1
    outer loop
      vertex 0.627905 9.98027 1
      vertex 0.730786 3.83092 1
      vertex 1.87381 9.82287 1
    endloop
  endfacet
  facet normal 0 0 1
    outer loop
      vertex 0.627905 9.98027 1
      vertex 0.244883 3.8923 1
      vertex 0.730786 3.83092 1
    endloop
  endfacet
  facet normal 0 0 1
    outer loop
      vertex 0.627905 9.98027 1
      vertex -0.244883 3.8923 1
      vertex 0.244883 3.8923 1
    endloop
  endfacet
  facet normal -0 0 1
    outer loop
      vertex -0.627905 9.98027 1
      vertex -0.244883 3.8923 1
      vertex 0.627905 9.98027 1
    endloop
  endfacet
  facet normal 0 0 1
    outer loop
      vertex -0.627905 9.98027 1
      vertex -0.730786 3.83092 1
      vertex -0.244883 3.8923 1
    endloop
  endfacet
  facet normal -0 0 1
    outer loop
      vertex -1.87381 9.82287 1
      vertex -0.730786 3.83092 1
      vertex -0.627905 9.98027 1
    endloop
  endfacet
  facet normal 0 0 1
    outer loop
      vertex -0.730786 3.83092 1
      vertex -1.87381 9.82287 1
      vertex -1.20517 3.70912 1
    endloop
  endfacet
  facet normal -0 0 1
    outer loop
      vertex -3.09017 9.51056 1
      vertex -1.20517 3.70912 1
      vertex -1.87381 9.82287 1
    endloop
  endfacet
  facet normal 0 0 1
    outer loop
      vertex -1.20517 3.70912 1
      vertex -3.09017 9.51056 1
      vertex -1.66054 3.52882 1
    endloop
  endfacet
  facet normal -0 0 1
    outer loop
      vertex -4.25779 9.04827 1
      vertex -1.66054 3.52882 1
      vertex -3.09017 9.51056 1
    endloop
  endfacet
  facet normal 0 0 1
    outer loop
      vertex -1.66054 3.52882 1
      vertex -4.25779 9.04827 1
      vertex -2.08972 3.29288 1
    endloop
  endfacet
  facet normal -0 0 1
    outer loop
      vertex -5.35827 8.44328 1
      vertex -2.08972 3.29288 1
      vertex -4.25779 9.04827 1
    endloop
  endfacet
  facet normal 0 0 1
    outer loop
      vertex -2.08972 3.29288 1
      vertex -5.35827 8.44328 1
      vertex -2.48595 3.005 1
    endloop
  endfacet
  facet normal -0 0 1
    outer loop
      vertex -6.37424 7.70513 1
      vertex -2.48595 3.005 1
      vertex -5.35827 8.44328 1
    endloop
  endfacet
  facet normal 0 0 1
    outer loop
      vertex -2.48595 3.005 1
      vertex -6.37424 7.70513 1
      vertex -2.84298 2.66973 1
    endloop
  endfacet
  facet normal -0 0 1
    outer loop
      vertex -7.28969 6.84547 1
      vertex -2.84298 2.66973 1
      vertex -6.37424 7.70513 1
    endloop
  endfacet
  facet normal 0 0 1
    outer loop
      vertex -2.84298 2.66973 1
      vertex -7.28969 6.84547 1
      vertex -3.15517 2.29236 1
    endloop
  endfacet
  facet normal 0 0 1
    outer loop
      vertex -3.15517 2.29236 1
      vertex -8.09017 5.87785 1
      vertex -3.4176 1.87884 1
    endloop
  endfacet
  facet normal -0 0 1
    outer loop
      vertex -8.09017 5.87785 1
      vertex -3.15517 2.29236 1
      vertex -7.28969 6.84547 1
    endloop
  endfacet
  facet normal -0 0 1
    outer loop
      vertex 3.15517 -2.29236 1
      vertex 8.09017 -5.87785 1
      vertex 3.4176 -1.87884 1
    endloop
  endfacet
  facet normal 0 0 1
    outer loop
      vertex 8.09017 -5.87785 1
      vertex 3.15517 -2.29236 1
      vertex 7.28969 -6.84547 1
    endloop
  endfacet
  facet normal -0 0 1
    outer loop
      vertex 2.84298 -2.66973 1
      vertex 7.28969 -6.84547 1
      vertex 3.15517 -2.29236 1
    endloop
  endfacet
  facet normal 0 0 1
    outer loop
      vertex 7.28969 -6.84547 1
      vertex 2.84298 -2.66973 1
      vertex 6.37424 -7.70513 1
    endloop
  endfacet
  facet normal -0 0 1
    outer loop
      vertex 2.48595 -3.005 1
      vertex 6.37424 -7.70513 1
      vertex 2.84298 -2.66973 1
    endloop
  endfacet
  facet normal 0 0 1
    outer loop
      vertex 6.37424 -7.70513 1
      vertex 2.48595 -3.005 1
      vertex 5.35827 -8.44328 1
    endloop
  endfacet
  facet normal -0 0 1
    outer loop
      vertex 2.08972 -3.29288 1
      vertex 5.35827 -8.44328 1
      vertex 2.48595 -3.005 1
    endloop
  endfacet
  facet normal 0 0 1
    outer loop
      vertex 5.35827 -8.44328 1
      vertex 2.08972 -3.29288 1
      vertex 4.25779 -9.04827 1
    endloop
  endfacet
  facet normal -0 0 1
    outer loop
      vertex 1.66054 -3.52882 1
      vertex 4.25779 -9.04827 1
      vertex 2.08972 -3.29288 1
    endloop
  endfacet
  facet normal 0 0 1
    outer loop
      vertex 4.25779 -9.04827 1
      vertex 1.66054 -3.52882 1
      vertex 3.09017 -9.51056 1
    endloop
  endfacet
  facet normal -0 0 1
    outer loop
      vertex 1.20517 -3.70912 1
      vertex 3.09017 -9.51056 1
      vertex 1.66054 -3.52882 1
    endloop
  endfacet
  facet normal 0 0 1
    outer loop
      vertex 3.09017 -9.51056 1
      vertex 1.20517 -3.70912 1
      vertex 1.87381 -9.82287 1
    endloop
  endfacet
  facet normal -0 0 1
    outer loop
      vertex 0.730786 -3.83092 1
      vertex 1.87381 -9.82287 1
      vertex 1.20517 -3.70912 1
    endloop
  endfacet
  facet normal 0 0 1
    outer loop
      vertex 0.730786 -3.83092 1
      vertex 0.627905 -9.98027 1
      vertex 1.87381 -9.82287 1
    endloop
  endfacet
  facet normal -0 0 1
    outer loop
      vertex 0.244883 -3.8923 1
      vertex 0.627905 -9.98027 1
      vertex 0.730786 -3.83092 1
    endloop
  endfacet
  facet normal -0 0 1
    outer loop
      vertex -0.244883 -3.8923 1
      vertex 0.627905 -9.98027 1
      vertex 0.244883 -3.8923 1
    endloop
  endfacet
  facet normal 0 0 1
    outer loop
      vertex -0.244883 -3.8923 1
      vertex -0.627905 -9.98027 1
      vertex 0.627905 -9.98027 1
    endloop
  endfacet
  facet normal 0 0 1
    outer loop
      vertex -0.730786 -3.83092 1
      vertex -0.627905 -9.98027 1
      vertex -0.244883 -3.8923 1
    endloop
  endfacet
  facet normal 0 0 1
    outer loop
      vertex -1.87381 -9.82287 1
      vertex -0.730786 -3.83092 1
      vertex -1.20517 -3.70912 1
    endloop
  endfacet
  facet normal 0 0 1
    outer loop
      vertex -3.09017 -9.51056 1
      vertex -1.20517 -3.70912 1
      vertex -1.66054 -3.52882 1
    endloop
  endfacet
  facet normal 0 0 1
    outer loop
      vertex -0.730786 -3.83092 1
      vertex -1.87381 -9.82287 1
      vertex -0.627905 -9.98027 1
    endloop
  endfacet
  facet normal 0 0 1
    outer loop
      vertex -4.25779 -9.04827 1
      vertex -1.66054 -3.52882 1
      vertex -2.08972 -3.29288 1
    endloop
  endfacet
  facet normal 0 0 1
    outer loop
      vertex -5.35827 -8.44328 1
      vertex -2.08972 -3.29288 1
      vertex -2.48595 -3.005 1
    endloop
  endfacet
  facet normal 0 0 1
    outer loop
      vertex -6.37424 -7.70513 1
      vertex -2.48595 -3.005 1
      vertex -2.84298 -2.66973 1
    endloop
  endfacet
  facet normal 0 0 1
    outer loop
      vertex -1.20517 -3.70912 1
      vertex -3.09017 -9.51056 1
      vertex -1.87381 -9.82287 1
    endloop
  endfacet
  facet normal 0 0 1
    outer loop
      vertex -7.28969 -6.84547 1
      vertex -2.84298 -2.66973 1
      vertex -3.15517 -2.29236 1
    endloop
  endfacet
  facet normal 0 0 1
    outer loop
      vertex -8.09017 -5.87785 1
      vertex -3.15517 -2.29236 1
      vertex -3.4176 -1.87884 1
    endloop
  endfacet
  facet normal 0 0 1
    outer loop
      vertex -8.76307 -4.81754 1
      vertex -3.4176 -1.87884 1
      vertex -3.62613 -1.43569 1
    endloop
  endfacet
  facet normal 0 0 1
    outer loop
      vertex -9.29776 -3.68124 1
      vertex -3.62613 -1.43569 1
      vertex -3.77747 -0.96989 1
    endloop
  endfacet
  facet normal 0 0 1
    outer loop
      vertex -9.68583 -2.4869 1
      vertex -3.77747 -0.96989 1
      vertex -3.86925 -0.488799 1
    endloop
  endfacet
  facet normal 0 0 1
    outer loop
      vertex -1.66054 -3.52882 1
      vertex -4.25779 -9.04827 1
      vertex -3.09017 -9.51056 1
    endloop
  endfacet
  facet normal 0 0 1
    outer loop
      vertex -9.92115 -1.25333 1
      vertex -3.86925 -0.488799 1
      vertex -3.9 0 1
    endloop
  endfacet
  facet normal -0 0 1
    outer loop
      vertex -8.76307 4.81754 1
      vertex -3.4176 1.87884 1
      vertex -8.09017 5.87785 1
    endloop
  endfacet
  facet normal 0 0 1
    outer loop
      vertex -3.4176 1.87884 1
      vertex -8.76307 4.81754 1
      vertex -3.62613 1.43569 1
    endloop
  endfacet
  facet normal 0 0 1
    outer loop
      vertex -2.08972 -3.29288 1
      vertex -5.35827 -8.44328 1
      vertex -4.25779 -9.04827 1
    endloop
  endfacet
  facet normal -0 0 1
    outer loop
      vertex -9.29776 3.68124 1
      vertex -3.62613 1.43569 1
      vertex -8.76307 4.81754 1
    endloop
  endfacet
  facet normal 0 0 1
    outer loop
      vertex -2.48595 -3.005 1
      vertex -6.37424 -7.70513 1
      vertex -5.35827 -8.44328 1
    endloop
  endfacet
  facet normal 0 0 1
    outer loop
      vertex -3.62613 1.43569 1
      vertex -9.29776 3.68124 1
      vertex -3.77747 0.96989 1
    endloop
  endfacet
  facet normal 0 0 1
    outer loop
      vertex -2.84298 -2.66973 1
      vertex -7.28969 -6.84547 1
      vertex -6.37424 -7.70513 1
    endloop
  endfacet
  facet normal -0 0 1
    outer loop
      vertex -9.68583 2.4869 1
      vertex -3.77747 0.96989 1
      vertex -9.29776 3.68124 1
    endloop
  endfacet
  facet normal 0 0 1
    outer loop
      vertex -3.15517 -2.29236 1
      vertex -8.09017 -5.87785 1
      vertex -7.28969 -6.84547 1
    endloop
  endfacet
  facet normal 0 0 1
    outer loop
      vertex -3.77747 0.96989 1
      vertex -9.68583 2.4869 1
      vertex -3.86925 0.488799 1
    endloop
  endfacet
  facet normal 0 0 1
    outer loop
      vertex -3.4176 -1.87884 1
      vertex -8.76307 -4.81754 1
      vertex -8.09017 -5.87785 1
    endloop
  endfacet
  facet normal -0 0 1
    outer loop
      vertex -9.92115 1.25333 1
      vertex -3.86925 0.488799 1
      vertex -9.68583 2.4869 1
    endloop
  endfacet
  facet normal 0 0 1
    outer loop
      vertex -3.62613 -1.43569 1
      vertex -9.29776 -3.68124 1
      vertex -8.76307 -4.81754 1
    endloop
  endfacet
  facet normal 0 0 1
    outer loop
      vertex -3.86925 0.488799 1
      vertex -9.92115 1.25333 1
      vertex -3.9 0 1
    endloop
  endfacet
  facet normal 0 0 1
    outer loop
      vertex -3.77747 -0.96989 1
      vertex -9.68583 -2.4869 1
      vertex -9.29776 -3.68124 1
    endloop
  endfacet
  facet normal 0 0 1
    outer loop
      vertex -10 0 1
      vertex -3.9 0 1
      vertex -9.92115 1.25333 1
    endloop
  endfacet
  facet normal 0 0 1
    outer loop
      vertex -3.86925 -0.488799 1
      vertex -9.92115 -1.25333 1
      vertex -9.68583 -2.4869 1
    endloop
  endfacet
  facet normal 0 0 1
    outer loop
      vertex -3.9 0 1
      vertex -10 0 1
      vertex -9.92115 -1.25333 1
    endloop
  endfacet
  facet normal -0.982287 0.187381 0
    outer loop
      vertex -9.92115 1.25333 0
      vertex -9.68583 2.4869 1
      vertex -9.68583 2.4869 0
    endloop
  endfacet
  facet normal -0.982287 0.187381 0
    outer loop
      vertex -9.68583 2.4869 1
      vertex -9.92115 1.25333 0
      vertex -9.92115 1.25333 1
    endloop
  endfacet
  facet normal 0.770513 -0.637424 0
    outer loop
      vertex 7.28969 -6.84547 1
      vertex 8.09017 -5.87785 0
      vertex 8.09017 -5.87785 1
    endloop
  endfacet
  facet normal 0.770513 -0.637424 0
    outer loop
      vertex 8.09017 -5.87785 0
      vertex 7.28969 -6.84547 1
      vertex 7.28969 -6.84547 0
    endloop
  endfacet
  facet normal 0.844328 -0.535826 0
    outer loop
      vertex 8.09017 -5.87785 1
      vertex 8.76307 -4.81754 0
      vertex 8.76307 -4.81754 1
    endloop
  endfacet
  facet normal 0.844328 -0.535826 0
    outer loop
      vertex 8.76307 -4.81754 0
      vertex 8.09017 -5.87785 1
      vertex 8.09017 -5.87785 0
    endloop
  endfacet
  facet normal 0.904827 -0.425779 0
    outer loop
      vertex 8.76307 -4.81754 1
      vertex 9.29776 -3.68124 0
      vertex 9.29776 -3.68124 1
    endloop
  endfacet
  facet normal 0.904827 -0.425779 0
    outer loop
      vertex 9.29776 -3.68124 0
      vertex 8.76307 -4.81754 1
      vertex 8.76307 -4.81754 0
    endloop
  endfacet
  facet normal -0.481754 -0.876307 0
    outer loop
      vertex -5.35827 -8.44328 0
      vertex -4.25779 -9.04827 1
      vertex -5.35827 -8.44328 1
    endloop
  endfacet
  facet normal -0.481754 -0.876307 -0
    outer loop
      vertex -4.25779 -9.04827 1
      vertex -5.35827 -8.44328 0
      vertex -4.25779 -9.04827 0
    endloop
  endfacet
  facet normal -0.24869 -0.968583 0
    outer loop
      vertex -3.09017 -9.51056 0
      vertex -1.87381 -9.82287 1
      vertex -3.09017 -9.51056 1
    endloop
  endfacet
  facet normal -0.24869 -0.968583 -0
    outer loop
      vertex -1.87381 -9.82287 1
      vertex -3.09017 -9.51056 0
      vertex -1.87381 -9.82287 0
    endloop
  endfacet
  facet normal -0.125333 -0.992115 0
    outer loop
      vertex -1.87381 -9.82287 0
      vertex -0.627905 -9.98027 1
      vertex -1.87381 -9.82287 1
    endloop
  endfacet
  facet normal -0.125333 -0.992115 -0
    outer loop
      vertex -0.627905 -9.98027 1
      vertex -1.87381 -9.82287 0
      vertex -0.627905 -9.98027 0
    endloop
  endfacet
  facet normal -0.998027 -0.062791 0
    outer loop
      vertex -9.92115 -1.25333 0
      vertex -10 0 1
      vertex -10 0 0
    endloop
  endfacet
  facet normal -0.998027 -0.062791 0
    outer loop
      vertex -10 0 1
      vertex -9.92115 -1.25333 0
      vertex -9.92115 -1.25333 1
    endloop
  endfacet
  facet normal -0.951057 -0.309017 0
    outer loop
      vertex -9.29776 -3.68124 0
      vertex -9.68583 -2.4869 1
      vertex -9.68583 -2.4869 0
    endloop
  endfacet
  facet normal -0.951057 -0.309017 0
    outer loop
      vertex -9.68583 -2.4869 1
      vertex -9.29776 -3.68124 0
      vertex -9.29776 -3.68124 1
    endloop
  endfacet
  facet normal 0.24869 -0.968583 0
    outer loop
      vertex 1.87381 -9.82287 0
      vertex 3.09017 -9.51056 1
      vertex 1.87381 -9.82287 1
    endloop
  endfacet
  facet normal 0.24869 -0.968583 0
    outer loop
      vertex 3.09017 -9.51056 1
      vertex 1.87381 -9.82287 0
      vertex 3.09017 -9.51056 0
    endloop
  endfacet
  facet normal 0.684547 -0.728969 0
    outer loop
      vertex 6.37424 -7.70513 0
      vertex 7.28969 -6.84547 1
      vertex 6.37424 -7.70513 1
    endloop
  endfacet
  facet normal 0.684547 -0.728969 0
    outer loop
      vertex 7.28969 -6.84547 1
      vertex 6.37424 -7.70513 0
      vertex 7.28969 -6.84547 0
    endloop
  endfacet
  facet normal 0.587786 -0.809017 0
    outer loop
      vertex 5.35827 -8.44328 0
      vertex 6.37424 -7.70513 1
      vertex 5.35827 -8.44328 1
    endloop
  endfacet
  facet normal 0.587786 -0.809017 0
    outer loop
      vertex 6.37424 -7.70513 1
      vertex 5.35827 -8.44328 0
      vertex 6.37424 -7.70513 0
    endloop
  endfacet
  facet normal 0.481754 -0.876307 0
    outer loop
      vertex 4.25779 -9.04827 0
      vertex 5.35827 -8.44328 1
      vertex 4.25779 -9.04827 1
    endloop
  endfacet
  facet normal 0.481754 -0.876307 0
    outer loop
      vertex 5.35827 -8.44328 1
      vertex 4.25779 -9.04827 0
      vertex 5.35827 -8.44328 0
    endloop
  endfacet
  facet normal 0 -1 0
    outer loop
      vertex -0.627905 -9.98027 0
      vertex 0.627905 -9.98027 1
      vertex -0.627905 -9.98027 1
    endloop
  endfacet
  facet normal 0 -1 -0
    outer loop
      vertex 0.627905 -9.98027 1
      vertex -0.627905 -9.98027 0
      vertex 0.627905 -9.98027 0
    endloop
  endfacet
  facet normal -0.587786 -0.809017 0
    outer loop
      vertex -6.37424 -7.70513 0
      vertex -5.35827 -8.44328 1
      vertex -6.37424 -7.70513 1
    endloop
  endfacet
  facet normal -0.587786 -0.809017 -0
    outer loop
      vertex -5.35827 -8.44328 1
      vertex -6.37424 -7.70513 0
      vertex -5.35827 -8.44328 0
    endloop
  endfacet
  facet normal -0.982287 -0.187381 0
    outer loop
      vertex -9.68583 -2.4869 0
      vertex -9.92115 -1.25333 1
      vertex -9.92115 -1.25333 0
    endloop
  endfacet
  facet normal -0.982287 -0.187381 0
    outer loop
      vertex -9.92115 -1.25333 1
      vertex -9.68583 -2.4869 0
      vertex -9.68583 -2.4869 1
    endloop
  endfacet
  facet normal -0.844328 -0.535826 0
    outer loop
      vertex -8.09017 -5.87785 0
      vertex -8.76307 -4.81754 1
      vertex -8.76307 -4.81754 0
    endloop
  endfacet
  facet normal -0.844328 -0.535826 0
    outer loop
      vertex -8.76307 -4.81754 1
      vertex -8.09017 -5.87785 0
      vertex -8.09017 -5.87785 1
    endloop
  endfacet
  facet normal -0.904827 -0.425779 0
    outer loop
      vertex -8.76307 -4.81754 0
      vertex -9.29776 -3.68124 1
      vertex -9.29776 -3.68124 0
    endloop
  endfacet
  facet normal -0.904827 -0.425779 0
    outer loop
      vertex -9.29776 -3.68124 1
      vertex -8.76307 -4.81754 0
      vertex -8.76307 -4.81754 1
    endloop
  endfacet
  facet normal -0.368125 -0.929776 0
    outer loop
      vertex -4.25779 -9.04827 0
      vertex -3.09017 -9.51056 1
      vertex -4.25779 -9.04827 1
    endloop
  endfacet
  facet normal -0.368125 -0.929776 -0
    outer loop
      vertex -3.09017 -9.51056 1
      vertex -4.25779 -9.04827 0
      vertex -3.09017 -9.51056 0
    endloop
  endfacet
  facet normal -0.998027 -0.062792 0
    outer loop
      vertex 2 0 0
      vertex 1.98423 0.250666 3
      vertex 1.98423 0.250666 0
    endloop
  endfacet
  facet normal -0.998027 -0.062792 0
    outer loop
      vertex 1.98423 0.250666 3
      vertex 2 0 0
      vertex 2 0 3
    endloop
  endfacet
  facet normal 0.998027 -0.062792 0
    outer loop
      vertex -2 0 3
      vertex -1.98423 0.250666 0
      vertex -1.98423 0.250666 3
    endloop
  endfacet
  facet normal 0.998027 -0.062792 0
    outer loop
      vertex -1.98423 0.250666 0
      vertex -2 0 3
      vertex -2 0 0
    endloop
  endfacet
  facet normal 0 -1 0
    outer loop
      vertex -0.125581 1.99605 0
      vertex 0.125581 1.99605 3
      vertex -0.125581 1.99605 3
    endloop
  endfacet
  facet normal 0 -1 -0
    outer loop
      vertex 0.125581 1.99605 3
      vertex -0.125581 1.99605 0
      vertex 0.125581 1.99605 0
    endloop
  endfacet
  facet normal 0 1 -0
    outer loop
      vertex 0.125581 -1.99605 0
      vertex -0.125581 -1.99605 3
      vertex 0.125581 -1.99605 3
    endloop
  endfacet
  facet normal 0 1 0
    outer loop
      vertex -0.125581 -1.99605 3
      vertex 0.125581 -1.99605 0
      vertex -0.125581 -1.99605 0
    endloop
  endfacet
  facet normal -0.684545 0.72897 0
    outer loop
      vertex 1.45794 -1.36909 0
      vertex 1.27485 -1.54103 3
      vertex 1.45794 -1.36909 3
    endloop
  endfacet
  facet normal -0.684545 0.72897 0
    outer loop
      vertex 1.27485 -1.54103 3
      vertex 1.45794 -1.36909 0
      vertex 1.27485 -1.54103 0
    endloop
  endfacet
  facet normal -0.684545 -0.72897 0
    outer loop
      vertex 1.27485 1.54103 0
      vertex 1.45794 1.36909 3
      vertex 1.27485 1.54103 3
    endloop
  endfacet
  facet normal -0.684545 -0.72897 -0
    outer loop
      vertex 1.45794 1.36909 3
      vertex 1.27485 1.54103 0
      vertex 1.45794 1.36909 0
    endloop
  endfacet
  facet normal 0.684545 -0.72897 0
    outer loop
      vertex -1.45794 1.36909 0
      vertex -1.27485 1.54103 3
      vertex -1.45794 1.36909 3
    endloop
  endfacet
  facet normal 0.684545 -0.72897 0
    outer loop
      vertex -1.27485 1.54103 3
      vertex -1.45794 1.36909 0
      vertex -1.27485 1.54103 0
    endloop
  endfacet
  facet normal 0.368128 -0.929775 0
    outer loop
      vertex -0.851558 1.80965 0
      vertex -0.618033 1.90211 3
      vertex -0.851558 1.80965 3
    endloop
  endfacet
  facet normal 0.368128 -0.929775 0
    outer loop
      vertex -0.618033 1.90211 3
      vertex -0.851558 1.80965 0
      vertex -0.618033 1.90211 0
    endloop
  endfacet
  facet normal -0.904827 -0.425779 0
    outer loop
      vertex 1.85955 0.736249 0
      vertex 1.75261 0.963507 3
      vertex 1.75261 0.963507 0
    endloop
  endfacet
  facet normal -0.904827 -0.425779 0
    outer loop
      vertex 1.75261 0.963507 3
      vertex 1.85955 0.736249 0
      vertex 1.85955 0.736249 3
    endloop
  endfacet
  facet normal -0.982287 -0.18738 0
    outer loop
      vertex 1.98423 0.250666 0
      vertex 1.93717 0.497379 3
      vertex 1.93717 0.497379 0
    endloop
  endfacet
  facet normal -0.982287 -0.18738 0
    outer loop
      vertex 1.93717 0.497379 3
      vertex 1.98423 0.250666 0
      vertex 1.98423 0.250666 3
    endloop
  endfacet
  facet normal -0.368128 -0.929775 0
    outer loop
      vertex 0.618033 1.90211 0
      vertex 0.851558 1.80965 3
      vertex 0.618033 1.90211 3
    endloop
  endfacet
  facet normal -0.368128 -0.929775 -0
    outer loop
      vertex 0.851558 1.80965 3
      vertex 0.618033 1.90211 0
      vertex 0.851558 1.80965 0
    endloop
  endfacet
  facet normal -0.587785 -0.809017 0
    outer loop
      vertex 1.07165 1.68865 0
      vertex 1.27485 1.54103 3
      vertex 1.07165 1.68865 3
    endloop
  endfacet
  facet normal -0.587785 -0.809017 -0
    outer loop
      vertex 1.27485 1.54103 3
      vertex 1.07165 1.68865 0
      vertex 1.27485 1.54103 0
    endloop
  endfacet
  facet normal 0.904827 -0.425779 0
    outer loop
      vertex -1.85955 0.736249 3
      vertex -1.75261 0.963507 0
      vertex -1.75261 0.963507 3
    endloop
  endfacet
  facet normal 0.904827 -0.425779 0
    outer loop
      vertex -1.75261 0.963507 0
      vertex -1.85955 0.736249 3
      vertex -1.85955 0.736249 0
    endloop
  endfacet
  facet normal 0.951056 -0.309018 0
    outer loop
      vertex -1.93717 0.497379 3
      vertex -1.85955 0.736249 0
      vertex -1.85955 0.736249 3
    endloop
  endfacet
  facet normal 0.951056 -0.309018 0
    outer loop
      vertex -1.85955 0.736249 0
      vertex -1.93717 0.497379 3
      vertex -1.93717 0.497379 0
    endloop
  endfacet
  facet normal 0.481753 -0.876307 0
    outer loop
      vertex -1.07165 1.68865 0
      vertex -0.851558 1.80965 3
      vertex -1.07165 1.68865 3
    endloop
  endfacet
  facet normal 0.481753 -0.876307 0
    outer loop
      vertex -0.851558 1.80965 3
      vertex -1.07165 1.68865 0
      vertex -0.851558 1.80965 0
    endloop
  endfacet
  facet normal 0.248688 -0.968584 0
    outer loop
      vertex -0.618033 1.90211 0
      vertex -0.374763 1.96457 3
      vertex -0.618033 1.90211 3
    endloop
  endfacet
  facet normal 0.248688 -0.968584 0
    outer loop
      vertex -0.374763 1.96457 3
      vertex -0.618033 1.90211 0
      vertex -0.374763 1.96457 0
    endloop
  endfacet
  facet normal -0.368128 0.929775 0
    outer loop
      vertex 0.851558 -1.80965 0
      vertex 0.618033 -1.90211 3
      vertex 0.851558 -1.80965 3
    endloop
  endfacet
  facet normal -0.368128 0.929775 0
    outer loop
      vertex 0.618033 -1.90211 3
      vertex 0.851558 -1.80965 0
      vertex 0.618033 -1.90211 0
    endloop
  endfacet
  facet normal -0.951056 -0.309018 0
    outer loop
      vertex 1.93717 0.497379 0
      vertex 1.85955 0.736249 3
      vertex 1.85955 0.736249 0
    endloop
  endfacet
  facet normal -0.951056 -0.309018 0
    outer loop
      vertex 1.85955 0.736249 3
      vertex 1.93717 0.497379 0
      vertex 1.93717 0.497379 3
    endloop
  endfacet
  facet normal -0.770514 -0.637423 0
    outer loop
      vertex 1.61803 1.17557 0
      vertex 1.45794 1.36909 3
      vertex 1.45794 1.36909 0
    endloop
  endfacet
  facet normal -0.770514 -0.637423 0
    outer loop
      vertex 1.45794 1.36909 3
      vertex 1.61803 1.17557 0
      vertex 1.61803 1.17557 3
    endloop
  endfacet
  facet normal -0.844328 -0.535826 0
    outer loop
      vertex 1.75261 0.963507 0
      vertex 1.61803 1.17557 3
      vertex 1.61803 1.17557 0
    endloop
  endfacet
  facet normal -0.844328 -0.535826 0
    outer loop
      vertex 1.61803 1.17557 3
      vertex 1.75261 0.963507 0
      vertex 1.75261 0.963507 3
    endloop
  endfacet
  facet normal -0.248688 -0.968584 0
    outer loop
      vertex 0.374763 1.96457 0
      vertex 0.618033 1.90211 3
      vertex 0.374763 1.96457 3
    endloop
  endfacet
  facet normal -0.248688 -0.968584 -0
    outer loop
      vertex 0.618033 1.90211 3
      vertex 0.374763 1.96457 0
      vertex 0.618033 1.90211 0
    endloop
  endfacet
  facet normal -0.125333 -0.992115 0
    outer loop
      vertex 0.125581 1.99605 0
      vertex 0.374763 1.96457 3
      vertex 0.125581 1.99605 3
    endloop
  endfacet
  facet normal -0.125333 -0.992115 -0
    outer loop
      vertex 0.374763 1.96457 3
      vertex 0.125581 1.99605 0
      vertex 0.374763 1.96457 0
    endloop
  endfacet
  facet normal -0.481753 -0.876307 0
    outer loop
      vertex 0.851558 1.80965 0
      vertex 1.07165 1.68865 3
      vertex 0.851558 1.80965 3
    endloop
  endfacet
  facet normal -0.481753 -0.876307 -0
    outer loop
      vertex 1.07165 1.68865 3
      vertex 0.851558 1.80965 0
      vertex 1.07165 1.68865 0
    endloop
  endfacet
  facet normal 0.844328 -0.535826 0
    outer loop
      vertex -1.75261 0.963507 3
      vertex -1.61803 1.17557 0
      vertex -1.61803 1.17557 3
    endloop
  endfacet
  facet normal 0.844328 -0.535826 0
    outer loop
      vertex -1.61803 1.17557 0
      vertex -1.75261 0.963507 3
      vertex -1.75261 0.963507 0
    endloop
  endfacet
  facet normal 0.770514 -0.637423 0
    outer loop
      vertex -1.61803 1.17557 3
      vertex -1.45794 1.36909 0
      vertex -1.45794 1.36909 3
    endloop
  endfacet
  facet normal 0.770514 -0.637423 0
    outer loop
      vertex -1.45794 1.36909 0
      vertex -1.61803 1.17557 3
      vertex -1.61803 1.17557 0
    endloop
  endfacet
  facet normal 0.982287 -0.18738 0
    outer loop
      vertex -1.98423 0.250666 3
      vertex -1.93717 0.497379 0
      vertex -1.93717 0.497379 3
    endloop
  endfacet
  facet normal 0.982287 -0.18738 0
    outer loop
      vertex -1.93717 0.497379 0
      vertex -1.98423 0.250666 3
      vertex -1.98423 0.250666 0
    endloop
  endfacet
  facet normal 0.587785 -0.809017 0
    outer loop
      vertex -1.27485 1.54103 0
      vertex -1.07165 1.68865 3
      vertex -1.27485 1.54103 3
    endloop
  endfacet
  facet normal 0.587785 -0.809017 0
    outer loop
      vertex -1.07165 1.68865 3
      vertex -1.27485 1.54103 0
      vertex -1.07165 1.68865 0
    endloop
  endfacet
  facet normal 0.125333 -0.992115 0
    outer loop
      vertex -0.374763 1.96457 0
      vertex -0.125581 1.99605 3
      vertex -0.374763 1.96457 3
    endloop
  endfacet
  facet normal 0.125333 -0.992115 0
    outer loop
      vertex -0.125581 1.99605 3
      vertex -0.374763 1.96457 0
      vertex -0.125581 1.99605 0
    endloop
  endfacet
  facet normal -0.998027 0.062792 0
    outer loop
      vertex 1.98423 -0.250666 0
      vertex 2 0 3
      vertex 2 0 0
    endloop
  endfacet
  facet normal -0.998027 0.062792 0
    outer loop
      vertex 2 0 3
      vertex 1.98423 -0.250666 0
      vertex 1.98423 -0.250666 3
    endloop
  endfacet
  facet normal -0.982287 0.18738 0
    outer loop
      vertex 1.93717 -0.497379 0
      vertex 1.98423 -0.250666 3
      vertex 1.98423 -0.250666 0
    endloop
  endfacet
  facet normal -0.982287 0.18738 0
    outer loop
      vertex 1.98423 -0.250666 3
      vertex 1.93717 -0.497379 0
      vertex 1.93717 -0.497379 3
    endloop
  endfacet
  facet normal 0.904827 0.425779 0
    outer loop
      vertex -1.75261 -0.963507 3
      vertex -1.85955 -0.736249 0
      vertex -1.85955 -0.736249 3
    endloop
  endfacet
  facet normal 0.904827 0.425779 0
    outer loop
      vertex -1.85955 -0.736249 0
      vertex -1.75261 -0.963507 3
      vertex -1.75261 -0.963507 0
    endloop
  endfacet
  facet normal 0.844328 0.535826 0
    outer loop
      vertex -1.61803 -1.17557 3
      vertex -1.75261 -0.963507 0
      vertex -1.75261 -0.963507 3
    endloop
  endfacet
  facet normal 0.844328 0.535826 0
    outer loop
      vertex -1.75261 -0.963507 0
      vertex -1.61803 -1.17557 3
      vertex -1.61803 -1.17557 0
    endloop
  endfacet
  facet normal -0.481753 0.876307 0
    outer loop
      vertex 1.07165 -1.68865 0
      vertex 0.851558 -1.80965 3
      vertex 1.07165 -1.68865 3
    endloop
  endfacet
  facet normal -0.481753 0.876307 0
    outer loop
      vertex 0.851558 -1.80965 3
      vertex 1.07165 -1.68865 0
      vertex 0.851558 -1.80965 0
    endloop
  endfacet
  facet normal -0.904827 0.425779 0
    outer loop
      vertex 1.75261 -0.963507 0
      vertex 1.85955 -0.736249 3
      vertex 1.85955 -0.736249 0
    endloop
  endfacet
  facet normal -0.904827 0.425779 0
    outer loop
      vertex 1.85955 -0.736249 3
      vertex 1.75261 -0.963507 0
      vertex 1.75261 -0.963507 3
    endloop
  endfacet
  facet normal 0.770514 0.637423 0
    outer loop
      vertex -1.45794 -1.36909 3
      vertex -1.61803 -1.17557 0
      vertex -1.61803 -1.17557 3
    endloop
  endfacet
  facet normal 0.770514 0.637423 0
    outer loop
      vertex -1.61803 -1.17557 0
      vertex -1.45794 -1.36909 3
      vertex -1.45794 -1.36909 0
    endloop
  endfacet
  facet normal 0.951056 0.309018 0
    outer loop
      vertex -1.85955 -0.736249 3
      vertex -1.93717 -0.497379 0
      vertex -1.93717 -0.497379 3
    endloop
  endfacet
  facet normal 0.951056 0.309018 0
    outer loop
      vertex -1.93717 -0.497379 0
      vertex -1.85955 -0.736249 3
      vertex -1.85955 -0.736249 0
    endloop
  endfacet
  facet normal -0.587785 0.809017 0
    outer loop
      vertex 1.27485 -1.54103 0
      vertex 1.07165 -1.68865 3
      vertex 1.27485 -1.54103 3
    endloop
  endfacet
  facet normal -0.587785 0.809017 0
    outer loop
      vertex 1.07165 -1.68865 3
      vertex 1.27485 -1.54103 0
      vertex 1.07165 -1.68865 0
    endloop
  endfacet
  facet normal -0.248688 0.968584 0
    outer loop
      vertex 0.618033 -1.90211 0
      vertex 0.374763 -1.96457 3
      vertex 0.618033 -1.90211 3
    endloop
  endfacet
  facet normal -0.248688 0.968584 0
    outer loop
      vertex 0.374763 -1.96457 3
      vertex 0.618033 -1.90211 0
      vertex 0.374763 -1.96457 0
    endloop
  endfacet
  facet normal -0.125333 0.992115 0
    outer loop
      vertex 0.374763 -1.96457 0
      vertex 0.125581 -1.99605 3
      vertex 0.374763 -1.96457 3
    endloop
  endfacet
  facet normal -0.125333 0.992115 0
    outer loop
      vertex 0.125581 -1.99605 3
      vertex 0.374763 -1.96457 0
      vertex 0.125581 -1.99605 0
    endloop
  endfacet
  facet normal -0.844328 0.535826 0
    outer loop
      vertex 1.61803 -1.17557 0
      vertex 1.75261 -0.963507 3
      vertex 1.75261 -0.963507 0
    endloop
  endfacet
  facet normal -0.844328 0.535826 0
    outer loop
      vertex 1.75261 -0.963507 3
      vertex 1.61803 -1.17557 0
      vertex 1.61803 -1.17557 3
    endloop
  endfacet
  facet normal -0.770514 0.637423 0
    outer loop
      vertex 1.45794 -1.36909 0
      vertex 1.61803 -1.17557 3
      vertex 1.61803 -1.17557 0
    endloop
  endfacet
  facet normal -0.770514 0.637423 0
    outer loop
      vertex 1.61803 -1.17557 3
      vertex 1.45794 -1.36909 0
      vertex 1.45794 -1.36909 3
    endloop
  endfacet
  facet normal -0.951056 0.309018 0
    outer loop
      vertex 1.85955 -0.736249 0
      vertex 1.93717 -0.497379 3
      vertex 1.93717 -0.497379 0
    endloop
  endfacet
  facet normal -0.951056 0.309018 0
    outer loop
      vertex 1.93717 -0.497379 3
      vertex 1.85955 -0.736249 0
      vertex 1.85955 -0.736249 3
    endloop
  endfacet
  facet normal 0.125333 0.992115 -0
    outer loop
      vertex -0.125581 -1.99605 0
      vertex -0.374763 -1.96457 3
      vertex -0.125581 -1.99605 3
    endloop
  endfacet
  facet normal 0.125333 0.992115 0
    outer loop
      vertex -0.374763 -1.96457 3
      vertex -0.125581 -1.99605 0
      vertex -0.374763 -1.96457 0
    endloop
  endfacet
  facet normal 0.248688 0.968584 -0
    outer loop
      vertex -0.374763 -1.96457 0
      vertex -0.618033 -1.90211 3
      vertex -0.374763 -1.96457 3
    endloop
  endfacet
  facet normal 0.248688 0.968584 0
    outer loop
      vertex -0.618033 -1.90211 3
      vertex -0.374763 -1.96457 0
      vertex -0.618033 -1.90211 0
    endloop
  endfacet
  facet normal 0.982287 0.18738 0
    outer loop
      vertex -1.93717 -0.497379 3
      vertex -1.98423 -0.250666 0
      vertex -1.98423 -0.250666 3
    endloop
  endfacet
  facet normal 0.982287 0.18738 0
    outer loop
      vertex -1.98423 -0.250666 0
      vertex -1.93717 -0.497379 3
      vertex -1.93717 -0.497379 0
    endloop
  endfacet
  facet normal 0.998027 0.062792 0
    outer loop
      vertex -1.98423 -0.250666 3
      vertex -2 0 0
      vertex -2 0 3
    endloop
  endfacet
  facet normal 0.998027 0.062792 0
    outer loop
      vertex -2 0 0
      vertex -1.98423 -0.250666 3
      vertex -1.98423 -0.250666 0
    endloop
  endfacet
  facet normal 0.684545 0.72897 -0
    outer loop
      vertex -1.27485 -1.54103 0
      vertex -1.45794 -1.36909 3
      vertex -1.27485 -1.54103 3
    endloop
  endfacet
  facet normal 0.684545 0.72897 0
    outer loop
      vertex -1.45794 -1.36909 3
      vertex -1.27485 -1.54103 0
      vertex -1.45794 -1.36909 0
    endloop
  endfacet
  facet normal 0.481753 0.876307 -0
    outer loop
      vertex -0.851558 -1.80965 0
      vertex -1.07165 -1.68865 3
      vertex -0.851558 -1.80965 3
    endloop
  endfacet
  facet normal 0.481753 0.876307 0
    outer loop
      vertex -1.07165 -1.68865 3
      vertex -0.851558 -1.80965 0
      vertex -1.07165 -1.68865 0
    endloop
  endfacet
  facet normal 0.587785 0.809017 -0
    outer loop
      vertex -1.07165 -1.68865 0
      vertex -1.27485 -1.54103 3
      vertex -1.07165 -1.68865 3
    endloop
  endfacet
  facet normal 0.587785 0.809017 0
    outer loop
      vertex -1.27485 -1.54103 3
      vertex -1.07165 -1.68865 0
      vertex -1.27485 -1.54103 0
    endloop
  endfacet
  facet normal 0.368128 0.929775 -0
    outer loop
      vertex -0.618033 -1.90211 0
      vertex -0.851558 -1.80965 3
      vertex -0.618033 -1.90211 3
    endloop
  endfacet
  facet normal 0.368128 0.929775 0
    outer loop
      vertex -0.851558 -1.80965 3
      vertex -0.618033 -1.90211 0
      vertex -0.851558 -1.80965 0
    endloop
  endfacet
endsolid OpenSCAD_Model
